# Blender v2.93.4 OBJ File: ''
# www.blender.org
mtllib bench.mtl
v -0.271722 0.200894 0.622659
v -0.271722 0.000295 0.538904
v -0.271722 0.000294 1.110818
v -0.271722 0.200894 1.027063
v -0.271722 0.284649 0.824861
v -0.271722 0.192497 0.651331
v -0.271722 0.000295 0.579452
v -0.271722 0.000295 1.070270
v -0.271722 0.192496 0.998391
v -0.271722 0.264375 0.824861
v -0.213813 0.161927 0.678738
v -0.213813 0.000082 0.618212
v -0.213813 0.000082 1.031509
v -0.213813 0.161927 0.970983
v -0.213813 0.222453 0.824861
v -0.189672 0.008728 0.824861
v 0.300192 0.200894 0.622659
v 0.300192 0.000295 0.538904
v 0.300192 0.000294 1.110818
v 0.300192 0.200894 1.027063
v 0.300192 0.284649 0.824861
v 0.300192 0.192497 0.651331
v 0.300192 0.000295 0.579452
v 0.300192 0.000295 1.070270
v 0.300192 0.192496 0.998391
v 0.300192 0.264375 0.824861
v 0.242283 0.161927 0.678738
v 0.242283 0.000082 0.618212
v 0.242283 0.000082 1.031509
v 0.242283 0.161927 0.970983
v 0.242283 0.222453 0.824861
v 0.218142 0.008728 0.824861
v -0.343993 0.247004 1.179769
v -0.311760 0.288344 1.179721
v -0.345569 0.244225 -1.179466
v -0.313337 0.285564 -1.179515
v 0.044439 0.244224 -1.179720
v 0.032336 0.300924 -1.179769
v 0.061820 0.247004 1.176526
v 0.049717 0.303704 1.176477
v -0.288908 0.287716 0.646531
v -0.318278 0.246376 0.646578
v 0.033332 0.246376 0.646392
v 0.022304 0.303076 0.646342
v 0.050418 0.247004 1.179741
v 0.065858 0.303903 1.179692
v 0.048841 0.244225 -1.179495
v 0.064281 0.301123 -1.179543
v 0.343993 0.244224 -1.179692
v 0.315862 0.293273 -1.179741
v 0.345569 0.247004 1.179543
v 0.317438 0.296053 1.179495
v 0.239757 0.293444 -1.034750
v 0.283531 0.293273 -1.179700
v 0.284514 0.244224 -1.179652
v 0.239736 0.244358 -1.066325
v 0.194790 0.244224 -1.179592
v 0.207107 0.293273 -1.179649
v -0.271722 0.200896 -0.977341
v -0.271722 0.000296 -1.061096
v -0.271722 0.000296 -0.489182
v -0.271722 0.200895 -0.572937
v -0.271722 0.284650 -0.775139
v -0.271722 0.192498 -0.948669
v -0.271722 0.000296 -1.020548
v -0.271722 0.000296 -0.529730
v -0.271722 0.192498 -0.601608
v -0.271722 0.264376 -0.775139
v -0.213813 0.161928 -0.921261
v -0.213813 0.000084 -0.981788
v -0.213813 0.000083 -0.568491
v -0.213813 0.161928 -0.629017
v -0.213813 0.222454 -0.775139
v -0.194397 0.008730 -0.775139
v 0.300192 0.200896 -0.977341
v 0.300192 0.000296 -1.061096
v 0.300192 0.000296 -0.489182
v 0.300192 0.200895 -0.572937
v 0.300192 0.284650 -0.775139
v 0.300192 0.192498 -0.948669
v 0.300192 0.000296 -1.020548
v 0.300192 0.000296 -0.529730
v 0.300192 0.192498 -0.601608
v 0.300192 0.264376 -0.775139
v 0.242283 0.161928 -0.921261
v 0.242283 0.000084 -0.981788
v 0.242283 0.000083 -0.568491
v 0.242283 0.161928 -0.629017
v 0.242283 0.222454 -0.775139
v 0.222868 0.008730 -0.775139
vt 0.346747 0.742991
vt 0.347538 0.743290
vt 0.346900 0.747223
vt 0.347377 0.747528
vt 0.347241 0.760393
vt 0.347227 0.756016
vt 0.348048 0.760064
vt 0.347693 0.755686
vt 0.347150 0.751625
vt 0.347536 0.751612
vt 0.194057 0.234521
vt 0.197755 0.232700
vt 0.195129 0.235431
vt 0.198144 0.234048
vt 0.193629 0.241689
vt 0.194801 0.240913
vt 0.197082 0.243938
vt 0.197630 0.242646
vt 0.192527 0.238026
vt 0.193906 0.238109
vt 0.198144 0.238363
vt 0.335273 0.748131
vt 0.334691 0.743929
vt 0.335703 0.747790
vt 0.335442 0.743548
vt 0.336338 0.759952
vt 0.336099 0.760407
vt 0.336230 0.756197
vt 0.335753 0.755941
vt 0.335961 0.752028
vt 0.335589 0.752053
vt 0.199634 0.239619
vt 0.198724 0.238548
vt 0.201456 0.235922
vt 0.200108 0.235532
vt 0.191510 0.236046
vt 0.193242 0.238875
vt 0.190217 0.236594
vt 0.192467 0.240048
vt 0.196047 0.239770
vt 0.196129 0.241150
vt 0.195793 0.235532
vt 0.808229 0.602103
vt 0.808206 0.601086
vt 0.818677 0.601799
vt 0.818646 0.600771
vt 0.861328 0.593432
vt 0.860569 0.594077
vt 0.854068 0.591921
vt 0.854097 0.593048
vt 0.818463 0.594083
vt 0.808125 0.594035
vt 0.818438 0.592953
vt 0.808151 0.592892
vt 0.800896 0.594859
vt 0.800130 0.594139
vt 0.808607 0.609977
vt 0.818886 0.609342
vt 0.854349 0.600820
vt 0.854317 0.599798
vt 0.854525 0.608431
vt 0.682836 0.752334
vt 0.682784 0.753471
vt 0.637259 0.750135
vt 0.637201 0.751273
vt 0.636895 0.757235
vt 0.636949 0.756136
vt 0.682503 0.759425
vt 0.682555 0.758335
vt 0.687573 0.756877
vt 0.686773 0.756039
vt 0.636997 0.755501
vt 0.639826 0.754798
vt 0.636347 0.755646
vt 0.635715 0.756750
vt 0.637527 0.744438
vt 0.683113 0.746629
vt 0.637471 0.745587
vt 0.639620 0.746558
vt 0.637390 0.747318
vt 0.625874 0.759947
vt 0.625151 0.758206
vt 0.629525 0.757059
vt 0.628860 0.755624
vt 0.637079 0.754010
vt 0.632742 0.753390
vt 0.632730 0.755094
vt 0.336088 0.771740
vt 0.335297 0.771441
vt 0.335935 0.767507
vt 0.335458 0.767203
vt 0.335594 0.754337
vt 0.335608 0.758714
vt 0.334787 0.754666
vt 0.335142 0.759045
vt 0.335685 0.763106
vt 0.335299 0.763118
vt 0.197952 0.242161
vt 0.194255 0.243982
vt 0.196880 0.241251
vt 0.193865 0.242634
vt 0.198380 0.234995
vt 0.197208 0.235770
vt 0.194927 0.232746
vt 0.194380 0.234038
vt 0.199482 0.238657
vt 0.198103 0.238574
vt 0.193865 0.238321
vt 0.347562 0.766599
vt 0.348144 0.770802
vt 0.347132 0.766941
vt 0.347393 0.771182
vt 0.346497 0.754779
vt 0.346735 0.754323
vt 0.346605 0.758534
vt 0.347082 0.758790
vt 0.346874 0.762702
vt 0.347246 0.762677
vt 0.192375 0.237064
vt 0.193285 0.238136
vt 0.190553 0.240761
vt 0.191901 0.241151
vt 0.200500 0.240637
vt 0.198767 0.237808
vt 0.201793 0.240089
vt 0.199543 0.236635
vt 0.195963 0.236913
vt 0.195880 0.235533
vt 0.196216 0.241151
vn -1.0000 0.0000 0.0000
vn -0.5320 -0.2966 0.7931
vn -0.5320 -0.2966 -0.7931
vn -0.5559 -0.7679 -0.3181
vn -0.5559 -0.7680 0.3181
vn -0.9921 -0.0440 0.1177
vn -0.9921 -0.0440 -0.1177
vn -0.9926 -0.1121 -0.0464
vn -0.9926 -0.1121 0.0464
vn 1.0000 0.0000 0.0000
vn 0.5320 -0.2966 0.7931
vn 0.5320 -0.2966 -0.7931
vn 0.5559 -0.7679 -0.3181
vn 0.5559 -0.7680 0.3181
vn 0.5559 -0.7679 0.3181
vn 0.9921 -0.0440 0.1177
vn 0.9921 -0.0440 -0.1177
vn 0.9926 -0.1121 -0.0464
vn 0.9926 -0.1121 0.0464
vn 0.0000 0.3853 -0.9228
vn 0.0000 0.9239 -0.3827
vn 0.0000 0.9239 0.3827
vn 0.0000 0.3853 0.9228
vn -0.7880 0.6144 -0.0387
vn -0.8147 0.5788 -0.0356
vn -0.0007 -0.0007 -1.0000
vn -0.0007 -0.0010 -1.0000
vn 0.9803 0.1906 -0.0509
vn 0.9766 0.2084 -0.0527
vn 0.0089 0.0028 1.0000
vn 0.0086 0.0006 1.0000
vn 0.0082 -0.0029 1.0000
vn 0.0080 -0.0051 1.0000
vn -0.0425 0.9991 -0.0030
vn -0.0484 0.9988 0.0008
vn -0.0441 0.9990 -0.0011
vn -0.0493 0.9988 -0.0000
vn 0.0000 -1.0000 0.0012
vn -0.8151 0.5791 0.0115
vn -0.7886 0.6149 0.0098
vn 0.9780 0.2088 0.0057
vn 0.9816 0.1909 0.0052
vn -0.0480 0.9988 -0.0012
vn -0.0444 0.9990 -0.0006
vn -0.9651 0.2619 0.0003
vn 0.8675 0.4975 -0.0012
vn 0.0007 0.0014 1.0000
vn 0.0007 0.0013 1.0000
vn 0.0008 0.0007 1.0000
vn 0.0008 0.0006 1.0000
vn -0.0000 1.0000 -0.0012
vn -0.0012 -0.0010 -1.0000
vn -0.0009 -0.0012 -1.0000
vn -0.0007 -0.0014 -1.0000
vn -0.0008 -0.0009 -1.0000
vn -0.0008 -0.0010 -1.0000
vn 0.0312 0.9995 -0.0023
vn 0.0549 0.9985 -0.0012
vn 0.0117 0.9999 -0.0038
vn -0.9410 0.1833 -0.2844
vn -0.9299 -0.0190 -0.3674
vn 0.9052 -0.2277 -0.3589
vn 0.9659 0.1397 -0.2178
vn -0.5559 -0.7679 0.3181
vn -0.9948 -0.0355 0.0950
vn -0.9948 -0.0355 -0.0950
vn -0.9952 -0.0904 -0.0374
vn -0.9952 -0.0904 0.0374
vn 0.9948 -0.0355 0.0950
vn 0.9948 -0.0355 -0.0950
vn 0.9952 -0.0904 -0.0374
vn 0.9952 -0.0904 0.0374
usemtl lambert37.033
s 1
f 2/1/1 7/2/1 1/3/1
f 1/3/1 7/2/1 6/4/1
f 3/5/1 4/6/1 8/7/1
f 8/7/1 4/6/1 9/8/1
f 4/6/1 5/9/1 9/8/1
f 9/8/1 5/9/1 10/10/1
f 1/3/1 6/4/1 5/9/1
f 5/9/1 6/4/1 10/10/1
f 6/11/2 7/12/2 11/13/2
f 11/13/2 7/12/2 12/14/2
f 9/15/3 14/16/3 8/17/3
f 8/17/3 14/16/3 13/18/3
f 10/19/4 15/20/4 9/15/4
f 9/15/4 15/20/4 14/16/4
f 10/19/5 6/11/5 15/20/5
f 15/20/5 6/11/5 11/13/5
f 11/13/6 12/14/6 16/21/6
f 13/18/7 14/16/7 16/21/7
f 14/16/8 15/20/8 16/21/8
f 15/20/9 11/13/9 16/21/9
f 22/22/10 23/23/10 17/24/10
f 17/24/10 23/23/10 18/25/10
f 19/26/10 24/27/10 20/28/10
f 20/28/10 24/27/10 25/29/10
f 20/28/10 25/29/10 21/30/10
f 21/30/10 25/29/10 26/31/10
f 26/31/10 22/22/10 21/30/10
f 21/30/10 22/22/10 17/24/10
f 22/32/11 27/33/11 23/34/11
f 23/34/11 27/33/11 28/35/11
f 29/36/12 30/37/12 24/38/12
f 24/38/12 30/37/12 25/39/12
f 30/37/13 31/40/13 25/39/13
f 25/39/13 31/40/13 26/41/13
f 26/41/14 31/40/14 22/32/15
f 22/32/15 31/40/14 27/33/15
f 27/33/16 32/42/16 28/35/16
f 29/36/17 32/42/17 30/37/17
f 30/37/18 32/42/18 31/40/18
f 31/40/19 32/42/19 27/33/19
f 1/3/20 17/24/20 2/1/20
f 2/1/20 17/24/20 18/25/20
f 5/9/21 21/30/21 1/3/21
f 1/3/21 21/30/21 17/24/21
f 4/6/22 20/28/22 5/9/22
f 5/9/22 20/28/22 21/30/22
f 3/5/23 19/26/23 4/6/23
f 4/6/23 19/26/23 20/28/23
f 33/43/24 34/44/24 42/45/24
f 42/45/25 34/44/25 41/46/25
f 35/47/26 36/48/26 37/49/27
f 37/49/27 36/48/26 38/50/27
f 44/51/28 40/52/28 43/53/28
f 43/53/29 40/52/29 39/54/29
f 40/52/30 34/55/31 39/54/32
f 39/54/32 34/55/31 33/56/33
f 34/44/34 40/52/35 41/46/36
f 41/46/36 40/52/35 44/51/37
f 33/43/38 42/45/38 39/57/38
f 39/57/38 42/45/38 43/58/38
f 42/45/39 41/46/39 35/59/39
f 35/59/40 41/46/40 36/60/40
f 43/58/38 42/45/38 37/61/38
f 37/61/38 42/45/38 35/59/38
f 37/49/41 38/50/41 43/53/41
f 43/53/42 38/50/42 44/51/42
f 44/51/37 38/50/43 41/46/36
f 41/46/36 38/50/43 36/60/44
f 45/62/45 46/63/45 47/64/45
f 47/64/45 46/63/45 48/65/45
f 49/66/46 50/67/46 51/68/46
f 51/68/46 50/67/46 52/69/46
f 51/68/47 52/69/48 45/70/49
f 45/70/49 52/69/48 46/71/50
f 50/67/51 54/72/51 52/69/51
f 54/72/51 53/73/51 52/69/51
f 54/74/52 50/67/53 55/75/53
f 55/75/53 50/67/53 49/66/54
f 49/76/38 51/77/38 55/78/38
f 51/77/38 56/79/38 55/78/38
f 51/77/38 45/62/38 56/79/38
f 47/64/38 57/80/38 45/62/38
f 45/62/38 57/80/38 56/79/38
f 47/81/26 48/82/26 57/83/55
f 57/83/55 48/82/26 58/84/56
f 52/69/57 53/73/57 46/63/57
f 48/65/58 46/63/58 58/85/58
f 46/63/59 53/73/59 58/85/59
f 53/86/60 54/74/60 56/87/60
f 56/87/61 54/74/61 55/75/61
f 57/83/62 58/84/62 56/87/62
f 56/87/63 58/84/63 53/86/63
f 60/88/1 65/89/1 59/90/1
f 59/90/1 65/89/1 64/91/1
f 61/92/1 62/93/1 66/94/1
f 66/94/1 62/93/1 67/95/1
f 62/93/1 63/96/1 67/95/1
f 67/95/1 63/96/1 68/97/1
f 59/90/1 64/91/1 63/96/1
f 63/96/1 64/91/1 68/97/1
f 64/98/2 65/99/2 69/100/2
f 69/100/2 65/99/2 70/101/2
f 67/102/3 72/103/3 66/104/3
f 66/104/3 72/103/3 71/105/3
f 68/106/4 73/107/4 67/102/4
f 67/102/4 73/107/4 72/103/4
f 68/106/64 64/98/5 73/107/64
f 73/107/64 64/98/5 69/100/5
f 69/100/65 70/101/65 74/108/65
f 71/105/66 72/103/66 74/108/66
f 72/103/67 73/107/67 74/108/67
f 73/107/68 69/100/68 74/108/68
f 80/109/10 81/110/10 75/111/10
f 75/111/10 81/110/10 76/112/10
f 77/113/10 82/114/10 78/115/10
f 78/115/10 82/114/10 83/116/10
f 78/115/10 83/116/10 79/117/10
f 79/117/10 83/116/10 84/118/10
f 84/118/10 80/109/10 79/117/10
f 79/117/10 80/109/10 75/111/10
f 80/119/11 85/120/11 81/121/11
f 81/121/11 85/120/11 86/122/11
f 87/123/12 88/124/12 82/125/12
f 82/125/12 88/124/12 83/126/12
f 88/124/13 89/127/13 83/126/13
f 83/126/13 89/127/13 84/128/13
f 84/128/15 89/127/15 80/119/14
f 80/119/14 89/127/15 85/120/14
f 85/120/69 90/129/69 86/122/69
f 87/123/70 90/129/70 88/124/70
f 88/124/71 90/129/71 89/127/71
f 89/127/72 90/129/72 85/120/72
f 59/90/20 75/111/20 60/88/20
f 60/88/20 75/111/20 76/112/20
f 63/96/21 79/117/21 59/90/21
f 59/90/21 79/117/21 75/111/21
f 62/93/22 78/115/22 63/96/22
f 63/96/22 78/115/22 79/117/22
f 61/92/23 77/113/23 62/93/23
f 62/93/23 77/113/23 78/115/23
