# Blender v2.93.4 OBJ File: ''
# www.blender.org
mtllib carrot.mtl
v 0.008175 -0.200171 -0.008175
v 0.000000 -0.200171 -0.011562
v -0.008175 -0.200171 -0.008175
v -0.011561 -0.200171 -0.000000
v -0.008175 -0.200171 0.008175
v 0.000000 -0.200171 0.011561
v 0.008175 -0.200171 0.008175
v 0.011561 -0.200171 -0.000000
v 0.027888 -0.115752 -0.027888
v -0.000000 -0.044444 -0.047217
v -0.031717 -0.077928 -0.031717
v -0.044855 -0.077928 -0.000000
v -0.027096 -0.077928 0.031717
v -0.000000 -0.077928 0.044855
v 0.031717 -0.077928 0.031717
v 0.044855 -0.077928 -0.000000
v 0.000000 -0.213925 -0.000000
v -0.000000 -0.115752 0.039440
v -0.027888 -0.115752 0.027888
v -0.028650 -0.157571 -0.000000
v -0.023293 -0.115752 -0.027888
v -0.000000 -0.115752 -0.039440
v 0.039440 -0.115752 -0.000000
v 0.020259 -0.157571 0.020259
v -0.020259 -0.157571 0.020259
v -0.020259 -0.157571 -0.020259
v 0.000000 -0.157571 -0.028650
v 0.028650 -0.157571 -0.000000
v 0.033387 -0.044444 -0.033388
v -0.033365 -0.006177 -0.033365
v -0.033365 -0.006177 0.033365
v -0.000000 -0.006177 0.047185
v 0.033387 -0.044444 0.029806
v 0.047185 -0.006177 -0.000000
v 0.033365 -0.006177 -0.033365
v -0.000000 -0.006177 -0.047185
v -0.047185 -0.006177 -0.000000
v 0.033365 -0.006177 0.033365
v 0.029474 0.022539 -0.029474
v -0.000000 0.022539 -0.041682
v -0.029474 0.022539 -0.029474
v -0.041682 0.022539 0.000000
v -0.029474 0.022539 0.029474
v -0.000000 0.022539 0.041682
v 0.029474 0.022539 0.029474
v 0.041682 0.022539 0.000000
v 0.019185 0.028890 -0.019185
v 0.000000 0.028890 -0.027131
v -0.019185 0.028890 -0.019185
v -0.027131 0.028890 0.000000
v -0.019185 0.028890 0.019185
v 0.000000 0.028890 0.027131
v 0.019185 0.028890 0.019185
v 0.027131 0.028890 0.000000
v -0.000000 0.015931 0.000000
v -0.008879 0.254703 0.282609
v 0.000967 0.010791 0.005729
v -0.053650 0.258302 0.161160
v 0.053082 0.261215 0.166243
v -0.008700 0.011813 0.006085
v -0.042631 0.205325 0.071298
v 0.047680 0.205157 0.071134
v -0.082394 0.255590 0.153703
v 0.082516 0.259913 0.160995
v -0.061882 0.194736 0.061170
v 0.066728 0.193742 0.060212
v 0.001859 0.231807 0.129466
v 0.000634 0.115436 0.033787
v -0.008961 0.260671 0.281711
v 0.001796 0.237516 0.126252
v -0.052193 0.264008 0.158942
v -0.062021 0.197114 0.055276
v 0.000635 0.122189 0.023363
v -0.009442 0.013246 -0.000231
v -0.081091 0.260703 0.149925
v -0.040997 0.209389 0.066594
v 0.051557 0.266859 0.163853
v 0.081257 0.265032 0.157206
v 0.046051 0.209254 0.066442
v 0.066836 0.196095 0.054325
v 0.001612 0.012172 -0.000600
v 0.235661 0.122694 -0.074729
v 0.000394 0.004473 -0.006495
v 0.165412 0.140927 -0.008274
v 0.140372 0.152782 -0.084504
v 0.091226 0.110394 0.008139
v 0.066501 0.119194 -0.055163
v 0.167637 0.137276 0.013945
v 0.128532 0.155552 -0.103682
v 0.087596 0.102306 0.024214
v 0.051754 0.114396 -0.065750
v 0.123765 0.131904 -0.038945
v 0.035227 0.081118 -0.012942
v 0.013752 0.054026 -0.017640
v 0.027267 0.060728 0.001729
v 0.236470 0.130002 -0.073908
v 0.121929 0.139497 -0.037083
v 0.164008 0.148504 -0.008597
v 0.081806 0.107303 0.026477
v 0.029518 0.086004 -0.010108
v 0.020679 0.064656 0.003613
v 0.164401 0.144523 0.014491
v 0.086511 0.116683 0.008685
v 0.140071 0.159856 -0.081372
v 0.126412 0.162400 -0.100227
v 0.063245 0.124999 -0.050924
v 0.046384 0.119186 -0.062355
v 0.008380 0.057523 -0.013250
v -0.005536 0.007453 -0.003106
v -0.200879 0.198050 -0.085624
v -0.007346 0.013360 -0.004129
v -0.102700 0.200780 -0.082947
v -0.136354 0.202990 -0.009183
v -0.042494 0.160582 -0.049865
v -0.067824 0.160455 0.013809
v -0.089347 0.198722 -0.101097
v -0.140950 0.202002 0.013033
v -0.029934 0.152548 -0.060573
v -0.065497 0.151793 0.030306
v -0.096011 0.180676 -0.034909
v -0.025251 0.095801 -0.007611
v -0.017322 0.064153 0.004745
v -0.012400 0.074735 -0.016853
v -0.199820 0.205364 -0.085309
v -0.092324 0.187674 -0.033518
v -0.100839 0.207774 -0.080279
v -0.023561 0.156091 -0.057341
v -0.018554 0.099281 -0.004865
v -0.005882 0.077033 -0.013028
v -0.085640 0.204990 -0.097895
v -0.037884 0.165564 -0.045863
v -0.132940 0.209909 -0.009830
v -0.136065 0.208277 0.013324
v -0.061744 0.165477 0.014090
v -0.058663 0.155285 0.032404
v -0.009981 0.066433 0.005875
v -0.000384 0.014962 -0.002010
vt 0.149452 0.733176
vt 0.149945 0.733430
vt 0.148926 0.735791
vt 0.150488 0.733577
vt 0.149926 0.736090
vt 0.151069 0.733619
vt 0.150940 0.736226
vt 0.151670 0.733549
vt 0.151973 0.736164
vt 0.152269 0.733378
vt 0.152756 0.732984
vt 0.154228 0.735680
vt 0.153238 0.732433
vt 0.155391 0.735160
vt 0.153684 0.731710
vt 0.150464 0.732449
vt 0.150559 0.731870
vt 0.151653 0.732336
vt 0.150658 0.733003
vt 0.151095 0.733404
vt 0.152693 0.732958
vt 0.152863 0.732385
vt 0.152740 0.731803
vt 0.152182 0.738305
vt 0.153602 0.738296
vt 0.152376 0.740035
vt 0.153754 0.740064
vt 0.150788 0.739993
vt 0.149410 0.738055
vt 0.149328 0.739856
vt 0.148164 0.737801
vt 0.147606 0.741210
vt 0.146661 0.737321
vt 0.156781 0.737610
vt 0.159075 0.736937
vt 0.157236 0.739841
vt 0.155456 0.740010
vt 0.145817 0.741018
vt 0.149143 0.742944
vt 0.152102 0.743118
vt 0.153612 0.743235
vt 0.155478 0.741621
vt 0.156947 0.743765
vt 0.159387 0.741887
vt 0.145836 0.743098
vt 0.147601 0.742954
vt 0.150629 0.743014
vt 0.155188 0.743437
vt 0.158927 0.744290
vt 0.146239 0.744641
vt 0.147771 0.744266
vt 0.149174 0.744193
vt 0.150580 0.744247
vt 0.152002 0.744356
vt 0.153418 0.744518
vt 0.154905 0.744783
vt 0.156460 0.745195
vt 0.158124 0.745963
vt 0.146786 0.745364
vt 0.147924 0.745034
vt 0.149196 0.744974
vt 0.150544 0.745040
vt 0.151939 0.745152
vt 0.153269 0.745329
vt 0.154699 0.745621
vt 0.156105 0.746022
vt 0.157334 0.746667
vt 0.152826 0.748302
vt 0.151603 0.748151
vt 0.152403 0.746745
vt 0.150834 0.747182
vt 0.150969 0.745946
vt 0.153985 0.746340
vt 0.153803 0.747557
vt 0.129655 0.824971
vt 0.132131 0.833967
vt 0.128549 0.832473
vt 0.129677 0.838622
vt 0.133497 0.841742
vt 0.133991 0.847077
vt 0.127348 0.833309
vt 0.130332 0.837621
vt 0.134688 0.831047
vt 0.136128 0.831272
vt 0.135163 0.836749
vt 0.136131 0.837500
vt 0.134506 0.847037
vt 0.133275 0.825662
vt 0.135400 0.830537
vt 0.132753 0.832309
vt 0.136552 0.836203
vt 0.133550 0.846995
vt 0.132932 0.840868
vt 0.136803 0.830766
vt 0.135482 0.835445
vt 0.130282 0.830251
vt 0.128843 0.830375
vt 0.130024 0.835527
vt 0.128983 0.836378
vt 0.133023 0.847064
vt 0.129322 0.824861
vt 0.128226 0.832309
vt 0.133707 0.847207
vt 0.129433 0.838740
vt 0.127080 0.833371
vt 0.130012 0.837661
vt 0.129887 0.824698
vt 0.134892 0.830738
vt 0.136398 0.831221
vt 0.135476 0.836661
vt 0.136398 0.837537
vt 0.134816 0.847076
vt 0.130600 0.827878
vt 0.132921 0.834762
vt 0.130133 0.833793
vt 0.131530 0.838638
vt 0.134245 0.840099
vt 0.133927 0.841285
vt 0.129331 0.834565
vt 0.131937 0.837822
vt 0.134762 0.832455
vt 0.135844 0.832669
vt 0.135140 0.837059
vt 0.135873 0.837646
vt 0.134987 0.841546
vt 0.135025 0.843968
vt 0.132510 0.828307
vt 0.134442 0.831839
vt 0.132484 0.833272
vt 0.135537 0.836418
vt 0.133869 0.840539
vt 0.132928 0.839270
vt 0.135568 0.831989
vt 0.134617 0.835869
vt 0.130449 0.831909
vt 0.129322 0.832142
vt 0.130844 0.836191
vt 0.130037 0.836937
vt 0.133524 0.844359
vt 0.132497 0.841328
vt 0.130173 0.827764
vt 0.129706 0.833622
vt 0.131242 0.838761
vt 0.133599 0.841446
vt 0.129014 0.834693
vt 0.131547 0.837926
vt 0.130874 0.827517
vt 0.135010 0.832057
vt 0.136184 0.832627
vt 0.135535 0.836967
vt 0.136191 0.837627
vt 0.135373 0.843992
vt 0.135344 0.841541
vt 0.134719 0.844125
vt 0.130836 0.827500
vt 0.132959 0.834557
vt 0.130191 0.833444
vt 0.131282 0.838156
vt 0.134114 0.840376
vt 0.133756 0.841568
vt 0.129354 0.834159
vt 0.131708 0.837376
vt 0.134865 0.832266
vt 0.135937 0.832487
vt 0.135256 0.836658
vt 0.135957 0.837239
vt 0.134758 0.841891
vt 0.134672 0.844331
vt 0.133164 0.828092
vt 0.134816 0.831812
vt 0.132767 0.833136
vt 0.135589 0.836271
vt 0.133542 0.840965
vt 0.132753 0.839640
vt 0.135905 0.832019
vt 0.134780 0.835642
vt 0.130876 0.831558
vt 0.129764 0.831648
vt 0.130654 0.835610
vt 0.129832 0.836266
vt 0.132990 0.844633
vt 0.132224 0.841620
vt 0.130408 0.827377
vt 0.129768 0.833259
vt 0.131006 0.838304
vt 0.133430 0.841731
vt 0.129027 0.834248
vt 0.131314 0.837442
vt 0.131128 0.827149
vt 0.135128 0.831874
vt 0.136271 0.832423
vt 0.135643 0.836551
vt 0.136271 0.837281
vt 0.135016 0.844372
vt 0.135115 0.841933
vt 0.134358 0.844466
vn 0.3588 -0.3475 -0.8663
vn -0.3588 -0.3475 -0.8663
vn -0.8663 -0.3475 -0.3588
vn -0.8663 -0.3475 0.3588
vn -0.3588 -0.3475 0.8663
vn 0.3588 -0.3475 0.8663
vn 0.8663 -0.3475 0.3588
vn 0.8663 -0.3475 -0.3588
vn 0.3022 -0.6134 -0.7297
vn -0.3022 -0.6134 -0.7297
vn -0.7297 -0.6134 -0.3022
vn -0.7297 -0.6134 0.3022
vn -0.3022 -0.6134 0.7297
vn 0.3022 -0.6134 0.7297
vn 0.7297 -0.6134 0.3022
vn 0.7297 -0.6134 -0.3022
vn -0.3813 -0.0852 0.9205
vn -0.4327 -0.1278 0.8924
vn -0.9317 -0.1896 0.3097
vn -0.8721 -0.0312 0.4883
vn -0.8809 -0.1792 -0.4380
vn -0.8974 -0.2375 -0.3717
vn -0.4365 -0.1863 -0.8802
vn -0.3481 -0.1016 -0.9319
vn 0.3808 -0.1003 -0.9192
vn 0.9159 -0.1311 -0.3794
vn 0.8778 -0.1896 0.4398
vn 0.9159 -0.1311 0.3794
vn 0.4398 -0.1896 0.8778
vn 0.3794 -0.1311 0.9159
vn -0.2441 -0.3041 0.9208
vn -0.3723 -0.2319 0.8987
vn -0.8987 -0.2319 0.3723
vn -0.9153 -0.1356 -0.3791
vn -0.3755 -0.1926 -0.9066
vn -0.4329 -0.2252 -0.8729
vn 0.4785 -0.3041 -0.8238
vn 0.3723 -0.2319 -0.8987
vn 0.8238 -0.3041 -0.4785
vn 0.8987 -0.2319 -0.3723
vn 0.8987 -0.2319 0.3723
vn 0.2441 -0.3041 0.9208
vn -0.4128 -0.0304 -0.9103
vn -0.9235 -0.0300 -0.3825
vn -0.8692 -0.0871 0.4867
vn -0.4361 -0.0292 0.8994
vn -0.3821 -0.0546 0.9225
vn 0.3825 0.0336 0.9234
vn 0.4350 -0.0292 0.9000
vn 0.9236 -0.0242 0.3826
vn 0.9224 -0.0270 0.3852
vn 0.9243 -0.0298 0.3804
vn 0.9213 -0.0301 0.3877
vn 0.9051 -0.1016 -0.4128
vn 0.9356 -0.0304 -0.3518
vn 0.3827 0.0008 -0.9239
vn -0.3827 0.0008 -0.9239
vn -0.9235 -0.0300 0.3825
vn 0.3813 -0.0854 0.9205
vn 0.9233 -0.0350 0.3824
vn 0.9239 0.0008 -0.3827
vn 0.3768 0.1743 -0.9097
vn -0.3768 0.1743 -0.9097
vn -0.9097 0.1743 -0.3768
vn -0.9097 0.1743 0.3768
vn -0.3768 0.1743 0.9097
vn 0.3768 0.1743 0.9097
vn 0.9097 0.1743 0.3768
vn 0.9097 0.1743 -0.3768
vn 0.1635 0.9042 -0.3946
vn -0.1635 0.9042 -0.3946
vn -0.3946 0.9042 -0.1635
vn -0.3946 0.9042 0.1635
vn -0.1635 0.9042 0.3946
vn 0.1635 0.9042 0.3946
vn 0.3946 0.9042 0.1635
vn 0.3946 0.9042 -0.1635
vn -0.1757 0.8883 0.4243
vn 0.1757 0.8883 0.4243
vn 0.4243 0.8883 0.1757
vn 0.4243 0.8883 -0.1757
vn 0.1757 0.8883 -0.4243
vn -0.1757 0.8883 -0.4243
vn -0.4243 0.8883 -0.1757
vn -0.4243 0.8883 0.1757
vn 0.3833 0.9170 -0.1101
vn -0.2142 0.2256 -0.9504
vn 0.1046 0.8685 -0.4845
vn 0.5203 0.5656 -0.6399
vn 0.0761 0.8324 -0.5489
vn 0.1654 0.5003 -0.8499
vn -0.4075 0.8987 -0.1621
vn -0.0725 0.8305 -0.5522
vn -0.5000 0.5793 -0.6437
vn -0.1089 0.8652 -0.4894
vn -0.1712 0.5072 -0.8446
vn 0.2122 0.2098 -0.9544
vn -0.0120 0.2127 -0.9770
vn -0.3756 -0.9201 0.1112
vn 0.0853 -0.2645 0.9606
vn -0.1080 -0.8710 0.4792
vn -0.5382 -0.5319 0.6538
vn -0.0692 -0.8217 0.5657
vn -0.2029 -0.4587 0.8651
vn 0.4007 -0.9016 0.1629
vn 0.0647 -0.8214 0.5667
vn 0.5194 -0.5460 0.6574
vn 0.1127 -0.8673 0.4848
vn 0.2115 -0.4680 0.8580
vn -0.0788 -0.2584 0.9628
vn 0.0082 -0.2589 0.9659
vn -0.9372 0.0393 0.3466
vn -0.8808 0.3492 0.3197
vn -0.9554 -0.2916 0.0460
vn -0.9645 -0.2520 -0.0789
vn -0.9135 -0.0641 -0.4017
vn -0.9170 -0.0829 -0.3902
vn -0.2518 0.6158 0.7466
vn -0.3140 0.4125 0.8551
vn -0.5939 0.6993 0.3978
vn -0.5986 0.7378 0.3118
vn 0.8777 0.0831 0.4720
vn 0.8059 0.4018 0.4349
vn 0.1649 0.6127 0.7729
vn 0.2223 0.4305 0.8748
vn 0.9374 -0.0264 -0.3473
vn 0.9373 -0.0259 -0.3476
vn 0.9373 -0.0260 -0.3476
vn 0.9372 -0.0255 -0.3479
vn 0.6257 0.6821 0.3784
vn 0.6287 0.7181 0.2984
vn 0.9389 -0.3436 0.0207
vn 0.9468 -0.3046 -0.1044
vn -0.0122 0.9584 -0.2850
vn -0.6099 0.5915 0.5273
vn -0.3430 0.9193 0.1929
vn -0.4877 0.8712 0.0568
vn -0.3129 0.9351 0.1665
vn -0.5254 0.8021 0.2839
vn 0.2250 0.8470 0.4815
vn -0.2615 0.9132 0.3126
vn -0.3174 0.8028 0.5047
vn -0.2959 0.9045 0.3071
vn -0.5046 0.7932 0.3409
vn -0.5318 0.3076 0.7890
vn -0.8038 0.5843 0.1116
vn -0.9102 0.4109 0.0529
vn 0.0079 -0.9622 0.2723
vn 0.6086 -0.6061 -0.5122
vn 0.3367 -0.9231 -0.1856
vn 0.3386 -0.9221 -0.1872
vn 0.3371 -0.9230 -0.1859
vn 0.4818 -0.8738 -0.0663
vn 0.3365 -0.9232 -0.1854
vn 0.5261 -0.8014 -0.2845
vn -0.2211 -0.8536 -0.4718
vn 0.2892 -0.9058 -0.3096
vn 0.2891 -0.9058 -0.3096
vn 0.2895 -0.9057 -0.3095
vn 0.3193 -0.8092 -0.4932
vn 0.2888 -0.9059 -0.3097
vn 0.5037 -0.7932 -0.3422
vn 0.5732 -0.3238 -0.7528
vn 0.7878 -0.6015 -0.1325
vn 0.9037 -0.4184 -0.0912
vn 0.6572 -0.1556 0.7375
vn 0.6830 0.1569 0.7133
vn -0.0303 -0.4412 0.8969
vn -0.0161 -0.4544 0.8907
vn -0.0425 -0.0939 0.9947
vn -0.0341 -0.1117 0.9932
vn 0.9121 0.4092 -0.0241
vn 0.9831 0.1827 0.0148
vn 0.6781 0.5836 0.4467
vn 0.7291 0.5068 0.4600
vn 0.1316 0.0963 -0.9866
vn 0.1943 0.4040 -0.8939
vn 0.7857 0.4547 -0.4194
vn 0.7962 0.2730 -0.5399
vn -0.6651 0.1619 -0.7290
vn -0.6650 0.1615 -0.7292
vn -0.6647 0.1607 -0.7296
vn -0.6646 0.1603 -0.7298
vn 0.2326 0.7223 -0.6513
vn 0.2529 0.6591 -0.7082
vn -0.5155 -0.0534 -0.8552
vn -0.6263 0.0162 -0.7794
vn -0.6402 -0.1902 -0.7443
vn -0.6822 -0.1495 -0.7157
vn 0.3556 -0.2993 0.8854
vn 0.1642 -0.1890 0.9681
vn -0.0427 0.9150 0.4011
vn 0.8683 0.3757 0.3239
vn 0.4148 0.8670 0.2763
vn 0.3936 0.5639 0.7260
vn 0.4715 0.8381 0.2744
vn 0.7179 0.5054 0.4787
vn 0.3029 0.8968 -0.3224
vn 0.5337 0.8355 0.1309
vn 0.7824 0.5773 -0.2334
vn 0.4966 0.8639 0.0838
vn 0.8471 0.5119 0.1424
vn 0.9675 0.2034 -0.1501
vn 0.8515 0.3499 0.3905
vn 0.7371 0.1809 0.6512
vn 0.0362 -0.9201 -0.3901
vn -0.8630 -0.3809 -0.3318
vn -0.4048 -0.8710 -0.2782
vn -0.4129 -0.5721 -0.7087
vn -0.4995 -0.8217 -0.2743
vn -0.7243 -0.5015 -0.4732
vn -0.3000 -0.9016 0.3115
vn -0.5502 -0.8214 -0.1504
vn -0.7831 -0.5853 0.2101
vn -0.4920 -0.8673 -0.0754
vn -0.8478 -0.5093 -0.1478
vn -0.9738 -0.2075 0.0933
vn -0.8543 -0.3603 -0.3747
vn -0.7602 -0.1913 -0.6209
vn 0.0261 0.0393 -0.9989
vn 0.0392 0.3470 -0.9370
vn 0.5604 -0.3061 -0.7696
vn 0.5599 -0.3063 -0.7698
vn 0.5598 -0.3064 -0.7699
vn 0.7122 -0.0641 -0.6990
vn 0.7024 -0.0822 -0.7070
vn -0.5997 0.6158 -0.5110
vn -0.6553 0.4151 -0.6311
vn -0.0823 0.7485 -0.6581
vn -0.1201 0.6869 -0.7168
vn -0.7642 0.0831 0.6397
vn -0.6978 0.3999 0.5942
vn -0.7789 0.6127 -0.1339
vn -0.8964 0.4339 -0.0904
vn -0.0256 -0.0264 0.9993
vn -0.0254 -0.0261 0.9993
vn -0.0250 -0.0255 0.9994
vn -0.5119 0.7287 0.4548
vn -0.5750 0.6700 0.4696
vn -0.2394 -0.2125 0.9474
vn -0.0986 -0.1686 0.9807
vn -0.1153 -0.3360 0.9348
vn -0.0496 -0.3106 0.9492
vn 0.3219 -0.1667 -0.9320
vn 0.5301 -0.1024 -0.8417
usemtl lambert18.004
s 1
f 1/1/1 2/2/1 27/3/1
f 2/2/2 3/4/2 27/3/2
f 27/3/2 3/4/2 26/5/2
f 3/4/3 4/6/3 26/5/3
f 26/5/3 4/6/3 20/7/3
f 4/6/4 5/8/4 20/7/4
f 20/7/4 5/8/4 25/9/4
f 5/8/5 6/10/5 25/9/5
f 6/10/6 7/11/6 24/12/6
f 7/11/7 8/13/7 24/12/7
f 24/12/7 8/13/7 28/14/7
f 8/13/8 1/15/8 28/14/8
f 2/16/9 1/17/9 17/18/9
f 3/19/10 2/16/10 17/18/10
f 4/20/11 3/19/11 17/18/11
f 5/8/12 4/20/12 17/18/12
f 6/10/13 5/8/13 17/18/13
f 7/21/14 6/10/14 17/18/14
f 8/22/15 7/21/15 17/18/15
f 1/23/16 8/22/16 17/18/16
f 19/24/17 18/25/17 13/26/17
f 13/26/18 18/25/18 14/27/18
f 20/7/19 19/24/19 12/28/19
f 12/28/20 19/24/20 13/26/20
f 20/7/21 12/28/21 21/29/21
f 21/29/22 12/28/22 11/30/22
f 21/29/23 11/30/23 22/31/23
f 22/31/24 11/30/24 10/32/24
f 9/33/25 22/31/25 10/32/25
f 23/34/26 9/35/26 16/36/26
f 24/12/27 23/34/27 15/37/27
f 15/37/28 23/34/28 16/36/28
f 24/12/29 15/37/29 18/25/29
f 18/25/30 15/37/30 14/27/30
f 6/10/31 18/25/31 25/9/31
f 25/9/32 18/25/32 19/24/32
f 20/7/33 25/9/33 19/24/33
f 26/5/34 20/7/34 21/29/34
f 26/5/35 21/29/35 27/3/35
f 27/3/36 21/29/36 22/31/36
f 1/1/37 27/3/37 9/33/37
f 9/33/38 27/3/38 22/31/38
f 1/15/39 9/35/39 28/14/39
f 28/14/40 9/35/40 23/34/40
f 24/12/41 28/14/41 23/34/41
f 6/10/42 24/12/42 18/25/42
f 9/33/25 10/32/25 29/38/25
f 10/32/43 11/30/43 30/39/43
f 11/30/44 12/28/44 30/39/44
f 12/28/45 13/26/45 31/40/45
f 14/27/46 32/41/46 13/26/46
f 13/26/47 32/41/47 31/40/47
f 15/37/48 33/42/48 14/27/48
f 14/27/49 33/42/49 32/41/49
f 15/37/50 16/36/51 33/42/52
f 33/42/52 16/36/51 34/43/53
f 9/35/54 29/44/54 16/36/54
f 16/36/55 29/44/55 34/43/55
f 29/38/56 10/32/56 35/45/56
f 35/45/56 10/32/56 36/46/56
f 10/32/57 30/39/57 36/46/57
f 30/39/44 12/28/44 37/47/44
f 12/28/58 31/40/58 37/47/58
f 32/41/59 33/42/59 38/48/59
f 33/42/52 34/43/53 38/48/60
f 34/43/61 29/44/61 35/49/61
f 35/45/62 36/46/62 39/50/62
f 39/50/62 36/46/62 40/51/62
f 36/46/63 30/39/63 40/51/63
f 40/51/63 30/39/63 41/52/63
f 30/39/64 37/47/64 41/52/64
f 41/52/64 37/47/64 42/53/64
f 37/47/65 31/40/65 42/53/65
f 42/53/65 31/40/65 43/54/65
f 31/40/66 32/41/66 43/54/66
f 43/54/66 32/41/66 44/55/66
f 32/41/67 38/48/67 44/55/67
f 44/55/67 38/48/67 45/56/67
f 38/48/68 34/43/68 45/56/68
f 45/56/68 34/43/68 46/57/68
f 34/43/69 35/49/69 46/57/69
f 46/57/69 35/49/69 39/58/69
f 39/50/70 40/51/70 47/59/70
f 47/59/70 40/51/70 48/60/70
f 40/51/71 41/52/71 48/60/71
f 48/60/71 41/52/71 49/61/71
f 41/52/72 42/53/72 49/61/72
f 49/61/72 42/53/72 50/62/72
f 42/53/73 43/54/73 50/62/73
f 50/62/73 43/54/73 51/63/73
f 43/54/74 44/55/74 51/63/74
f 51/63/74 44/55/74 52/64/74
f 44/55/75 45/56/75 52/64/75
f 52/64/75 45/56/75 53/65/75
f 45/56/76 46/57/76 53/65/76
f 53/65/76 46/57/76 54/66/76
f 46/57/77 39/58/77 54/66/77
f 54/66/77 39/58/77 47/67/77
f 47/68/78 48/69/78 55/70/78
f 48/69/79 49/71/79 55/70/79
f 49/71/80 50/72/80 55/70/80
f 50/72/81 51/63/81 55/70/81
f 51/63/82 52/64/82 55/70/82
f 52/64/83 53/73/83 55/70/83
f 53/73/84 54/74/84 55/70/84
f 54/74/85 47/68/85 55/70/85
f 69/75/86 70/76/86 71/77/86
f 72/78/87 73/79/87 74/80/87
f 75/81/88 70/76/88 76/82/88
f 76/82/89 70/76/89 73/79/89
f 71/77/90 70/76/90 75/81/90
f 76/82/91 73/79/91 72/78/91
f 69/75/92 77/83/92 70/76/92
f 70/76/93 77/83/93 78/84/93
f 73/79/94 70/76/94 79/85/94
f 79/85/95 70/76/95 78/84/95
f 73/79/96 79/85/96 80/86/96
f 73/79/97 80/86/97 81/87/97
f 74/80/98 73/79/98 81/87/98
f 56/88/99 58/89/99 67/90/99
f 65/91/100 60/92/100 68/93/100
f 63/94/101 61/95/101 67/90/101
f 67/90/102 61/95/102 68/93/102
f 58/89/103 63/94/103 67/90/103
f 61/95/104 65/91/104 68/93/104
f 56/88/105 67/90/105 59/96/105
f 67/90/106 64/97/106 59/96/106
f 68/93/107 62/98/107 67/90/107
f 67/90/108 62/98/108 64/97/108
f 68/93/109 66/99/109 62/98/109
f 68/93/110 57/100/110 66/99/110
f 60/92/111 57/100/111 68/93/111
f 56/101/112 69/75/112 58/102/112
f 58/102/113 69/75/113 71/77/113
f 60/103/114 65/104/114 74/80/114
f 74/80/115 65/104/115 72/78/115
f 63/105/116 75/81/116 61/106/116
f 61/106/117 75/81/117 76/82/117
f 63/105/118 58/102/118 75/81/118
f 75/81/119 58/102/119 71/77/119
f 61/106/120 76/82/120 65/104/120
f 65/104/121 76/82/121 72/78/121
f 56/107/122 59/108/122 69/75/122
f 69/75/123 59/108/123 77/83/123
f 64/109/124 78/84/124 59/108/124
f 59/108/125 78/84/125 77/83/125
f 64/109/126 62/110/127 78/84/128
f 78/84/128 62/110/127 79/85/129
f 62/110/130 66/111/130 79/85/130
f 79/85/131 66/111/131 80/86/131
f 57/112/132 81/87/132 66/111/132
f 66/111/133 81/87/133 80/86/133
f 96/113/134 97/114/134 98/115/134
f 99/116/135 100/117/135 101/118/135
f 102/119/136 97/114/136 103/120/136
f 103/120/137 97/114/137 100/117/137
f 98/115/138 97/114/138 102/119/138
f 103/120/139 100/117/139 99/116/139
f 96/113/140 104/121/140 97/114/140
f 97/114/141 104/121/141 105/122/141
f 100/117/142 97/114/142 106/123/142
f 106/123/143 97/114/143 105/122/143
f 100/117/144 106/123/144 107/124/144
f 100/117/145 108/125/145 109/126/145
f 100/117/146 107/124/146 108/125/146
f 101/118/147 100/117/147 109/126/147
f 82/127/148 84/128/148 92/129/148
f 90/130/149 95/131/149 93/132/149
f 88/133/150 86/134/151 92/129/152
f 92/129/153 86/134/153 93/132/153
f 84/128/154 88/133/150 92/129/152
f 86/134/155 90/130/155 93/132/155
f 82/127/156 92/129/156 85/135/156
f 92/129/157 89/136/158 85/135/159
f 93/132/160 87/137/160 92/129/160
f 92/129/157 87/137/161 89/136/158
f 93/132/162 91/138/162 87/137/162
f 93/132/163 83/139/163 94/140/163
f 93/132/164 94/140/164 91/138/164
f 95/131/165 83/139/165 93/132/165
f 82/141/166 96/113/166 84/142/166
f 84/142/167 96/113/167 98/115/167
f 90/143/168 99/116/168 95/144/168
f 95/144/169 99/116/169 101/118/169
f 88/145/170 102/119/170 86/146/170
f 86/146/171 102/119/171 103/120/171
f 88/145/172 84/142/172 102/119/172
f 102/119/173 84/142/173 98/115/173
f 90/143/174 86/146/174 99/116/174
f 99/116/175 86/146/175 103/120/175
f 82/147/176 85/148/176 96/113/176
f 96/113/177 85/148/177 104/121/177
f 89/149/178 105/122/178 85/148/178
f 85/148/179 105/122/179 104/121/179
f 89/149/180 87/150/181 105/122/182
f 105/122/182 87/150/181 106/123/183
f 91/151/184 107/124/184 87/150/184
f 87/150/185 107/124/185 106/123/185
f 83/152/186 109/126/186 94/153/186
f 94/153/187 109/126/187 108/125/187
f 91/151/188 94/153/188 107/124/188
f 107/124/189 94/153/189 108/125/189
f 83/154/190 95/144/190 109/126/190
f 109/126/191 95/144/191 101/118/191
f 124/155/192 125/156/192 126/157/192
f 127/158/193 128/159/193 129/160/193
f 130/161/194 125/156/194 131/162/194
f 131/162/195 125/156/195 128/159/195
f 126/157/196 125/156/196 130/161/196
f 131/162/197 128/159/197 127/158/197
f 124/155/198 132/163/198 125/156/198
f 125/156/199 132/163/199 133/164/199
f 128/159/200 125/156/200 134/165/200
f 134/165/201 125/156/201 133/164/201
f 128/159/202 134/165/202 135/166/202
f 128/159/203 136/167/203 137/168/203
f 128/159/204 135/166/204 136/167/204
f 129/160/205 128/159/205 137/168/205
f 110/169/206 112/170/206 120/171/206
f 118/172/207 123/173/207 121/174/207
f 116/175/208 114/176/208 120/171/208
f 120/171/209 114/176/209 121/174/209
f 112/170/210 116/175/210 120/171/210
f 114/176/211 118/172/211 121/174/211
f 110/169/212 120/171/212 113/177/212
f 120/171/213 117/178/213 113/177/213
f 121/174/214 115/179/214 120/171/214
f 120/171/215 115/179/215 117/178/215
f 121/174/216 119/180/216 115/179/216
f 121/174/217 111/181/217 122/182/217
f 121/174/218 122/182/218 119/180/218
f 123/173/219 111/181/219 121/174/219
f 110/183/220 124/155/220 112/184/220
f 112/184/221 124/155/221 126/157/221
f 118/185/222 127/158/223 123/186/222
f 123/186/222 127/158/223 129/160/224
f 116/187/225 130/161/225 114/188/225
f 114/188/226 130/161/226 131/162/226
f 116/187/227 112/184/227 130/161/227
f 130/161/228 112/184/228 126/157/228
f 118/185/229 114/188/229 127/158/229
f 127/158/230 114/188/230 131/162/230
f 110/189/231 113/190/231 124/155/231
f 124/155/232 113/190/232 132/163/232
f 117/191/233 133/164/233 113/190/233
f 113/190/234 133/164/234 132/163/234
f 117/191/235 115/192/236 133/164/236
f 133/164/236 115/192/236 134/165/237
f 119/193/238 135/166/238 115/192/238
f 115/192/239 135/166/239 134/165/239
f 111/194/240 137/168/240 122/195/240
f 122/195/241 137/168/241 136/167/241
f 119/193/242 122/195/242 135/166/242
f 135/166/243 122/195/243 136/167/243
f 111/196/244 123/186/244 137/168/244
f 137/168/245 123/186/245 129/160/245
