# Blender v2.93.4 OBJ File: ''
# www.blender.org
mtllib fork.mtl
v -0.019038 -0.010301 -1.113620
v 0.023411 -0.010301 -1.113620
v -0.019038 0.010299 -1.113620
v 0.023411 0.010299 -1.113620
v 0.018211 0.016419 -0.518297
v -0.030182 0.010299 -0.518297
v -0.024062 -0.016421 -0.518297
v 0.024331 -0.010301 -0.518297
v 0.027745 0.016419 -0.152363
v -0.032091 0.010299 -0.152910
v -0.025972 -0.016421 -0.152854
v 0.033865 -0.010301 -0.152306
v 0.040321 -0.016421 -1.158786
v -0.042068 -0.010301 -1.158786
v -0.035948 0.016419 -1.158786
v 0.046441 0.010299 -1.158786
v 0.046441 -0.010301 -1.221856
v -0.042068 -0.010301 -1.221856
v -0.042068 0.010299 -1.221856
v 0.046441 0.010299 -1.221856
v -0.107116 -0.010301 -1.158786
v -0.103285 0.016419 -1.164906
v -0.119120 0.010299 -1.221856
v -0.113670 -0.016421 -1.215737
v 0.111489 0.010299 -1.158786
v 0.107658 -0.016421 -1.164906
v 0.123493 -0.010301 -1.221856
v 0.118043 0.016419 -1.215737
v -0.001070 -0.016421 -0.121772
v 0.043581 -0.010301 -0.120773
v 0.037463 0.016419 -0.120910
v -0.001070 0.016419 -0.121772
v -0.042453 0.010299 -0.121377
v -0.036334 -0.016421 -0.121436
v 0.026343 0.016419 -0.041578
v 0.026343 -0.016421 -0.041578
v 0.059321 -0.010301 -0.045773
v 0.053250 0.016419 -0.045001
v 0.025813 0.016419 -0.010467
v 0.025813 -0.016421 -0.010467
v 0.061281 -0.010301 -0.014739
v 0.054865 0.016419 -0.019240
v -0.039062 -0.016421 -0.040870
v -0.039062 0.016419 -0.040870
v -0.081768 0.010299 -0.045669
v -0.075687 -0.016421 -0.044986
v -0.041205 -0.016421 -0.007865
v -0.041205 0.016419 -0.007865
v -0.078197 0.010299 -0.012665
v -0.072551 -0.016421 -0.017368
v -0.004056 0.016419 -0.035616
v -0.003440 0.016419 -0.006232
v -0.003312 -0.010301 -0.000114
v -0.004056 -0.016421 -0.035616
v -0.116596 0.016419 -1.190898
v -0.122715 -0.010301 -1.190898
v -0.045706 -0.016421 -1.190898
v 0.050079 -0.016421 -1.190898
v 0.120969 -0.016421 -1.190898
v 0.127089 0.010299 -1.190898
v 0.050079 0.016419 -1.190898
v -0.045706 0.016419 -1.190898
v -0.012918 -0.016421 -1.113620
v 0.017291 -0.016421 -1.113620
v -0.012918 0.016419 -1.113620
v 0.017291 0.016419 -1.113620
v 0.024331 0.010299 -0.518297
v -0.024062 0.016419 -0.518297
v -0.030182 -0.010301 -0.518297
v 0.018211 -0.016421 -0.518297
v 0.033865 0.010299 -0.152306
v -0.025972 0.016419 -0.152854
v -0.032091 -0.010301 -0.152910
v 0.027745 -0.016421 -0.152363
v 0.047130 -0.016421 -1.164867
v 0.046441 -0.010301 -1.158786
v -0.042757 -0.016421 -1.164867
v -0.035948 -0.016421 -1.158786
v -0.042757 0.016419 -1.164867
v -0.042068 0.010299 -1.158786
v 0.047130 0.016419 -1.164867
v 0.040321 0.016419 -1.158786
v 0.047155 -0.016421 -1.215778
v -0.042782 -0.016421 -1.215778
v -0.042782 0.016419 -1.215778
v 0.047155 0.016419 -1.215778
v -0.103285 -0.016421 -1.164906
v -0.107116 0.010299 -1.158786
v -0.113670 0.016419 -1.215737
v -0.119120 -0.010301 -1.221856
v 0.107658 0.016419 -1.164906
v 0.111489 -0.010301 -1.158786
v 0.118043 -0.016421 -1.215737
v 0.123493 0.010299 -1.221856
v 0.037463 -0.016421 -0.120910
v 0.043581 0.010299 -0.120773
v -0.036334 0.016419 -0.121436
v -0.042453 -0.010301 -0.121377
v 0.053250 -0.016421 -0.045001
v 0.059321 0.010299 -0.045773
v 0.025709 0.010299 -0.004348
v 0.025709 -0.010301 -0.004348
v 0.054865 -0.016421 -0.019240
v 0.061281 0.010299 -0.014739
v -0.075687 0.016419 -0.044986
v -0.081768 -0.010301 -0.045669
v -0.041601 -0.010301 -0.001758
v -0.041601 0.010299 -0.001758
v -0.072551 0.016419 -0.017368
v -0.078197 -0.010301 -0.012665
v -0.003312 0.010299 -0.000114
v -0.003440 -0.016421 -0.006232
v -0.122715 0.010299 -1.190898
v -0.116596 -0.016421 -1.190898
v 0.127089 -0.010301 -1.190898
v 0.120969 0.016419 -1.190898
v -0.012009 -0.004480 -1.202708
v 0.013487 -0.004480 -1.202708
v -0.002649 0.001894 -1.473660
v -0.012009 0.008268 -1.202708
v 0.013487 0.008268 -1.202708
v 0.004127 0.001894 -1.473660
v -0.012009 0.008268 -1.449870
v 0.013487 0.008268 -1.449870
v 0.013487 -0.004480 -1.449870
v -0.012009 -0.004480 -1.449870
v -0.100691 -0.002042 -1.202596
v -0.085005 -0.002042 -1.203968
v -0.119838 0.001894 -1.472907
v -0.100691 0.005831 -1.202596
v -0.085005 0.005831 -1.203968
v -0.113088 0.001894 -1.473498
v -0.127089 0.008268 -1.448392
v -0.101690 0.008268 -1.450614
v -0.101690 -0.004480 -1.450614
v -0.127089 -0.004480 -1.448392
v 0.087919 -0.002042 -1.203480
v 0.103635 -0.002042 -1.202510
v 0.109094 0.001894 -1.473641
v 0.087919 0.005831 -1.203480
v 0.103635 0.005831 -1.202510
v 0.115857 0.001894 -1.473223
v 0.098285 0.008268 -1.450472
v 0.123733 0.008268 -1.448901
v 0.123733 -0.004480 -1.448901
v 0.098285 -0.004480 -1.450472
vt 0.250230 0.293376
vt 0.133962 0.293414
vt 0.250229 0.289353
vt 0.139503 0.373395
vt 0.260769 0.381838
vt 0.139504 0.382026
vt 0.139506 0.314603
vt 0.260771 0.320959
vt 0.139504 0.323234
vt 0.131963 0.285037
vt 0.248206 0.285019
vt 0.131963 0.289060
vt 0.062613 0.293438
vt 0.133961 0.289392
vt 0.065064 0.373004
vt 0.064965 0.383973
vt 0.064965 0.312656
vt 0.065063 0.323624
vt 0.060472 0.285046
vt 0.060472 0.289069
vt 0.097697 0.354472
vt 0.090462 0.354364
vt 0.097757 0.350449
vt 0.269968 0.370968
vt 0.269970 0.386540
vt 0.260129 0.289350
vt 0.260130 0.293372
vt 0.269970 0.325661
vt 0.271213 0.308698
vt 0.276516 0.308096
vt 0.248206 0.289041
vt 0.258105 0.285017
vt 0.258106 0.289040
vt 0.271209 0.387931
vt 0.276511 0.388533
vt 0.099685 0.355289
vt 0.099575 0.351267
vt 0.106654 0.355098
vt 0.271209 0.327051
vt 0.276511 0.327653
vt 0.069864 0.359532
vt 0.069797 0.355510
vt 0.076835 0.359414
vt 0.272831 0.289345
vt 0.272832 0.293368
vt 0.271214 0.339410
vt 0.085077 0.338802
vt 0.069991 0.342671
vt 0.070032 0.338649
vt 0.281577 0.369572
vt 0.276507 0.354501
vt 0.281567 0.355098
vt 0.270807 0.285015
vt 0.270808 0.289037
vt 0.271218 0.400289
vt 0.102318 0.343001
vt 0.117404 0.339132
vt 0.117363 0.343155
vt 0.281584 0.308693
vt 0.276519 0.293622
vt 0.281578 0.294219
vt 0.102359 0.338979
vt 0.085036 0.342824
vt 0.077253 0.354168
vt 0.069797 0.354057
vt 0.077312 0.350145
vt 0.054028 0.289069
vt 0.054028 0.285046
vt 0.058733 0.318540
vt 0.058559 0.310672
vt 0.062612 0.289416
vt 0.056132 0.293441
vt 0.056130 0.289418
vt 0.058733 0.378089
vt 0.058663 0.370889
vt 0.116826 0.343536
vt 0.100209 0.349769
vt 0.100278 0.343357
vt 0.043096 0.389180
vt 0.042398 0.383686
vt 0.039063 0.289070
vt 0.039062 0.285047
vt 0.042399 0.312943
vt 0.043097 0.307449
vt 0.037849 0.389510
vt 0.036061 0.383578
vt 0.032990 0.289071
vt 0.032990 0.285047
vt 0.036061 0.313051
vt 0.037850 0.307119
vt 0.069797 0.349440
vt 0.087318 0.343217
vt 0.087248 0.349629
vt 0.043088 0.333775
vt 0.042251 0.326297
vt 0.039474 0.293447
vt 0.039472 0.289425
vt 0.042252 0.370332
vt 0.043090 0.362854
vt 0.037462 0.333135
vt 0.035528 0.326734
vt 0.032991 0.293450
vt 0.032990 0.289427
vt 0.035529 0.369894
vt 0.037464 0.363494
vt 0.094230 0.343291
vt 0.035198 0.377605
vt 0.041183 0.377479
vt 0.090521 0.350342
vt 0.084795 0.350257
vt 0.035197 0.319024
vt 0.094160 0.349704
vt 0.084735 0.354279
vt 0.041183 0.319149
vt 0.106544 0.351077
vt 0.112627 0.350910
vt 0.076767 0.355392
vt 0.082852 0.355290
vt 0.281579 0.327056
vt 0.276508 0.342128
vt 0.276509 0.368975
vt 0.271213 0.357219
vt 0.281579 0.387936
vt 0.276513 0.403007
vt 0.271224 0.296340
vt 0.269884 0.387792
vt 0.269882 0.369720
vt 0.271207 0.369577
vt 0.269885 0.326906
vt 0.269889 0.308835
vt 0.269974 0.310088
vt 0.260682 0.374422
vt 0.260768 0.375670
vt 0.260687 0.313537
vt 0.260772 0.314791
vt 0.139418 0.324479
vt 0.139418 0.383278
vt 0.064989 0.324869
vt 0.064867 0.385224
vt 0.139420 0.313349
vt 0.139417 0.372147
vt 0.260683 0.383090
vt 0.260685 0.322204
vt 0.282736 0.308835
vt 0.282732 0.326906
vt 0.269881 0.340188
vt 0.276422 0.343373
vt 0.282727 0.353988
vt 0.276421 0.353253
vt 0.269880 0.356439
vt 0.282728 0.342639
vt 0.281567 0.341530
vt 0.282729 0.369720
vt 0.269886 0.401074
vt 0.276427 0.404259
vt 0.282740 0.293102
vt 0.276434 0.292368
vt 0.269892 0.295553
vt 0.282733 0.403525
vt 0.281573 0.402410
vt 0.282731 0.387792
vt 0.058444 0.387208
vt 0.058558 0.385957
vt 0.064869 0.311402
vt 0.058446 0.309419
vt 0.058565 0.326985
vt 0.058663 0.325740
vt 0.064989 0.371757
vt 0.058565 0.369642
vt 0.043168 0.390422
vt 0.043169 0.306205
vt 0.034728 0.383559
vt 0.036846 0.390822
vt 0.036847 0.305805
vt 0.034729 0.313068
vt 0.043141 0.335012
vt 0.043143 0.361614
vt 0.034198 0.326811
vt 0.036418 0.334283
vt 0.036420 0.362343
vt 0.034199 0.369815
vt 0.033865 0.377634
vt 0.033865 0.318993
vt 0.011946 0.529874
vt 0.060209 0.529874
vt 0.011946 0.534853
vt 0.011946 0.540108
vt 0.011946 0.535129
vt 0.060209 0.540108
vt 0.011966 0.502723
vt 0.060228 0.503111
vt 0.011946 0.505212
vt 0.065201 0.507471
vt 0.060209 0.508716
vt 0.060209 0.506227
vt 0.065018 0.531702
vt 0.060209 0.534853
vt 0.060209 0.535129
vt 0.065018 0.536957
vt 0.065209 0.504395
vt 0.060207 0.505600
vt 0.011946 0.508716
vt 0.015449 0.509806
vt 0.063715 0.508854
vt 0.015449 0.512881
vt 0.011946 0.528646
vt 0.011946 0.525571
vt 0.060211 0.529598
vt 0.010205 0.497603
vt 0.058480 0.497468
vt 0.010194 0.499140
vt 0.123892 0.501340
vt 0.118900 0.502585
vt 0.118900 0.500096
vt 0.068524 0.510682
vt 0.063715 0.513833
vt 0.060211 0.524619
vt 0.065021 0.526447
vt 0.063463 0.498748
vt 0.058462 0.499957
vt 0.070628 0.502109
vt 0.011946 0.515061
vt 0.060211 0.514109
vt 0.011946 0.518136
vt 0.011946 0.523391
vt 0.011946 0.520316
vt 0.060211 0.524343
vt 0.064508 0.497603
vt 0.112782 0.497468
vt 0.064497 0.499140
vt 0.068714 0.501340
vt 0.063722 0.502585
vt 0.063722 0.500096
vt 0.065021 0.515937
vt 0.060211 0.519088
vt 0.060211 0.519364
vt 0.065021 0.521192
vt 0.117765 0.498748
vt 0.112765 0.499957
vt 0.015449 0.502109
vt 0.069856 0.350035
vt 0.116757 0.349948
vt 0.069866 0.343028
vt 0.112737 0.354931
vt 0.082920 0.359312
vt 0.065018 0.533025
vt 0.065018 0.538280
vt 0.011946 0.506227
vt 0.068524 0.512005
vt 0.065021 0.527770
vt 0.070628 0.500572
vt 0.065021 0.517260
vt 0.065021 0.522515
vt 0.015449 0.500572
vn -0.9998 0.0000 -0.0187
vn 0.0000 -1.0000 -0.0000
vn 0.0000 1.0000 0.0000
vn 1.0000 0.0000 -0.0015
vn -1.0000 0.0000 -0.0052
vn 0.9997 0.0000 -0.0260
vn 0.2804 -0.0000 0.9599
vn -0.8909 0.0000 0.4542
vn 0.8909 0.0000 0.4542
vn -0.8995 0.0000 0.4370
vn 0.8995 0.0000 0.4370
vn 0.0000 0.0000 1.0000
vn 0.0000 0.0000 -1.0000
vn -0.2856 -0.0000 0.9583
vn 0.9557 0.0000 -0.2945
vn -0.9500 0.0000 -0.3122
vn -0.9462 -0.0000 0.3235
vn 0.9787 0.0000 -0.2054
vn 0.9980 -0.0000 -0.0630
vn 0.9052 -0.0000 0.4251
vn -0.8875 0.0000 -0.4609
vn -0.9942 -0.0000 0.1076
vn -0.1925 0.0000 -0.9813
vn 0.1444 -0.0000 0.9895
vn 0.1484 0.0000 -0.9889
vn -0.0429 -0.0000 0.9991
vn -0.9933 0.0000 -0.1154
vn 0.9933 0.0000 -0.1154
vn 0.5544 -0.5544 0.6207
vn -0.5544 -0.5544 0.6207
vn -0.5544 0.5544 0.6207
vn 0.5544 0.5544 0.6207
vn -0.7070 -0.7070 -0.0133
vn -0.7070 -0.7070 -0.0132
vn 0.7071 0.7071 -0.0011
vn -0.7070 0.7070 -0.0132
vn -0.7071 0.7071 -0.0037
vn 0.7071 -0.7071 -0.0011
vn 0.7070 -0.7070 -0.0184
vn 0.7071 -0.7069 -0.0184
vn 0.7071 0.7069 -0.0184
vn 0.7070 0.7070 -0.0184
vn -0.7071 -0.7071 -0.0037
vn 0.6652 -0.6652 0.3392
vn -0.6652 -0.6652 0.3392
vn -0.6652 0.6652 0.3392
vn 0.6652 0.6652 0.3392
vn 0.0002 0.7047 -0.7095
vn 0.0001 0.7061 -0.7082
vn 0.0000 0.7047 -0.7095
vn -0.6688 0.6688 0.3249
vn -0.7042 -0.7053 -0.0820
vn -0.7024 -0.7070 -0.0825
vn -0.7047 -0.7047 -0.0818
vn -0.0003 -0.7066 0.7076
vn -0.0001 -0.7055 0.7087
vn -0.0005 -0.7073 0.7070
vn -0.0001 0.7065 0.7078
vn -0.0003 0.7054 0.7088
vn 0.0000 0.7071 0.7071
vn -0.0002 0.7062 -0.7080
vn -0.0001 0.7054 -0.7089
vn -0.0004 0.7073 -0.7069
vn -0.0001 -0.7060 -0.7082
vn -0.0003 -0.7053 -0.7089
vn 0.0000 -0.7071 -0.7071
vn 0.6688 -0.6688 0.3249
vn 0.7042 0.7053 -0.0820
vn 0.7024 0.7070 -0.0825
vn 0.7047 0.7047 -0.0818
vn 0.0003 0.7066 0.7076
vn 0.0001 0.7055 0.7087
vn 0.0005 0.7073 0.7070
vn 0.0001 -0.7065 0.7077
vn 0.0003 -0.7055 0.7087
vn 0.0000 -0.7071 0.7071
vn 0.0002 -0.7062 -0.7080
vn 0.0001 -0.7054 -0.7089
vn 0.0004 -0.7073 -0.7069
vn 0.0003 0.7053 -0.7089
vn 0.0000 0.7071 -0.7071
vn -0.0002 -0.7047 -0.7095
vn 0.0000 -0.7047 -0.7095
vn 0.6928 -0.6886 -0.2139
vn 0.6921 -0.6896 -0.2134
vn 0.6932 -0.6882 -0.2142
vn 0.6929 0.6887 -0.2136
vn 0.6921 0.6895 -0.2137
vn 0.6933 0.6883 -0.2136
vn -0.6892 0.6881 -0.2271
vn -0.6883 0.6892 -0.2264
vn -0.6897 0.6875 -0.2274
vn -0.6892 -0.6882 -0.2267
vn -0.6882 -0.6892 -0.2268
vn -0.6898 -0.6876 -0.2267
vn 0.6954 -0.7038 -0.1450
vn 0.6990 -0.7000 -0.1463
vn 0.6934 -0.7060 -0.1442
vn 0.6954 0.7038 -0.1456
vn 0.6991 0.7001 -0.1457
vn 0.6931 0.7060 -0.1455
vn 0.1983 -0.7071 0.6787
vn 0.2028 0.6906 0.6942
vn 0.7058 -0.7070 -0.0443
vn 0.7061 -0.7067 -0.0445
vn 0.7056 -0.7072 -0.0442
vn 0.7058 0.7070 -0.0445
vn 0.7062 0.7066 -0.0444
vn 0.7057 0.7071 -0.0446
vn -0.6496 0.6828 -0.3344
vn -0.6488 -0.6823 -0.3369
vn -0.2033 0.7049 0.6795
vn -0.2064 0.7000 0.6837
vn -0.2020 0.7071 0.6777
vn -0.2045 -0.6980 0.6862
vn -0.7014 0.7083 0.0796
vn -0.7048 -0.7052 0.0771
vn -0.7095 -0.7002 0.0796
vn -0.7030 -0.7071 0.0761
vn 0.1019 -0.7039 0.7029
vn 0.1025 -0.7029 0.7038
vn 0.1017 -0.7044 0.7025
vn 0.1024 0.7040 0.7028
vn 0.1021 0.7029 0.7039
vn 0.1025 0.7044 0.7024
vn -0.0304 0.7068 0.7068
vn -0.0305 0.7066 0.7070
vn -0.0303 0.7070 0.7065
vn -0.0304 -0.7065 0.7071
vn -0.0304 -0.7067 0.7069
vn -0.0305 -0.7070 0.7065
vn -0.7029 0.7065 -0.0819
vn -0.7041 0.7053 -0.0826
vn -0.7024 0.7071 -0.0816
vn -0.6360 -0.7071 0.3090
vn 0.7029 -0.7066 -0.0819
vn 0.7041 -0.7053 -0.0827
vn 0.7024 -0.7071 -0.0816
vn 0.6360 0.7071 0.3090
vn 1.0000 0.0000 0.0000
vn -0.9306 -0.0000 -0.3661
vn 0.0000 -0.9659 -0.2588
vn 0.0000 0.9659 -0.2588
vn 0.9306 0.0000 -0.3661
vn -1.0000 0.0000 -0.0000
vn 0.0009 -1.0000 0.0098
vn 0.0009 1.0000 0.0098
vn 0.9977 0.0000 -0.0675
vn -0.9589 0.0000 -0.2836
vn -0.0226 -0.9659 -0.2578
vn -0.0226 0.9659 -0.2578
vn 0.8951 0.0000 -0.4458
vn -0.9943 0.0000 0.1068
vn -0.0006 -1.0000 0.0098
vn -0.0006 1.0000 0.0098
vn 0.9967 0.0000 0.0813
vn -0.9062 0.0000 -0.4228
vn 0.0159 -0.9659 -0.2583
vn 0.0159 0.9659 -0.2583
vn 0.9514 0.0000 -0.3081
vn -0.9991 0.0000 -0.0419
vn -0.6253 0.7116 0.3202
vn -0.7017 -0.7076 -0.0827
vn 0.0000 -0.7049 0.7094
vn -0.0005 0.7048 0.7094
vn 0.6253 -0.7116 0.3202
vn 0.7017 0.7076 -0.0827
vn 0.0000 0.7049 0.7094
vn 0.0005 -0.7048 0.7094
vn 0.6918 -0.6899 -0.2132
vn 0.6918 0.6898 -0.2137
vn -0.6878 0.6898 -0.2260
vn -0.6877 -0.6897 -0.2268
vn 0.7011 -0.6977 -0.1471
vn 0.7013 0.6978 -0.1458
vn 0.2094 -0.6896 0.6933
vn 0.2037 0.7096 0.6745
vn 0.7064 -0.7064 -0.0446
vn 0.7064 0.7064 -0.0443
vn -0.6652 0.6619 -0.3455
vn -0.6659 -0.6626 -0.3428
vn -0.2079 0.6977 0.6856
vn -0.2048 -0.7082 0.6756
vn -0.7115 0.6985 0.0770
vn -0.7115 -0.6980 0.0808
vn 0.1027 -0.7024 0.7043
vn 0.1020 0.7025 0.7043
vn -0.0306 0.7064 0.7072
vn -0.0304 -0.7064 0.7072
vn -0.7047 0.7047 -0.0830
vn -0.6649 -0.6649 0.3405
vn 0.7047 -0.7047 -0.0830
vn 0.6649 0.6649 0.3405
vn -0.0225 -0.9659 -0.2578
vn -0.0225 0.9659 -0.2578
usemtl Material_#25.036
s 1
f 1/1/1 69/2/1 3/3/1
f 7/4/2 64/5/2 70/6/2
f 5/7/3 65/8/3 68/9/3
f 8/10/4 2/11/4 67/12/4
f 69/2/1 73/13/5 6/14/5
f 11/15/2 70/6/2 74/16/2
f 9/17/3 68/9/3 72/18/3
f 12/19/6 8/10/6 71/20/6
f 104/21/7 101/22/7 41/23/7
f 64/5/2 78/24/2 13/25/2
f 1/1/8 80/26/8 14/27/8
f 15/28/3 81/29/3 61/30/3
f 4/31/9 76/32/9 16/33/9
f 75/34/2 13/25/2 58/35/2
f 21/36/10 88/37/10 56/38/10
f 79/39/3 15/28/3 62/40/3
f 25/41/11 92/42/11 60/43/11
f 14/27/12 88/44/12 21/45/12
f 79/39/3 62/40/3 22/46/3
f 19/47/13 90/48/13 23/49/13
f 84/50/2 114/51/2 24/52/2
f 16/33/12 92/53/12 25/54/12
f 75/34/2 58/35/2 26/55/2
f 17/56/13 94/57/13 27/58/13
f 86/59/3 116/60/3 28/61/3
f 19/47/13 20/62/13 18/63/13
f 108/64/14 49/65/14 107/66/14
f 12/19/15 96/67/15 30/68/15
f 9/17/3 32/69/3 31/70/3
f 10/71/16 98/72/16 33/73/16
f 11/15/2 29/74/2 34/75/2
f 32/76/17 36/77/17 35/78/17
f 29/74/2 99/79/2 36/80/2
f 30/68/18 100/81/18 37/82/18
f 31/70/3 35/83/3 38/84/3
f 36/80/2 103/85/2 40/86/2
f 37/82/19 104/87/19 41/88/19
f 38/84/3 39/89/3 42/90/3
f 29/91/20 44/92/20 43/93/20
f 32/69/3 105/94/3 44/95/3
f 33/73/21 106/96/21 45/97/21
f 34/75/2 43/98/2 46/99/2
f 44/95/3 109/100/3 48/101/3
f 45/97/22 110/102/22 49/103/22
f 46/99/2 47/104/2 50/105/2
f 35/78/23 36/77/23 51/106/23
f 36/80/2 112/107/2 54/108/2
f 102/109/24 101/22/24 53/110/24
f 39/89/3 35/83/3 52/111/3
f 54/112/25 43/93/25 51/106/25
f 112/107/2 47/104/2 54/108/2
f 111/113/26 108/64/26 53/110/26
f 51/114/3 48/101/3 52/111/3
f 113/115/27 23/116/27 56/38/27
f 115/117/28 27/118/28 60/43/28
f 62/40/3 85/119/3 55/120/3
f 57/121/2 87/122/2 114/51/2
f 58/35/2 83/123/2 59/124/2
f 61/30/3 91/125/3 116/60/3
f 57/121/2 84/50/2 58/35/2
f 61/30/3 86/59/3 62/40/3
f 13/25/29 75/34/29 76/126/29
f 14/127/30 77/128/30 78/24/30
f 15/28/31 79/39/31 80/129/31
f 16/130/32 81/29/32 82/131/32
f 7/4/33 1/132/34 63/133/34
f 5/7/35 4/134/35 66/135/35
f 65/8/36 6/136/36 68/9/37
f 64/5/38 8/137/38 70/6/38
f 68/9/37 10/138/37 72/18/37
f 70/6/39 12/139/40 74/16/40
f 9/17/41 67/140/42 5/7/42
f 11/15/43 69/141/43 7/4/33
f 2/142/44 13/25/44 76/126/44
f 63/133/45 14/127/45 78/24/45
f 3/143/46 15/28/46 80/129/46
f 66/135/47 16/130/47 82/131/47
f 86/59/48 20/144/49 19/145/50
f 88/146/51 55/120/51 113/147/51
f 90/148/52 114/51/53 56/149/54
f 77/128/55 21/150/56 87/122/57
f 80/129/58 22/46/59 88/146/60
f 85/119/61 23/151/62 89/152/63
f 18/153/64 24/52/65 90/148/66
f 92/154/67 59/124/67 115/155/67
f 94/156/68 116/60/69 60/157/70
f 81/29/71 25/158/72 91/125/73
f 76/126/74 26/55/75 92/154/76
f 83/123/77 27/159/78 93/160/79
f 20/144/49 28/61/80 94/156/81
f 84/50/82 17/161/83 83/123/77
f 86/59/48 19/145/50 85/119/61
f 74/16/84 30/162/85 95/163/86
f 71/164/87 31/70/88 96/165/89
f 72/18/90 33/166/91 97/167/92
f 73/168/93 34/75/94 98/169/95
f 95/163/96 37/170/97 99/79/98
f 96/165/99 38/84/100 100/171/101
f 102/172/102 103/85/102 41/173/102
f 104/174/103 39/89/103 101/175/103
f 99/79/104 41/173/105 103/85/106
f 100/171/107 42/90/108 104/174/109
f 97/167/110 45/176/110 105/94/110
f 98/169/111 46/99/111 106/177/111
f 108/178/112 109/100/113 49/179/114
f 110/180/115 47/104/115 107/181/115
f 105/94/116 49/179/116 109/100/116
f 106/177/117 50/105/118 110/180/119
f 40/86/120 53/182/121 112/107/122
f 101/175/123 52/111/124 111/183/125
f 111/183/126 48/101/127 108/178/128
f 112/107/129 107/181/130 47/104/131
f 113/147/132 89/152/133 23/151/134
f 56/149/135 87/122/135 21/150/135
f 115/155/136 93/160/137 27/159/138
f 60/157/139 91/125/139 25/158/139
f 117/184/2 126/185/2 118/186/2
f 120/187/3 121/188/3 123/189/3
f 118/190/140 125/191/140 121/192/140
f 119/193/141 126/194/141 123/195/141
f 126/185/142 119/196/142 125/197/142
f 124/198/143 122/199/143 123/189/143
f 125/191/144 122/200/144 124/201/144
f 126/194/145 117/202/145 123/195/145
f 127/203/146 136/204/146 128/205/146
f 130/206/147 131/207/147 133/208/147
f 128/209/148 135/210/148 131/211/148
f 129/212/149 136/213/149 133/214/149
f 136/204/150 129/215/150 135/216/150
f 134/217/151 132/218/151 133/208/151
f 135/210/152 132/219/152 134/220/152
f 136/213/153 127/221/153 133/214/153
f 137/222/154 146/223/154 138/224/154
f 140/225/155 141/226/155 143/227/155
f 138/228/156 145/229/156 141/230/156
f 139/231/157 146/232/157 143/233/157
f 146/223/158 139/234/158 145/235/158
f 144/236/159 142/237/159 143/227/159
f 145/229/160 142/238/160 144/239/160
f 146/232/161 137/240/161 143/233/161
f 69/2/1 6/14/5 3/3/1
f 2/11/4 4/31/4 67/12/4
f 73/13/5 10/71/5 6/14/5
f 8/10/6 67/12/6 71/20/6
f 101/22/7 102/109/7 41/23/7
f 1/1/8 3/3/8 80/26/8
f 4/31/9 2/11/9 76/32/9
f 13/25/2 57/121/2 58/35/2
f 88/37/10 113/115/10 56/38/10
f 15/28/3 61/30/3 62/40/3
f 92/42/11 115/117/11 60/43/11
f 14/27/12 80/26/12 88/44/12
f 62/40/3 55/120/3 22/46/3
f 19/47/13 18/63/13 90/48/13
f 84/50/2 57/121/2 114/51/2
f 16/33/12 76/32/12 92/53/12
f 58/35/2 59/124/2 26/55/2
f 17/56/13 20/62/13 94/57/13
f 86/59/3 61/30/3 116/60/3
f 49/65/14 110/241/14 107/66/14
f 13/25/2 78/24/2 77/128/2
f 12/19/15 71/20/15 96/67/15
f 9/17/3 97/167/3 32/69/3
f 10/71/16 73/13/16 98/72/16
f 11/15/2 95/163/2 29/74/2
f 32/76/17 29/242/17 36/77/17
f 29/74/2 95/163/2 99/79/2
f 30/68/18 96/67/18 100/81/18
f 31/70/3 32/69/3 35/83/3
f 36/80/2 99/79/2 103/85/2
f 37/82/19 100/81/19 104/87/19
f 38/84/3 35/83/3 39/89/3
f 29/91/20 32/243/20 44/92/20
f 32/69/3 97/167/3 105/94/3
f 33/73/21 98/72/21 106/96/21
f 34/75/2 29/74/2 43/98/2
f 44/95/3 105/94/3 109/100/3
f 45/97/22 106/96/22 110/102/22
f 46/99/2 43/98/2 47/104/2
f 36/77/23 54/112/23 51/106/23
f 36/80/2 40/86/2 112/107/2
f 101/22/24 111/113/24 53/110/24
f 35/83/3 51/114/3 52/111/3
f 43/93/25 44/92/25 51/106/25
f 47/104/2 43/98/2 54/108/2
f 108/64/26 107/66/26 53/110/26
f 51/114/3 44/95/3 48/101/3
f 23/116/27 90/244/27 56/38/27
f 27/118/28 94/245/28 60/43/28
f 85/119/3 89/152/3 55/120/3
f 57/121/2 77/128/2 87/122/2
f 83/123/2 93/160/2 59/124/2
f 61/30/3 81/29/3 91/125/3
f 7/4/33 69/141/43 1/132/34
f 5/7/35 67/140/35 4/134/35
f 65/8/36 3/143/36 6/136/36
f 64/5/38 2/142/38 8/137/38
f 68/9/37 6/136/36 10/138/37
f 70/6/39 8/137/39 12/139/40
f 9/17/41 71/164/41 67/140/42
f 11/15/43 73/168/43 69/141/43
f 2/142/44 64/5/44 13/25/44
f 63/133/45 1/132/45 14/127/45
f 3/143/46 65/8/46 15/28/46
f 66/135/47 4/134/47 16/130/47
f 88/146/162 22/46/162 55/120/162
f 90/148/52 24/52/163 114/51/53
f 77/128/55 14/127/164 21/150/56
f 80/129/58 79/39/165 22/46/59
f 85/119/61 19/145/50 23/151/62
f 18/153/64 84/50/82 24/52/65
f 92/154/166 26/55/166 59/124/166
f 94/156/68 28/61/167 116/60/69
f 81/29/71 16/130/168 25/158/72
f 76/126/74 75/34/169 26/55/75
f 83/123/77 17/161/83 27/159/78
f 20/144/49 86/59/48 28/61/80
f 74/16/84 12/139/170 30/162/85
f 71/164/87 9/17/171 31/70/88
f 72/18/90 10/138/172 33/166/91
f 73/168/93 11/15/173 34/75/94
f 95/163/96 30/162/174 37/170/97
f 96/165/99 31/70/175 38/84/100
f 102/172/176 40/86/176 103/85/176
f 104/174/177 42/90/177 39/89/177
f 99/79/104 37/170/178 41/173/105
f 100/171/107 38/84/179 42/90/108
f 97/167/180 33/166/180 45/176/180
f 98/169/181 34/75/181 46/99/181
f 108/178/112 48/101/182 109/100/113
f 110/180/183 50/105/183 47/104/183
f 105/94/184 45/176/184 49/179/184
f 106/177/117 46/99/185 50/105/118
f 40/86/120 102/172/186 53/182/121
f 101/175/123 39/89/187 52/111/124
f 111/183/126 52/111/188 48/101/127
f 112/107/129 53/182/189 107/181/130
f 113/147/132 55/120/190 89/152/133
f 56/149/191 114/51/191 87/122/191
f 115/155/136 59/124/192 93/160/137
f 60/157/193 116/60/193 91/125/193
f 126/185/2 125/197/2 118/186/2
f 121/188/3 124/198/3 123/189/3
f 125/191/140 124/201/140 121/192/140
f 119/196/142 122/246/142 125/197/142
f 122/199/143 119/247/143 123/189/143
f 117/202/145 120/248/145 123/195/145
f 136/204/146 135/216/146 128/205/146
f 131/207/147 134/217/147 133/208/147
f 135/210/148 134/220/148 131/211/148
f 129/215/150 132/249/194 135/216/150
f 132/218/151 129/250/195 133/208/151
f 127/221/153 130/251/153 133/214/153
f 146/223/154 145/235/154 138/224/154
f 141/226/155 144/236/155 143/227/155
f 145/229/156 144/239/156 141/230/156
f 139/234/158 142/252/158 145/235/158
f 142/237/159 139/253/159 143/227/159
f 137/240/161 140/254/161 143/233/161
f 86/59/3 85/119/3 62/40/3
f 15/28/3 66/135/3 82/131/3
f 15/28/3 82/131/3 81/29/3
f 9/17/3 5/7/3 68/9/3
f 5/7/3 66/135/3 65/8/3
f 15/28/3 65/8/3 66/135/3
f 11/15/2 74/16/2 95/163/2
f 9/17/3 72/18/3 97/167/3
f 11/15/2 7/4/2 70/6/2
f 7/4/2 63/133/2 64/5/2
f 64/5/2 63/133/2 78/24/2
f 20/62/13 17/56/13 18/63/13
f 84/50/82 18/153/64 17/161/83
f 13/25/2 77/128/2 57/121/2
f 84/50/2 83/123/2 58/35/2
