# Blender v2.93.4 OBJ File: ''
# www.blender.org
mtllib haystack_03.mtl
v -0.006472 0.425458 0.000000
v -0.005499 0.687731 0.001063
v 0.185059 0.425458 -0.410740
v -0.417213 0.425458 -0.191531
v -0.161476 0.494739 -0.425870
v 0.045621 0.649427 -0.111714
v -0.048631 0.718708 -0.115829
v -0.118186 0.649427 -0.052093
v 0.099665 0.425458 -0.227612
v -0.234085 0.425458 -0.106137
v -0.092368 0.425458 -0.235997
v -0.415438 -0.000000 0.509024
v -0.039336 -0.001317 0.606741
v -0.164386 0.515406 0.175298
v -0.020038 0.515406 0.237887
v -0.028700 0.294699 0.352413
v -0.249193 0.294699 0.249193
v 0.000000 -0.000000 0.510203
v 0.000000 0.515406 0.138766
v 0.012393 0.294699 0.263708
v -0.360768 -0.000000 0.360768
v -0.087210 0.515406 0.098123
v -0.191866 0.294699 0.152379
v -0.437944 -0.000000 0.437944
v -0.175298 0.515406 0.175298
v -0.328793 0.149558 0.271245
v -0.619346 -0.000000 0.027511
v -0.241883 0.515406 0.009516
v -0.432012 0.149559 0.038919
v -0.510203 -0.000000 0.027511
v -0.132740 0.515406 0.009516
v -0.334770 0.149559 0.007899
v -0.360768 -0.000000 0.360768
v -0.098123 0.515406 0.098123
v -0.250509 0.149558 0.218903
v -0.619346 -0.000000 0.000000
v -0.247909 0.515406 0.000000
v -0.352413 0.294699 0.000000
v -0.482854 0.000000 -0.359233
v -0.181282 0.515406 -0.165248
v -0.258501 0.294699 -0.236366
v -0.510203 -0.000000 0.000000
v -0.138766 0.515406 0.000000
v -0.256957 0.294699 0.009374
v -0.405678 0.000000 -0.282058
v -0.104106 0.515406 -0.088072
v -0.169974 0.294699 -0.199581
v -0.437944 0.000000 -0.437944
v -0.175298 0.515406 -0.175298
v -0.322741 0.158630 -0.289422
v -0.110350 0.000000 -0.538140
v -0.022239 0.515406 -0.233128
v -0.047645 0.169780 -0.371033
v -0.360768 0.000000 -0.360768
v -0.098123 0.515406 -0.098123
v -0.290027 0.150918 -0.217863
v -0.110350 0.000000 -0.428998
v -0.000000 0.515406 -0.138766
v -0.028727 0.169780 -0.283232
v 0.454099 0.000000 -0.382442
v 0.175298 0.515406 -0.175298
v 0.299470 0.159344 -0.240172
v 0.619346 0.000000 -0.000000
v 0.245527 0.515406 -0.021659
v 0.406804 0.159344 0.011845
v 0.510203 0.000000 -0.000000
v 0.138205 0.515406 -0.016151
v 0.309061 0.159344 0.041636
v 0.360768 0.000000 -0.360768
v 0.098123 0.515406 -0.098123
v 0.212835 0.159344 -0.213396
v -0.006472 0.425458 0.000000
v -0.005499 0.687731 0.001063
v 0.406616 0.444437 0.226880
v 0.140754 0.444437 0.373689
v 0.035860 0.649673 0.114693
v 0.104095 0.649673 0.052167
v 0.221140 0.425458 0.106137
v 0.079424 0.425458 0.235997
v -0.006472 0.425458 0.000000
v -0.005499 0.687731 0.001063
v -0.327271 0.425458 0.109983
v -0.400594 0.425458 -0.175958
v -0.118186 0.649427 -0.052093
v -0.122301 0.649427 0.042159
v -0.242469 0.425458 0.085896
v -0.234085 0.425458 -0.106137
v 0.109385 0.442571 0.362666
v -0.198003 0.470429 0.410740
v -0.364015 0.379084 0.155004
v -0.122301 0.649427 0.042159
v -0.058565 0.694399 0.111714
v 0.035860 0.649673 0.114693
v 0.079424 0.425458 0.235997
v -0.112610 0.425458 0.227612
v -0.174141 0.379084 0.085896
v -0.006472 0.425458 0.000000
v -0.005499 0.681699 0.001063
v 0.419398 0.425458 -0.155004
v 0.404268 0.425458 0.191531
v 0.109357 0.609092 -0.042158
v 0.104095 0.649673 0.052167
v 0.229525 0.425458 -0.085896
v 0.221140 0.425458 0.106137
v -0.006472 0.425458 0.000000
v -0.005499 0.676734 0.001063
v 0.195424 0.458905 -0.376411
v 0.045621 0.649427 -0.111714
v 0.099665 0.425458 -0.227612
v -0.081159 0.000000 -0.557273
v -0.000000 0.515406 -0.247909
v -0.031753 0.294699 -0.341859
v 0.437944 0.000000 -0.437944
v 0.175298 0.515406 -0.175298
v 0.249193 0.294699 -0.249193
v -0.081159 0.000000 -0.448130
v -0.000000 0.515406 -0.138766
v -0.031753 0.274494 -0.251718
v 0.360768 0.000000 -0.360768
v 0.098123 0.515406 -0.098123
v 0.200905 0.294699 -0.151866
v 0.619346 0.000000 -0.000000
v 0.437944 -0.000000 0.437944
v 0.247909 0.515406 0.000000
v 0.175298 0.515406 0.175298
v 0.352413 0.294699 0.000000
v 0.249193 0.294699 0.249193
v 0.510203 0.000000 -0.000000
v 0.138766 0.515406 0.000000
v 0.260531 0.294699 -0.008748
v 0.360768 -0.000000 0.360768
v 0.098123 0.515406 0.098123
v 0.163284 0.294699 0.183415
v 0.000000 -0.000000 0.619346
v 0.000000 0.515406 0.247909
v 0.000000 0.178151 0.387858
v 0.411189 -0.000000 0.426652
v 0.175298 0.515406 0.203087
v 0.269888 0.178151 0.265162
v 0.334013 -0.000000 0.349477
v 0.098123 0.515406 0.125911
v 0.192910 0.178151 0.209369
v 0.000000 -0.000000 0.510203
v 0.000000 0.515406 0.138766
v -0.013858 0.178151 0.280637
vt 0.866200 0.805198
vt 0.875198 0.808038
vt 0.865152 0.815479
vt 0.840097 0.777869
vt 0.856821 0.806235
vt 0.869163 0.774990
vt 0.561052 0.843678
vt 0.587386 0.847948
vt 0.573230 0.854650
vt 0.586604 0.830587
vt 0.602088 0.853350
vt 0.588308 0.868390
vt 0.697741 0.778890
vt 0.707403 0.797300
vt 0.697273 0.800216
vt 0.917918 0.824600
vt 0.938319 0.823601
vt 0.929197 0.842285
vt 0.718163 0.779294
vt 0.734593 0.779620
vt 0.901504 0.825403
vt 0.032677 0.864037
vt 0.033237 0.833729
vt 0.068229 0.858518
vt 0.065638 0.837458
vt 0.086047 0.839833
vt 0.020436 0.862592
vt 0.025197 0.832504
vt 0.086953 0.851806
vt 0.093695 0.840866
vt 0.094446 0.848170
vt 0.038993 0.827919
vt 0.070701 0.831058
vt 0.090566 0.833279
vt 0.075374 0.864368
vt 0.042856 0.871507
vt 0.093165 0.857368
vt 0.763253 0.830234
vt 0.782050 0.844849
vt 0.761841 0.849101
vt 0.731468 0.823894
vt 0.731272 0.855653
vt 0.180494 0.815892
vt 0.180910 0.779395
vt 0.199568 0.809390
vt 0.199933 0.788330
vt 0.233695 0.791152
vt 0.172377 0.812279
vt 0.172558 0.782434
vt 0.233618 0.805630
vt 0.241879 0.794637
vt 0.241911 0.802411
vt 0.205565 0.814795
vt 0.188299 0.819140
vt 0.238705 0.812850
vt 0.189008 0.777034
vt 0.205515 0.783583
vt 0.238324 0.783522
vt 0.813159 0.846517
vt 0.795420 0.853354
vt 0.813746 0.828048
vt 0.846680 0.843053
vt 0.846952 0.835321
vt 0.108970 0.851057
vt 0.109069 0.819850
vt 0.140776 0.848477
vt 0.140800 0.827596
vt 0.160672 0.831057
vt 0.100888 0.847413
vt 0.100764 0.822957
vt 0.116153 0.814801
vt 0.146227 0.822046
vt 0.165888 0.823977
vt 0.145595 0.854416
vt 0.114822 0.857398
vt 0.165778 0.852301
vt 0.538535 0.791307
vt 0.557881 0.798982
vt 0.537256 0.809670
vt 0.507135 0.790293
vt 0.506053 0.814733
vt 0.436598 0.863198
vt 0.435295 0.835413
vt 0.456905 0.863339
vt 0.455127 0.839834
vt 0.487287 0.847561
vt 0.427991 0.861043
vt 0.427648 0.839911
vt 0.442754 0.831136
vt 0.459423 0.835296
vt 0.493224 0.841059
vt 0.461101 0.869284
vt 0.442263 0.869814
vt 0.491113 0.867714
vt 0.337434 0.817952
vt 0.367715 0.829470
vt 0.334350 0.839697
vt 0.318144 0.819775
vt 0.316527 0.840828
vt 0.180567 0.860746
vt 0.180405 0.826868
vt 0.201899 0.854785
vt 0.201869 0.832099
vt 0.233564 0.833435
vt 0.172377 0.857306
vt 0.172710 0.825454
vt 0.238949 0.853638
vt 0.208056 0.859992
vt 0.188352 0.864222
vt 0.186520 0.822575
vt 0.206429 0.826625
vt 0.237311 0.825741
vt 0.121130 0.811946
vt 0.100776 0.786642
vt 0.121689 0.789782
vt 0.152625 0.807267
vt 0.152552 0.799860
vt 0.512848 0.837906
vt 0.547762 0.828222
vt 0.547152 0.834522
vt 0.875227 0.818338
vt 0.897192 0.833453
vt 0.881763 0.835283
vt 0.556723 0.832270
vt 0.891687 0.852993
vt 0.951802 0.845756
vt 0.941527 0.820803
vt 0.955695 0.818952
vt 0.703516 0.826643
vt 0.717715 0.828276
vt 0.707822 0.853394
vt 0.964483 0.820036
vt 0.690753 0.827433
vt 0.967339 0.804140
vt 0.962539 0.789262
vt 0.982898 0.790907
vt 0.367701 0.842046
vt 0.402349 0.826713
vt 0.402565 0.832871
vt 0.961555 0.808378
vt 0.411530 0.829407
vt 0.634135 0.858034
vt 0.627185 0.853434
vt 0.634737 0.827540
vt 0.766320 0.777468
vt 0.772933 0.803616
vt 0.765778 0.807961
vt 0.780605 0.777686
vt 0.790875 0.777845
vt 0.615439 0.827142
vt 0.620453 0.827243
vt 0.573638 0.816208
vt 0.587215 0.809645
vt 0.587737 0.829255
vt 0.668078 0.812207
vt 0.675628 0.812530
vt 0.676382 0.819205
vt 0.648230 0.776210
vt 0.671816 0.777034
vt 0.682907 0.810726
vt 0.566593 0.808749
vt 0.584651 0.792503
vt 0.598930 0.817686
vt 0.653918 0.858104
vt 0.647755 0.853271
vt 0.659025 0.828739
vt 0.858557 0.850211
vt 0.850356 0.824477
vt 0.860806 0.818578
vt 0.872306 0.818074
vt 0.637323 0.827037
vt 0.644949 0.826326
vt 0.630445 0.796378
vt 0.646105 0.783521
vt 0.644163 0.803801
vt 0.922522 0.805840
vt 0.928609 0.811973
vt 0.922266 0.818521
vt 0.659037 0.799118
vt 0.916305 0.811877
vt 0.923425 0.771195
vt 0.900579 0.776258
vt 0.667008 0.812139
vt 0.642267 0.820045
vt 0.736754 0.778890
vt 0.743573 0.804998
vt 0.736678 0.808109
vt 0.672674 0.828467
vt 0.686965 0.828520
vt 0.679855 0.854545
vt 0.751040 0.778964
vt 0.762534 0.779023
vt 0.662600 0.832344
vt 0.897116 0.783462
vt 0.613230 0.841327
vt 0.939470 0.844901
vt 0.782434 0.837034
vt 0.795452 0.823649
vt 0.160579 0.845377
vt 0.557411 0.806665
vt 0.487441 0.860767
vt 0.367858 0.820855
vt 0.233393 0.846977
vt 0.100764 0.818408
vt 0.512108 0.817150
vt 0.899619 0.821108
vt 0.945553 0.851036
vt 0.714153 0.858579
vt 0.369516 0.822853
vt 0.947866 0.788655
vt 0.692625 0.778744
vt 0.608797 0.805709
vt 0.851703 0.854278
vt 0.942835 0.781032
vt 0.617769 0.806576
vt 0.686889 0.857748
vt 0.258072 0.837657
vt 0.259618 0.794492
vt 0.289044 0.827366
vt 0.288554 0.803044
vt 0.308000 0.807592
vt 0.250731 0.832719
vt 0.250915 0.796135
vt 0.266390 0.789055
vt 0.292498 0.796569
vt 0.313339 0.800673
vt 0.295398 0.833327
vt 0.265382 0.842046
vt 0.314366 0.829091
vt 0.826553 0.792207
vt 0.844523 0.808585
vt 0.823074 0.812561
vt 0.795658 0.783424
vt 0.796383 0.820060
vt 0.308561 0.822722
vt 0.316398 0.810711
vt 0.845303 0.799974
vt 0.433953 0.820499
vt 0.433952 0.782137
vt 0.465517 0.812410
vt 0.465433 0.790289
vt 0.485229 0.793580
vt 0.425782 0.817130
vt 0.425787 0.785495
vt 0.470650 0.784987
vt 0.490400 0.786510
vt 0.441056 0.777196
vt 0.471689 0.818616
vt 0.441032 0.825447
vt 0.490630 0.815581
vt 0.400946 0.797489
vt 0.419877 0.811296
vt 0.399690 0.814957
vt 0.369670 0.789579
vt 0.368919 0.821333
vt 0.485304 0.808719
vt 0.493416 0.796815
vt 0.420224 0.802672
vt 0.030232 0.818607
vt 0.032374 0.781872
vt 0.053732 0.812109
vt 0.054768 0.787733
vt 0.083454 0.793966
vt 0.022431 0.814425
vt 0.023880 0.784347
vt 0.039951 0.777899
vt 0.060127 0.782416
vt 0.088114 0.786557
vt 0.059827 0.817993
vt 0.037896 0.822207
vt 0.088295 0.815886
vt 0.339283 0.795268
vt 0.367287 0.809836
vt 0.338149 0.813017
vt 0.316527 0.788728
vt 0.317232 0.818896
vt 0.083733 0.808381
vt 0.091170 0.798216
vt 0.368334 0.801914
vn -0.4535 0.8057 0.3809
vn 0.5730 0.7615 -0.3032
vn -0.7683 0.6180 -0.1668
vn 0.0000 -1.0000 -0.0000
vn 0.0152 -0.9375 -0.3476
vn 0.5924 0.8056 -0.0051
vn 0.9096 -0.0043 0.4156
vn 0.9062 0.0001 0.4228
vn 0.9101 -0.0051 0.4143
vn -0.4226 -0.0000 0.9063
vn -0.4255 -0.0018 0.9050
vn 0.9063 0.0000 0.4226
vn -0.1760 0.7050 0.6870
vn -0.3812 0.4375 0.8144
vn -0.0016 -1.0000 -0.0033
vn 0.0030 -1.0000 -0.0093
vn 0.0048 -0.9999 -0.0117
vn 0.0000 1.0000 0.0000
vn 0.8658 0.2991 0.4011
vn 0.9668 0.1649 0.1954
vn -0.9004 0.2813 -0.3320
vn -0.8280 0.2721 -0.4903
vn 0.4331 -0.4255 -0.7946
vn 0.3005 -0.6193 -0.7254
vn -0.6107 0.7444 0.2699
vn -0.6098 0.7451 0.2702
vn -0.6092 0.7455 0.2704
vn -0.8207 0.4399 0.3646
vn -0.0000 -0.1300 -0.9915
vn -0.2995 0.1695 -0.9389
vn 0.5198 0.3542 0.7774
vn 0.7058 -0.0610 0.7058
vn 0.6448 -0.7196 -0.2575
vn 0.8278 -0.4542 -0.3295
vn 0.8285 -0.4557 -0.3254
vn 0.8288 -0.4563 -0.3238
vn -0.7088 0.6519 -0.2693
vn -0.8506 0.4028 -0.3380
vn -0.8490 0.4046 -0.3398
vn -0.8476 0.4062 -0.3413
vn -0.0976 0.0471 0.9941
vn -0.0976 0.0523 0.9939
vn -0.0976 0.0515 0.9939
vn 0.0000 0.0424 0.9991
vn 0.6637 -0.3451 -0.6637
vn 0.3619 0.3321 -0.8711
vn 0.8356 -0.4251 0.3479
vn 0.7262 -0.6326 0.2691
vn -0.2018 0.7239 -0.6597
vn -0.2760 0.3944 -0.8765
vn -0.9079 0.0295 0.4182
vn -0.7003 0.1386 0.7003
vn 0.9013 -0.4333 -0.0000
vn 0.9775 0.0068 -0.2106
vn 0.2487 -0.4180 0.8737
vn 0.1901 -0.6906 0.6978
vn 0.5724 0.7818 -0.2473
vn 0.5746 0.7804 -0.2465
vn 0.5761 0.7795 -0.2459
vn 0.8565 0.3652 -0.3648
vn 0.2796 0.2831 0.9174
vn 0.0000 -0.2528 0.9675
vn -0.2521 0.5204 -0.8158
vn -0.7071 0.0011 -0.7071
vn -0.5779 -0.7864 0.2180
vn -0.8453 -0.3385 0.4133
vn 0.4168 0.7870 0.4549
vn 0.0596 -0.9961 0.0650
vn 0.2179 0.9466 0.2377
vn -0.9396 0.0023 0.3424
vn -0.9395 0.0021 0.3426
vn -0.9397 0.0025 0.3420
vn 0.4226 0.0025 -0.9063
vn 0.4231 0.0022 -0.9061
vn 0.4230 0.0023 -0.9061
vn -0.9148 0.0397 0.4020
vn 0.5382 0.0790 -0.8391
vn -0.6139 0.7889 -0.0268
vn -0.3160 0.9487 -0.0138
vn 0.3334 -0.0051 0.9428
vn 0.3414 -0.0003 0.9399
vn 0.3347 -0.0043 0.9423
vn 0.4255 0.0018 -0.9050
vn 0.4229 0.0002 -0.9062
vn 0.4260 0.0021 -0.9047
vn 0.3866 0.0224 -0.9220
vn 0.2730 0.0412 0.9611
vn -0.3430 0.9003 -0.2678
vn -0.6931 0.6968 0.1846
vn 0.3053 0.6884 0.6580
vn -0.0059 -0.9908 0.1353
vn 0.0884 -0.9572 0.2757
vn 0.0892 -0.9571 0.2757
vn 0.0868 -0.9574 0.2756
vn 0.4234 0.9005 0.0997
vn 0.3373 -0.9282 0.1573
vn 0.9395 -0.0021 -0.3426
vn 0.9396 -0.0023 -0.3423
vn 0.9396 -0.0024 -0.3422
vn -0.4419 -0.0601 -0.8950
vn -0.3407 -0.0861 -0.9362
vn 0.9696 0.0599 -0.2374
vn 0.5143 0.8573 0.0238
vn 0.5158 0.8564 0.0240
vn 0.5145 0.8571 0.0257
vn 0.3747 0.8591 -0.3487
vn 0.5158 0.8564 0.0234
vn 0.6533 0.7080 -0.2682
vn 0.1414 -0.9814 -0.1296
vn -0.4228 -0.0024 0.9062
vn -0.4228 -0.0023 0.9062
vn -0.4231 -0.0022 0.9061
vn -0.9063 0.0000 -0.4226
vn -0.9097 0.0045 -0.4152
vn -0.9065 0.0003 -0.4222
vn -0.4226 -0.0025 0.9063
vn -0.8459 0.0695 -0.5288
vn 0.1800 0.7651 -0.6182
vn -0.4856 0.8262 -0.2857
vn -0.0449 -0.9436 -0.3280
vn -0.1915 -0.9774 -0.0893
vn -0.4260 -0.0021 0.9047
vn -0.3321 0.6215 0.7095
vn -0.3614 0.4179 0.8335
vn -0.0032 -1.0000 -0.0012
vn 0.8871 0.2820 0.3653
vn 0.8926 0.1795 0.4135
vn -0.8599 0.0362 -0.5092
vn -0.7067 0.0349 -0.7067
vn 0.3890 -0.3897 -0.8347
vn 0.3566 -0.6670 -0.6542
vn -0.6088 0.7458 0.2705
vn -0.8259 0.4559 0.3317
vn -0.2768 0.4129 -0.8677
vn -0.0000 -0.0801 -0.9968
vn 0.6823 0.2625 0.6823
vn 0.5558 -0.0152 0.8312
vn 0.6065 -0.7471 -0.2720
vn 0.8276 -0.4538 -0.3305
vn -0.7110 0.6440 -0.2825
vn -0.8473 0.4065 -0.3416
vn 0.0000 -0.0000 1.0000
vn -0.0976 0.0462 0.9941
vn 0.3821 0.0925 -0.9195
vn 0.7070 -0.0195 -0.7070
vn 0.8380 -0.4347 0.3298
vn 0.7048 -0.6459 0.2934
vn -0.2169 0.7465 -0.6291
vn -0.3282 0.3708 -0.8688
vn -0.6994 -0.1469 0.6994
vn -0.8764 0.2262 0.4251
vn 0.9662 -0.1520 -0.2082
vn 0.9731 0.0200 -0.2293
vn 0.3531 -0.3856 0.8524
vn 0.2164 -0.7228 0.6563
vn 0.5768 0.7791 -0.2457
vn 0.8522 0.3493 -0.3895
vn 0.0509 0.1164 0.9919
vn 0.2779 0.3029 0.9116
vn -0.1896 0.5451 -0.8166
vn -0.2945 0.0709 -0.9530
vn -0.5881 -0.7713 0.2436
vn -0.8639 -0.3839 0.3260
vn 0.2734 0.8246 0.4952
vn 0.0606 -0.9921 0.1098
vn 0.4232 0.0021 -0.9060
vn -0.6982 0.6932 0.1790
vn 0.3420 -0.0000 0.9397
vn 0.4226 0.0000 -0.9063
vn -0.6900 0.6958 0.1994
vn 0.1650 0.7805 0.6029
vn -0.0549 -0.9753 0.2139
vn 0.1005 -0.9558 0.2762
vn 0.9397 -0.0025 -0.3420
vn -0.3332 0.0052 -0.9429
vn 0.4552 0.8246 -0.3359
vn 0.5155 0.8566 0.0225
vn -0.0399 -0.9932 -0.1097
vn -0.9103 0.0053 -0.4139
vn 0.1777 0.6089 -0.7730
vn 0.2948 0.3380 -0.8938
vn -0.9876 0.1532 0.0343
vn -0.9914 0.1307 0.0000
vn 0.7023 -0.1169 0.7023
vn 0.8559 0.2952 0.4246
vn -0.3410 -0.3619 0.8676
vn -0.1613 -0.5549 0.8161
vn 0.2636 0.5400 -0.7993
vn 0.3506 0.4008 -0.8464
vn -0.9862 0.1653 0.0000
vn -0.9911 0.1302 0.0292
vn 0.8606 0.2777 0.4270
vn 0.7071 -0.0000 0.7071
vn -0.3549 -0.3739 0.8569
vn -0.2526 -0.6470 0.7194
vn 0.7085 0.6418 0.2935
vn 0.8464 0.4008 0.3506
vn -0.0000 0.0396 -0.9992
vn 0.0947 0.0456 -0.9945
vn 0.0947 0.0507 -0.9942
vn 0.0947 0.0498 -0.9943
vn -0.7063 -0.0482 0.7063
vn -0.6032 0.1248 0.7878
vn -0.6031 0.1263 0.7876
vn -0.6036 0.1198 0.7883
vn -0.8061 -0.4286 -0.4080
vn -0.7235 -0.6219 -0.2997
vn 0.0947 0.0448 -0.9945
vn -0.0000 0.0000 -1.0000
vn -0.6037 0.1183 0.7884
vn -0.7071 0.0000 0.7071
vn -0.8516 -0.3877 -0.3527
vn -0.6733 -0.6562 -0.3407
vn 0.2748 0.7620 0.5864
vn 0.2747 0.7619 0.5866
vn 0.2716 0.7565 0.5949
vn 0.3982 0.2729 0.8758
vn 0.5784 -0.1695 -0.7980
vn 0.7069 0.0237 -0.7069
vn -0.9970 -0.0776 -0.0000
vn -0.9873 0.0942 0.1276
vn -0.3099 -0.3096 -0.8990
vn -0.2783 -0.7669 -0.5783
vn 0.2711 0.7556 0.5963
vn 0.2298 0.3730 0.8989
vn 0.7048 -0.0799 -0.7048
vn 0.5868 0.0156 -0.8096
vn -0.9783 0.1643 0.1264
vn -1.0000 -0.0000 -0.0000
vn -0.1201 -0.3807 -0.9168
vn -0.2302 -0.7077 -0.6680
usemtl Material_#25.039
s 1
f 7/1/1 8/2/1 2/3/1
f 3/4/2 7/1/2 6/5/2
f 5/6/3 8/2/3 7/1/3
f 4/7/4 11/8/4 10/9/4
f 5/10/5 9/11/5 11/8/5
f 6/5/6 7/1/6 2/3/6
f 1/12/4 11/8/4 9/11/4
f 10/9/4 11/8/4 1/12/4
f 1/13/7 6/14/8 2/15/9
f 10/16/10 1/17/11 8/18/10
f 6/14/8 9/19/12 3/20/12
f 4/21/10 10/16/10 8/18/10
f 12/22/13 13/23/13 17/24/13
f 16/25/14 15/26/14 17/24/14
f 13/23/15 21/27/16 18/28/17
f 14/29/18 19/30/18 22/31/18
f 16/25/19 18/32/19 20/33/19
f 15/26/20 20/33/20 19/34/20
f 12/22/21 23/35/21 21/36/21
f 17/24/22 22/37/22 23/35/22
f 23/38/23 19/39/23 20/40/23
f 21/41/24 20/40/24 18/42/24
f 27/43/25 24/44/26 29/45/27
f 26/46/28 25/47/28 29/45/28
f 24/44/4 30/48/4 33/49/4
f 28/50/18 34/51/18 31/52/18
f 27/43/29 32/53/29 30/54/29
f 29/45/30 31/55/30 32/53/30
f 26/46/31 33/56/31 35/57/31
f 25/47/32 35/57/32 34/58/32
f 35/59/33 33/60/33 32/61/33
f 34/62/34 32/61/35 31/63/36
f 39/64/37 36/65/37 41/66/37
f 38/67/38 37/68/39 41/66/40
f 36/65/4 45/69/4 42/70/4
f 38/67/41 42/71/42 44/72/43
f 37/68/44 44/72/44 43/73/44
f 39/64/45 47/74/45 45/75/45
f 41/66/46 46/76/46 47/74/46
f 47/77/47 46/78/47 44/79/47
f 45/80/48 44/79/48 42/81/48
f 51/82/49 48/83/49 53/84/49
f 50/85/50 49/86/50 53/84/50
f 48/83/4 57/87/4 54/88/4
f 50/85/51 54/89/51 56/90/51
f 49/86/52 56/90/52 55/91/52
f 51/82/53 59/92/53 57/93/53
f 53/84/54 58/94/54 59/92/54
f 59/95/55 55/96/55 56/97/55
f 57/98/56 59/95/56 54/99/56
f 63/100/57 60/101/58 65/102/59
f 62/103/60 61/104/60 65/102/60
f 60/101/4 66/105/4 69/106/4
f 65/102/61 67/107/61 68/108/61
f 63/100/62 68/108/62 66/109/62
f 62/103/63 69/110/63 71/111/63
f 61/104/64 71/111/64 70/112/64
f 71/113/65 66/114/65 68/115/65
f 70/116/66 68/115/66 67/117/66
f 75/118/67 77/119/67 76/120/67
f 74/121/68 79/122/68 78/123/68
f 73/124/69 76/120/69 77/119/69
f 78/123/4 79/122/4 72/125/4
f 76/126/70 72/127/71 79/128/72
f 78/129/73 72/130/74 77/131/75
f 76/126/76 79/128/76 75/132/76
f 74/133/77 78/129/77 77/131/77
f 86/134/4 87/135/4 80/136/4
f 83/137/78 85/138/78 84/139/78
f 82/140/4 87/135/4 86/134/4
f 84/139/79 85/138/79 81/141/79
f 81/142/80 85/143/81 80/144/82
f 80/145/83 84/146/84 81/147/85
f 84/146/86 87/148/86 83/149/86
f 82/150/87 86/151/87 85/143/87
f 94/152/4 95/153/4 97/154/4
f 91/155/88 92/156/88 98/157/88
f 90/158/89 92/156/89 91/155/89
f 89/159/90 93/160/90 92/156/90
f 88/161/91 95/153/91 94/152/91
f 89/162/92 96/163/93 95/153/94
f 92/156/95 93/160/95 98/157/95
f 95/153/96 96/163/96 97/154/96
f 98/164/97 93/165/98 97/166/99
f 91/167/100 97/168/100 96/169/100
f 91/167/101 96/169/101 90/170/101
f 88/171/102 94/172/102 93/165/102
f 104/173/4 105/174/4 103/175/4
f 101/176/103 108/177/104 106/178/105
f 105/174/4 109/179/4 103/175/4
f 106/178/106 102/180/106 101/176/106
f 99/181/107 108/177/104 101/176/103
f 100/182/108 101/176/108 102/180/108
f 107/183/109 103/175/109 109/179/109
f 99/184/4 104/173/4 103/175/4
f 105/185/110 102/186/111 106/187/112
f 109/188/113 105/189/114 108/190/115
f 102/186/111 104/191/116 100/192/116
f 107/193/117 109/188/117 108/190/117
f 3/4/118 5/6/118 7/1/118
f 5/6/119 4/194/119 8/2/119
f 4/7/120 5/10/120 11/8/120
f 5/10/121 3/195/121 9/11/121
f 1/13/7 9/19/12 6/14/8
f 1/17/11 2/196/122 8/18/10
f 13/23/123 16/25/123 17/24/123
f 15/26/124 14/29/124 17/24/124
f 13/23/15 12/22/125 21/27/16
f 14/29/18 15/26/18 19/30/18
f 16/25/126 13/23/126 18/32/126
f 15/26/127 16/25/127 20/33/127
f 12/22/128 17/24/128 23/35/128
f 17/24/129 14/29/129 22/37/129
f 23/38/130 22/197/130 19/39/130
f 21/41/131 23/38/131 20/40/131
f 24/44/26 26/46/132 29/45/27
f 25/47/133 28/50/133 29/45/133
f 24/44/4 27/43/4 30/48/4
f 28/50/18 25/47/18 34/51/18
f 27/43/134 29/45/134 32/53/134
f 29/45/135 28/50/135 31/55/135
f 26/46/136 24/44/136 33/56/136
f 25/47/137 26/46/137 35/57/137
f 33/60/138 30/198/138 32/61/138
f 34/62/34 35/59/139 32/61/35
f 36/65/140 38/67/140 41/66/140
f 37/68/39 40/199/141 41/66/40
f 36/65/4 39/64/4 45/69/4
f 38/67/142 36/65/142 42/71/142
f 37/68/143 38/67/41 44/72/43
f 39/64/144 41/66/144 47/74/144
f 41/66/145 40/199/145 46/76/145
f 46/78/146 43/200/146 44/79/146
f 45/80/147 47/77/147 44/79/147
f 48/83/148 50/85/148 53/84/148
f 49/86/149 52/201/149 53/84/149
f 48/83/4 51/82/4 57/87/4
f 50/85/150 48/83/150 54/89/150
f 49/86/151 50/85/151 56/90/151
f 51/82/152 53/84/152 59/92/152
f 53/84/153 52/201/153 58/94/153
f 59/95/154 58/202/154 55/96/154
f 59/95/155 56/97/155 54/99/155
f 60/101/58 62/103/156 65/102/59
f 61/104/157 64/203/157 65/102/157
f 60/101/4 63/100/4 66/105/4
f 65/102/158 64/203/158 67/107/158
f 63/100/159 65/102/159 68/108/159
f 62/103/160 60/101/160 69/110/160
f 61/104/161 62/103/161 71/111/161
f 71/113/162 69/204/162 66/114/162
f 70/116/163 71/113/163 68/115/163
f 75/118/164 74/205/164 77/119/164
f 74/121/165 75/206/165 79/122/165
f 76/126/70 73/207/71 72/127/71
f 72/130/74 73/208/166 77/131/75
f 83/137/167 82/209/167 85/138/167
f 82/140/4 83/210/4 87/135/4
f 85/143/81 86/151/168 80/144/82
f 80/145/83 87/148/169 84/146/84
f 90/158/170 89/159/170 92/156/170
f 89/159/171 88/211/171 93/160/171
f 88/161/172 89/162/172 95/153/172
f 89/162/92 90/212/173 96/163/93
f 93/165/98 94/172/174 97/166/99
f 91/167/175 98/213/175 97/168/175
f 99/181/176 107/214/176 108/177/176
f 100/182/177 99/181/107 101/176/103
f 107/183/178 99/184/178 103/175/178
f 99/184/4 100/215/4 104/173/4
f 105/185/110 104/191/116 102/186/111
f 105/189/114 106/216/179 108/190/115
f 113/217/180 110/218/180 115/219/180
f 112/220/181 111/221/181 115/219/181
f 110/218/4 119/222/4 116/223/4
f 112/220/182 116/224/182 118/225/182
f 111/221/183 118/225/183 117/226/183
f 113/217/184 121/227/184 119/228/184
f 115/219/185 120/229/185 121/227/185
f 121/230/186 117/231/186 118/232/186
f 119/233/187 118/232/187 116/234/187
f 110/218/188 112/220/188 115/219/188
f 111/221/189 114/235/189 115/219/189
f 110/218/4 113/217/4 119/222/4
f 114/235/18 111/221/18 117/236/18
f 112/220/190 110/218/190 116/224/190
f 111/221/191 112/220/191 118/225/191
f 113/217/192 115/219/192 121/227/192
f 115/219/193 114/235/193 120/229/193
f 121/230/194 120/237/194 117/231/194
f 119/233/195 121/230/195 118/232/195
f 123/238/196 122/239/196 127/240/196
f 126/241/197 124/242/197 127/240/197
f 122/239/4 131/243/4 128/244/4
f 124/242/198 130/245/198 129/246/198
f 126/241/199 128/247/200 130/245/201
f 123/238/202 133/248/202 131/249/202
f 127/240/203 132/250/204 133/248/205
f 133/251/206 129/252/206 130/253/206
f 131/254/207 130/253/207 128/255/207
f 122/239/196 126/241/196 127/240/196
f 124/242/197 125/256/197 127/240/197
f 122/239/4 123/238/4 131/243/4
f 125/256/18 124/242/18 129/257/18
f 124/242/208 126/241/199 130/245/201
f 126/241/209 122/239/209 128/247/209
f 123/238/210 127/240/203 133/248/205
f 127/240/211 125/256/211 132/250/211
f 133/251/212 132/258/212 129/252/212
f 131/254/213 133/251/213 130/253/213
f 134/259/214 137/260/215 136/261/216
f 139/262/217 138/263/217 136/261/217
f 137/260/4 143/264/4 140/265/4
f 139/262/218 140/266/218 142/267/218
f 138/263/219 142/267/219 141/268/219
f 134/259/220 145/269/220 143/270/220
f 136/261/221 144/271/221 145/269/221
f 145/272/222 141/273/222 142/274/222
f 143/275/223 145/272/223 140/276/223
f 137/260/215 139/262/224 136/261/216
f 138/263/225 135/277/225 136/261/225
f 137/260/4 134/259/4 143/264/4
f 135/277/18 138/263/18 141/278/18
f 139/262/226 137/260/226 140/266/226
f 138/263/227 139/262/227 142/267/227
f 134/259/228 136/261/228 145/269/228
f 136/261/229 135/277/229 144/271/229
f 145/272/230 144/279/230 141/273/230
f 145/272/231 142/274/231 140/276/231
