# Blender v2.93.4 OBJ File: ''
# www.blender.org
mtllib stone_little_01.mtl
v -0.170307 0.035946 0.233206
v 0.303628 0.040094 0.233206
v -0.303628 0.103661 -0.280830
v 0.303628 0.045859 -0.280830
v -0.135504 0.254831 0.173535
v 0.252165 0.254831 0.173535
v -0.244558 0.254831 -0.246936
v 0.252165 0.254831 -0.246936
v -0.244558 0.254831 -0.008892
v 0.252165 0.254831 -0.142797
v 0.303628 0.024940 -0.153519
v -0.303628 0.035946 -0.153519
v -0.061797 0.254831 -0.047848
v -0.008878 0.254831 0.308801
v 0.073647 0.015027 0.398572
v 0.008953 -0.000127 -0.201143
v 0.008953 0.045859 -0.398572
v 0.011127 0.254831 -0.343246
v 0.139155 0.346307 -0.004216
v 0.139155 0.346307 -0.140814
v 0.139155 0.383908 -0.185782
v 0.035071 0.336121 -0.227371
v -0.075338 0.336121 -0.185782
v -0.075338 0.336121 -0.140814
v 0.035071 0.298520 -0.157636
v 0.057922 0.346307 0.054193
vt 0.621708 0.060501
vt 0.730106 0.105824
vt 0.580368 0.122167
vt 0.392146 0.140169
vt 0.448701 0.124796
vt 0.439839 0.171485
vt 0.158628 0.243738
vt 0.084715 0.245811
vt 0.163314 0.186489
vt 0.022902 0.043320
vt 0.116562 0.019033
vt 0.049286 0.094055
vt 0.148765 0.017198
vt 0.227675 0.025385
vt 0.151974 0.071571
vt 0.290041 0.213130
vt 0.260523 0.233889
vt 0.275321 0.174335
vt 0.718734 0.027369
vt 0.754860 0.025095
vt 0.477316 0.072924
vt 0.489550 0.074910
vt 0.478070 0.101600
vt 0.126541 0.077139
vt 0.216395 0.183078
vt 0.718985 0.179586
vt 0.427975 0.086807
vt 0.022903 0.210545
vt 0.116946 0.186701
vt 0.303807 0.062616
vt 0.216520 0.078269
vt 0.780606 0.105916
vt 0.751361 0.179718
vt 0.497772 0.101104
vt 0.488059 0.128590
vt 0.397814 0.032774
vt 0.444095 0.069328
vt 0.482815 0.034361
vt 0.516473 0.043510
vt 0.534298 0.109831
vt 0.504430 0.175329
vt 0.477459 0.129412
vt 0.359737 0.104476
vt 0.621954 0.180319
vt 0.048619 0.159404
vt 0.281962 0.097844
vn -0.1093 -0.9933 0.0374
vn -0.1100 -0.9932 0.0371
vn -0.1102 -0.9932 0.0370
vn 0.0000 1.0000 -0.0000
vn -0.5173 0.3007 0.8012
vn 0.9730 0.2307 -0.0090
vn 0.3606 0.2352 -0.9026
vn -0.9299 0.3247 0.1727
vn -0.1709 -0.8699 -0.4627
vn -0.4148 0.6980 0.5837
vn 0.9756 0.2167 0.0356
vn -0.9447 0.0398 0.3257
vn 0.0821 -0.9965 0.0163
vn -0.3899 0.9064 -0.1624
vn 0.4891 0.4484 0.7482
vn -0.3013 0.2470 -0.9210
vn 0.0903 -0.9700 -0.2259
vn 0.1760 0.8665 0.4672
vn 0.6292 0.7773 0.0000
vn 0.5344 0.6484 0.5422
vn 0.1113 0.5034 -0.8569
vn -0.2013 0.8210 -0.5343
vn -0.4330 0.9014 0.0000
vn 0.3115 0.5769 0.7551
vn -0.5282 0.8388 -0.1322
vn 0.2795 0.8779 0.3888
vn -0.1089 -0.9933 0.0375
vn -0.7300 0.0046 0.6834
vn 0.9758 0.2185 0.0000
vn -0.9655 0.2605 0.0000
vn -0.2567 -0.9413 -0.2193
vn -0.5105 0.7568 0.4081
vn 0.9710 0.2391 0.0000
vn -0.8273 0.2664 0.4946
vn 0.1358 -0.9900 0.0388
vn 0.4333 0.3362 0.8362
vn -0.3330 0.3283 -0.8839
vn 0.1095 -0.9808 -0.1612
vn 0.3224 0.9466 0.0000
vn 0.7524 0.6587 0.0000
vn 0.2359 0.7720 -0.5903
vn 0.0934 0.8940 0.4382
vn -0.6553 0.7491 0.0972
vn 0.1839 0.9167 0.3548
usemtl Material_#27.012
s 1
f 1/1/1 16/2/2 15/3/3
f 5/4/4 13/5/4 9/6/4
f 1/7/5 15/8/5 5/9/5
f 2/10/6 11/11/6 6/12/6
f 4/13/7 17/14/7 8/15/7
f 3/16/8 12/17/8 7/18/8
f 12/19/9 3/20/9 16/2/9
f 20/21/10 21/22/10 25/23/10
f 11/11/11 4/13/11 10/24/11
f 12/17/12 1/7/12 9/25/12
f 16/2/13 11/26/13 15/3/13
f 26/27/14 20/21/14 25/23/14
f 15/8/15 2/28/15 14/29/15
f 17/14/16 3/30/16 18/31/16
f 17/32/17 4/33/17 16/2/17
f 22/34/18 23/35/18 25/23/18
f 6/36/19 20/21/19 19/37/19
f 10/38/20 21/22/20 20/21/20
f 8/39/21 22/34/21 21/22/21
f 18/40/22 23/35/22 22/34/22
f 7/41/23 24/42/23 23/35/23
f 9/6/24 25/23/24 24/42/24
f 13/5/25 26/27/25 25/23/25
f 14/43/26 19/37/26 26/27/26
f 1/1/1 12/19/27 16/2/2
f 5/4/4 14/43/4 13/5/4
f 15/8/28 14/29/28 5/9/28
f 11/11/29 10/24/29 6/12/29
f 17/14/7 18/31/7 8/15/7
f 12/17/30 9/25/30 7/18/30
f 3/20/31 17/32/31 16/2/31
f 21/22/32 22/34/32 25/23/32
f 4/13/33 8/15/33 10/24/33
f 1/7/34 5/9/34 9/25/34
f 11/26/35 2/44/35 15/3/35
f 26/27/4 19/37/4 20/21/4
f 2/28/36 6/45/36 14/29/36
f 3/30/37 7/46/37 18/31/37
f 4/33/38 11/26/38 16/2/38
f 23/35/39 24/42/39 25/23/39
f 6/36/19 10/38/19 20/21/19
f 10/38/40 8/39/40 21/22/40
f 8/39/41 18/40/41 22/34/41
f 18/40/22 7/41/22 23/35/22
f 7/41/23 9/6/23 24/42/23
f 9/6/42 13/5/42 25/23/42
f 13/5/43 14/43/43 26/27/43
f 14/43/44 6/36/44 19/37/44
