# Blender v2.93.4 OBJ File: ''
# www.blender.org
mtllib stone_middle_02.mtl
v -0.316750 0.418484 0.383284
v -0.050220 0.418484 0.519243
v 0.073232 0.418484 0.519243
v 0.482841 0.418484 0.339054
v -0.540514 0.576964 0.136105
v -0.050220 0.418484 0.272448
v 0.073232 0.418484 0.272448
v 0.727156 0.418484 0.136105
v -0.540514 0.576964 -0.247032
v -0.050220 0.795777 -0.247032
v 0.216311 0.755372 -0.247032
v 0.727156 0.418484 -0.247032
v -0.316750 0.418484 -0.493582
v -0.050220 0.559044 -0.630170
v 0.216311 0.559044 -0.630170
v 0.482841 0.418484 -0.493582
v -0.393478 0.165727 0.468412
v -0.075374 0.165727 0.630679
v 0.242729 0.159969 0.630679
v 0.560834 0.159969 0.415624
v -0.589435 0.108078 0.173405
v -0.075374 -0.000000 0.173405
v 0.242729 0.051891 0.173405
v 0.721700 0.159969 0.173405
v -0.589435 0.145935 -0.283870
v -0.075374 0.037857 -0.283870
v 0.242729 0.054476 -0.283870
v 0.721700 0.162554 -0.283870
v -0.393478 0.203584 -0.578127
v -0.075374 0.203584 -0.741145
v 0.242729 0.162554 -0.741145
v 0.560834 0.162554 -0.578127
v -0.480937 0.639975 -0.012990
v -0.050220 0.639975 0.136105
v 0.216311 0.672390 0.136105
v 0.216311 0.556993 0.328882
v 0.482841 0.639975 0.339054
v 0.617627 0.755372 0.136105
v 0.617627 0.755372 -0.247032
v 0.482841 0.639975 -0.493582
v 0.216311 0.639975 -0.630170
v -0.050220 0.795777 -0.630170
v -0.316750 0.795777 -0.493582
v -0.480937 0.795777 -0.247032
v -0.412198 0.292521 0.490360
v -0.080984 0.292521 0.659314
v 0.184141 0.292521 0.659314
v 0.581443 0.292521 0.435396
v 0.748939 0.292521 0.183195
v 0.748939 0.292522 -0.292925
v 0.581443 0.292522 -0.599309
v 0.250229 0.433081 -0.769045
v -0.080984 0.433081 -0.769045
v -0.412198 0.292522 -0.599309
v -0.675809 0.451002 -0.292925
v -0.675809 0.451002 0.183195
vt 0.089984 0.059735
vt 0.159644 0.022672
vt 0.157149 0.085222
vt 0.193622 0.025417
vt 0.185905 0.083185
vt 0.603855 0.367897
vt 0.672978 0.376657
vt 0.704551 0.436027
vt 0.426400 0.433498
vt 0.537574 0.414393
vt 0.524240 0.516646
vt 0.603049 0.423933
vt 0.592386 0.522345
vt 0.693244 0.530923
vt 0.417463 0.502597
vt 0.510702 0.611763
vt 0.586739 0.623016
vt 0.655017 0.595233
vt 0.155985 0.488797
vt 0.035635 0.484968
vt 0.078602 0.403774
vt 0.151416 0.567316
vt 0.034110 0.565344
vt 0.145526 0.690031
vt 0.085735 0.647416
vt 0.267337 0.492320
vt 0.159141 0.358395
vt 0.264693 0.571291
vt 0.261615 0.694808
vt 0.388741 0.494713
vt 0.275535 0.362023
vt 0.382930 0.576447
vt 0.338208 0.656269
vt 0.217440 0.286265
vt 0.143685 0.297614
vt 0.215890 0.242352
vt 0.062338 0.351361
vt 0.131054 0.251256
vt 0.248280 0.288912
vt 0.277538 0.242378
vt 0.432654 0.291247
vt 0.319158 0.260905
vt 0.431427 0.245555
vt 0.511486 0.275558
vt 0.502332 0.242788
vt 0.262235 0.063439
vt 0.349593 0.082175
vt 0.243178 0.099946
vt 0.606408 0.276032
vt 0.617086 0.244867
vt 0.429281 0.118520
vt 0.510926 0.089724
vt 0.422808 0.163350
vt 0.341013 0.122900
vt 0.589253 0.080833
vt 0.513826 0.139202
vt 0.690970 0.291532
vt 0.702643 0.244289
vt 0.686737 0.099434
vt 0.594440 0.134834
vt 0.417342 0.391783
vt 0.230314 0.147181
vt 0.162081 0.148554
vt 0.234558 0.085820
vt 0.319879 0.315797
vt 0.444464 0.347125
vt 0.374050 0.361507
vt 0.510355 0.363808
vt 0.606848 0.364180
vt 0.680910 0.346056
vt 0.584278 0.057565
vt 0.670528 0.035647
vt 0.505231 0.025839
vt 0.430918 0.028180
vt 0.359720 0.028458
vt 0.298388 0.051514
vt 0.127890 0.218593
vt 0.034951 0.307755
vt 0.034110 0.212500
vt 0.214627 0.211998
vt 0.331583 0.223623
vt 0.428998 0.211806
vt 0.333426 0.189858
vt 0.502425 0.209537
vt 0.511086 0.197330
vt 0.420191 0.186536
vt 0.599085 0.208554
vt 0.616822 0.212149
vt 0.701937 0.155444
vt 0.704876 0.195696
vt 0.034110 0.136878
vt 0.449589 0.569005
vt 0.350299 0.413004
vt 0.291167 0.209537
vt 0.230477 0.178764
vt 0.700133 0.211271
vn 0.0000 1.0000 0.0000
vn -0.2929 0.9017 0.3182
vn -0.1293 0.9186 0.3735
vn -0.1180 0.9705 0.2102
vn -0.2025 0.9793 0.0000
vn 0.1437 0.9476 -0.2854
vn 0.1457 0.9473 -0.2853
vn 0.1441 0.9475 -0.2853
vn 0.0000 0.9057 -0.4239
vn -0.1712 -0.9263 0.3357
vn -0.0176 -0.9730 0.2300
vn -0.0000 -1.0000 -0.0000
vn -0.2051 -0.9754 -0.0808
vn 0.1610 -0.9869 -0.0056
vn 0.2201 -0.9755 -0.0055
vn -0.1939 -0.9223 -0.3343
vn 0.0508 -0.9719 -0.2297
vn 0.2185 -0.9685 -0.1195
vn -0.3054 0.7404 0.5988
vn -0.3051 0.7403 0.5991
vn -0.2151 0.7220 0.6576
vn 0.0000 0.7436 0.6687
vn 0.3385 0.7244 0.6006
vn 0.7860 0.3311 0.5220
vn -0.6814 0.7319 0.0000
vn 0.9854 0.1704 0.0000
vn -0.5729 0.7363 -0.3601
vn -0.3387 0.6212 -0.7067
vn -0.3388 0.6208 -0.7069
vn 0.0000 0.7407 -0.6718
vn 0.5933 0.7367 -0.3244
vn 0.5871 0.6658 -0.4605
vn -0.1196 0.9307 0.3456
vn -0.0639 0.5230 0.8499
vn -0.0637 0.5234 0.8497
vn -0.0671 0.5233 0.8495
vn -0.7186 0.5967 0.3572
vn -0.2849 0.8642 0.4147
vn 0.8330 0.0000 0.5532
vn 0.9510 0.3092 0.0000
vn 0.7920 0.2575 -0.5535
vn 0.4561 0.0000 -0.8899
vn 0.0000 -0.0000 -1.0000
vn -0.4561 -0.0000 -0.8899
vn -0.8323 0.0000 -0.5543
vn -0.9504 0.2588 0.1723
vn -0.4437 -0.2161 0.8698
vn -0.7932 -0.2160 0.5693
vn -0.7933 -0.2160 0.5693
vn -0.7933 -0.2158 0.5692
vn 0.0000 -0.2203 0.9754
vn -0.0032 -0.2140 0.9768
vn -0.0008 -0.2188 0.9758
vn 0.4908 0.0288 0.8708
vn 0.8149 -0.2074 0.5412
vn -0.9622 -0.2724 -0.0000
vn 0.9795 -0.2013 -0.0000
vn 0.9789 -0.2043 -0.0010
vn 0.9794 -0.2021 -0.0002
vn -0.4120 -0.1199 -0.9033
vn -0.7947 -0.2936 -0.5312
vn -0.7944 -0.2938 -0.5316
vn 0.0000 -0.1026 -0.9947
vn 0.8574 -0.2124 -0.4687
vn 0.3753 -0.2068 -0.9035
vn 0.1729 0.8928 0.4159
vn -0.1747 0.8448 0.5057
vn 0.0000 0.8324 0.5541
vn 0.1391 0.9173 0.3730
vn 0.0000 0.9773 0.2117
vn 0.5047 0.8633 0.0000
vn 0.1462 0.9472 -0.2853
vn -0.1955 -0.9299 0.3116
vn 0.1516 -0.9293 0.3368
vn 0.2145 -0.9505 0.2247
vn 0.0520 -0.9952 -0.0824
vn -0.1446 -0.9484 -0.2821
vn -0.1446 -0.9483 -0.2825
vn -0.1204 -0.9333 -0.3383
vn 0.1171 -0.9665 -0.2284
vn -0.3766 0.6509 0.6591
vn 0.2371 0.8082 0.5390
vn 0.4323 0.7364 0.5204
vn -0.5420 0.6787 -0.4956
vn -0.2802 0.7328 -0.6201
vn 0.6642 0.3546 -0.6581
vn 0.5248 0.7495 -0.4035
vn -0.0672 0.5230 0.8497
vn 0.0000 0.4731 0.8810
vn -0.6955 0.7185 0.0000
vn 0.4027 -0.0000 0.9153
vn 0.6256 0.2034 0.7531
vn 0.7103 0.0000 -0.7039
vn -0.6672 0.1817 -0.7224
vn -0.7266 0.6870 0.0000
vn -0.7934 -0.2157 0.5692
vn -0.0039 -0.2128 0.9771
vn 0.5480 -0.2061 0.8107
vn -0.9697 -0.2437 -0.0202
vn 0.9787 -0.2052 -0.0012
vn -0.4359 -0.2943 -0.8505
vn -0.7858 -0.2394 -0.5702
vn -0.0156 -0.1210 -0.9925
vn 0.4536 -0.1039 -0.8851
usemtl Material_#27.032
s 1
f 1/1/1 2/2/1 6/3/1
f 2/2/1 3/4/1 7/5/1
f 36/6/2 37/7/2 38/8/2
f 33/9/3 34/10/3 10/11/3
f 34/10/4 35/12/4 11/13/4
f 35/12/5 38/8/5 39/14/5
f 44/15/1 10/11/1 42/16/1
f 10/11/6 11/13/7 41/17/8
f 11/13/9 39/14/9 40/18/9
f 22/19/10 18/20/10 17/21/10
f 23/22/11 19/23/11 18/20/11
f 24/24/12 20/25/12 19/23/12
f 26/26/13 22/19/13 21/27/13
f 27/28/14 23/22/14 22/19/14
f 28/29/15 24/24/15 23/22/15
f 30/30/16 26/26/16 25/31/16
f 31/32/17 27/28/17 26/26/17
f 32/33/18 28/29/18 27/28/18
f 2/34/19 1/35/20 46/36/19
f 1/35/21 5/37/21 45/38/21
f 3/39/22 46/36/22 47/40/22
f 4/41/23 47/42/23 48/43/23
f 8/44/24 48/43/24 49/45/24
f 5/46/25 9/47/25 56/48/25
f 12/49/26 8/44/26 50/50/26
f 13/51/27 14/52/27 54/53/27
f 9/47/28 13/51/29 55/54/28
f 14/52/30 15/55/30 53/56/30
f 16/57/31 50/50/31 51/58/31
f 15/55/32 16/59/32 52/60/32
f 5/61/33 34/10/33 33/9/33
f 6/3/34 35/62/35 34/63/36
f 7/5/37 36/64/37 35/62/37
f 3/65/38 37/66/38 36/67/38
f 4/41/39 38/68/39 37/66/39
f 8/44/40 39/69/40 38/68/40
f 12/49/41 40/70/41 39/69/41
f 16/59/42 41/71/42 40/72/42
f 15/55/43 42/73/43 41/71/43
f 14/52/44 43/74/44 42/73/44
f 13/51/45 44/75/45 43/74/45
f 9/47/46 33/76/46 44/75/46
f 45/38/47 17/77/47 46/36/47
f 56/78/48 21/79/49 45/38/50
f 46/36/51 18/80/52 47/40/53
f 47/42/54 19/81/54 48/43/54
f 48/43/55 20/82/55 49/45/55
f 55/54/56 25/83/56 56/48/56
f 49/45/57 24/84/58 50/50/59
f 53/56/60 30/85/60 54/53/60
f 54/53/61 29/86/61 55/54/62
f 52/60/63 31/87/63 53/56/63
f 50/50/64 28/88/64 51/58/64
f 51/89/65 32/90/65 52/60/65
f 6/3/66 5/91/66 1/1/66
f 7/5/1 6/3/1 2/2/1
f 38/8/67 35/12/67 36/6/67
f 10/11/68 44/15/68 33/9/68
f 11/13/69 10/11/69 34/10/69
f 39/14/70 11/13/70 35/12/70
f 42/16/1 43/92/1 44/15/1
f 41/17/71 42/16/71 10/11/71
f 40/18/72 41/17/8 11/13/7
f 17/21/73 21/27/73 22/19/73
f 18/20/74 22/19/74 23/22/74
f 19/23/75 23/22/75 24/24/75
f 21/27/13 25/31/13 26/26/13
f 22/19/76 26/26/76 27/28/76
f 23/22/15 27/28/15 28/29/15
f 25/31/77 29/93/77 30/30/78
f 26/26/79 30/30/79 31/32/79
f 27/28/80 31/32/80 32/33/80
f 1/35/20 45/38/19 46/36/19
f 5/37/81 56/78/81 45/38/81
f 3/39/22 2/34/22 46/36/22
f 4/41/82 3/65/82 47/42/82
f 8/44/83 4/41/83 48/43/83
f 9/47/25 55/54/25 56/48/25
f 8/44/26 49/45/26 50/50/26
f 14/52/84 53/56/84 54/53/84
f 13/51/85 54/53/85 55/54/85
f 15/55/30 52/60/30 53/56/30
f 16/57/86 12/49/86 50/50/86
f 16/59/87 51/89/87 52/60/87
f 5/91/88 6/3/34 34/63/36
f 6/3/89 7/5/89 35/62/89
f 7/5/90 3/4/90 36/64/90
f 3/65/91 4/41/91 37/66/91
f 4/41/92 8/44/92 38/68/92
f 8/44/40 12/49/40 39/69/40
f 12/49/93 16/57/93 40/70/93
f 16/59/42 15/55/42 41/71/42
f 15/55/43 14/52/43 42/73/43
f 14/52/44 13/51/44 43/74/44
f 13/51/94 9/47/94 44/75/94
f 9/47/95 5/46/95 33/76/95
f 17/77/47 18/80/47 46/36/47
f 21/79/49 17/77/96 45/38/50
f 18/80/52 19/94/97 47/40/53
f 19/81/98 20/82/98 48/43/98
f 20/82/55 24/84/55 49/45/55
f 25/83/99 21/95/99 56/48/99
f 24/84/58 28/88/100 50/50/59
f 30/85/101 29/86/101 54/53/101
f 29/86/102 25/83/102 55/54/102
f 31/87/103 30/85/103 53/56/103
f 28/88/64 32/96/64 51/58/64
f 32/90/104 31/87/104 52/60/104
