# Blender v2.93.4 OBJ File: ''
# www.blender.org
mtllib bench_02.mtl
v -1.069825 0.435566 0.296094
v 1.069825 0.435566 0.296094
v -1.069825 0.435566 0.026175
v 1.069825 0.435566 0.014972
v -1.069825 0.505566 0.296094
v 1.069825 0.505566 0.296094
v -1.069825 0.505566 0.026175
v 1.069825 0.505566 0.014972
v 0.683992 0.505566 0.313998
v 0.683992 0.505566 0.031560
v 0.683992 0.435566 0.031560
v 0.683992 0.435566 0.313998
v -0.917219 0.505566 0.283592
v -0.917219 0.505566 0.016688
v -0.917219 0.435566 0.016688
v -0.917219 0.435566 0.283592
v 1.069825 0.505566 0.084252
v 0.683992 0.505566 0.101164
v -0.917219 0.505566 0.136520
v -1.069825 0.505566 0.189646
v -1.069825 0.435566 0.189646
v -0.917219 0.435566 0.136520
v 0.683992 0.435566 0.101164
v 1.069825 0.435566 0.084252
v 1.069825 0.505566 0.179724
v 0.683992 0.505566 0.197083
v -0.917219 0.505566 0.220776
v -1.069825 0.505566 0.248563
v -1.069825 0.435566 0.248563
v -0.917219 0.435566 0.220776
v 0.683992 0.435566 0.197083
v 1.069825 0.435566 0.179724
v 1.001856 0.505566 0.120664
v 0.683992 0.494802 0.137747
v -0.917219 0.494802 0.168654
v -1.051869 0.505566 0.221397
v -1.051869 0.435566 0.221397
v -0.917219 0.435566 0.168654
v 0.683992 0.435566 0.137747
v 1.001856 0.435566 0.120664
v -1.053345 0.435566 0.011958
v 1.069825 0.435566 0.011958
v -1.069825 0.435566 -0.313999
v 1.069825 0.435566 -0.313999
v -1.053345 0.491536 0.011958
v 1.069825 0.505566 0.011958
v -1.069825 0.491536 -0.313999
v 1.069825 0.505566 -0.313999
v 0.612401 0.505566 0.017587
v 0.612401 0.505566 -0.295373
v 0.612401 0.435566 -0.295373
v 0.612401 0.435566 0.017587
v -0.616128 0.505566 -0.297941
v -0.616128 0.505566 0.003095
v -0.616128 0.435566 0.003095
v -0.616128 0.435566 -0.297941
v 1.069825 0.505566 -0.072308
v 0.612401 0.505566 -0.063319
v -0.616128 0.505566 -0.074728
v -1.069825 0.491536 -0.072308
v -1.069825 0.435566 -0.072308
v -0.616128 0.435566 -0.074728
v 0.612401 0.435566 -0.063319
v 1.069825 0.435566 -0.072308
v 1.021925 0.505566 -0.132734
v 0.612401 0.505566 -0.121336
v -0.616128 0.505566 -0.130535
v -1.069825 0.491536 -0.132734
v -1.069825 0.435566 -0.132734
v -0.616128 0.435566 -0.130535
v 0.612401 0.435566 -0.121336
v 1.021925 0.435566 -0.132734
v -0.867599 -0.000000 0.224954
v -0.826395 -0.000000 0.224954
v -0.867599 -0.000000 0.164954
v -0.826395 -0.000000 0.164954
v -0.876997 0.446035 0.260252
v -0.816997 0.446035 0.260252
v -0.876997 0.446035 0.164954
v -0.816997 0.446035 0.164954
v -0.867887 0.299645 0.248667
v -0.814056 0.299645 0.248667
v -0.814056 0.299645 0.172233
v -0.867887 0.299645 0.172233
v 0.835914 -0.000000 0.224954
v 0.877119 -0.000000 0.224954
v 0.835914 -0.000000 0.164954
v 0.877119 -0.000000 0.164954
v 0.812441 0.446035 0.260252
v 0.886516 0.446035 0.260252
v 0.812441 0.446035 0.164954
v 0.886516 0.446035 0.164954
v 0.827482 0.400186 0.256624
v 0.885550 0.400186 0.256624
v 0.885550 0.400186 0.164954
v 0.827482 0.400186 0.164954
v 0.877119 0.000000 -0.236865
v 0.835914 0.000000 -0.236865
v 0.877119 0.000000 -0.176865
v 0.835914 0.000000 -0.176865
v 0.886516 0.446035 -0.272164
v 0.826516 0.446035 -0.272164
v 0.886516 0.446035 -0.176865
v 0.826516 0.446035 -0.176865
v 0.819937 0.330387 -0.176865
v 0.819937 0.330387 -0.254282
v 0.875063 0.330387 -0.254282
v 0.875063 0.330387 -0.176865
v -0.826395 0.000000 -0.236865
v -0.867599 0.000000 -0.236865
v -0.826395 0.000000 -0.176865
v -0.867599 0.000000 -0.176865
v -0.816997 0.446035 -0.272164
v -0.894205 0.446035 -0.272164
v -0.816997 0.446035 -0.176865
v -0.894205 0.446035 -0.176865
v -0.875871 0.392611 -0.180123
v -0.875871 0.392611 -0.267936
v -0.818123 0.392611 -0.267936
v -0.818123 0.392611 -0.180123
v -0.834425 0.135425 -0.186107
v -0.834425 0.135425 0.179647
v -0.834425 0.219912 -0.186107
v -0.834425 0.219912 0.179647
v -0.863300 0.135425 -0.186107
v -0.863300 0.135425 0.179647
v -0.863300 0.219912 -0.186107
v -0.863300 0.219912 0.179647
v -0.863300 0.219912 0.071822
v -0.863300 0.146689 0.071822
v -0.834425 0.146689 0.071822
v -0.834425 0.219912 0.071822
v -0.863300 0.212375 -0.075679
v -0.863300 0.135425 -0.075679
v -0.834425 0.135425 -0.075679
v -0.834425 0.212375 -0.075679
v 0.869197 0.135425 -0.186107
v 0.869197 0.135425 0.179647
v 0.869197 0.219912 -0.186107
v 0.869197 0.219912 0.179647
v 0.840321 0.135425 -0.186107
v 0.840321 0.135425 0.179647
v 0.840321 0.219912 -0.186107
v 0.840321 0.219912 0.179647
v 0.840321 0.219912 0.071822
v 0.840321 0.146689 0.071822
v 0.869197 0.146689 0.071822
v 0.869197 0.219912 0.071822
v 0.840321 0.212375 -0.075679
v 0.840321 0.135425 -0.075679
v 0.869197 0.135425 -0.075679
v 0.869197 0.212375 -0.075679
vt 0.035298 0.411413
vt 0.035298 0.406190
vt 0.052067 0.410039
vt 0.035730 0.337185
vt 0.052431 0.337583
vt 0.036120 0.342331
vt 0.035764 0.329610
vt 0.052331 0.329904
vt 0.276829 0.332211
vt 0.276203 0.345064
vt 0.269101 0.332102
vt 0.270100 0.375227
vt 0.228108 0.373453
vt 0.270335 0.367612
vt 0.029253 0.367390
vt 0.029023 0.349584
vt 0.036875 0.367158
vt 0.228012 0.382346
vt 0.270408 0.388136
vt 0.228012 0.389994
vt 0.227148 0.334245
vt 0.227859 0.347115
vt 0.226929 0.326590
vt 0.268902 0.324486
vt 0.053353 0.375071
vt 0.228192 0.365794
vt 0.052067 0.380711
vt 0.052067 0.393879
vt 0.052761 0.344507
vt 0.036665 0.374796
vt 0.053425 0.367423
vt 0.035299 0.399716
vt 0.035299 0.381754
vt 0.053193 0.354201
vt 0.036419 0.349404
vt 0.276495 0.359131
vt 0.277941 0.366599
vt 0.269792 0.360121
vt 0.029161 0.345951
vt 0.262939 0.392137
vt 0.228258 0.358146
vt 0.228011 0.394014
vt 0.037271 0.403205
vt 0.052067 0.403137
vt 0.053042 0.350369
vt 0.273361 0.352972
vt 0.269402 0.344594
vt 0.228290 0.353881
vt 0.028719 0.342782
vt 0.028190 0.337678
vt 0.270407 0.398626
vt 0.270407 0.411413
vt 0.228011 0.400534
vt 0.228011 0.413381
vt 0.037326 0.345620
vt 0.052067 0.397410
vt 0.264669 0.353512
vt 0.055059 0.131945
vt 0.053248 0.122686
vt 0.103101 0.130971
vt 0.052742 0.046468
vt 0.100724 0.047338
vt 0.051179 0.055685
vt 0.052687 0.040336
vt 0.100598 0.039668
vt 0.293054 0.046758
vt 0.291851 0.056023
vt 0.285333 0.046038
vt 0.285238 0.090655
vt 0.235284 0.088034
vt 0.285529 0.083011
vt 0.044904 0.082029
vt 0.044914 0.062070
vt 0.051067 0.082086
vt 0.238093 0.098175
vt 0.283092 0.116046
vt 0.238093 0.117298
vt 0.235240 0.045589
vt 0.235332 0.054540
vt 0.235236 0.037924
vt 0.285392 0.038363
vt 0.100826 0.088093
vt 0.235528 0.080359
vt 0.103101 0.097893
vt 0.103101 0.116287
vt 0.100786 0.055890
vt 0.051094 0.088217
vt 0.100831 0.080427
vt 0.053248 0.116046
vt 0.103101 0.122420
vt 0.100835 0.062059
vt 0.289278 0.063107
vt 0.284872 0.055053
vt 0.045188 0.055162
vt 0.046537 0.045655
vt 0.288356 0.122686
vt 0.288356 0.131945
vt 0.238093 0.123673
vt 0.235505 0.061134
vt 0.238093 0.132564
vt 0.051069 0.062237
vt 0.292713 0.082179
vt 0.281115 0.062611
vt 0.311021 0.398354
vt 0.304428 0.393826
vt 0.311021 0.393826
vt 0.308514 0.392642
vt 0.304025 0.392557
vt 0.309200 0.359481
vt 0.294919 0.360419
vt 0.303245 0.359560
vt 0.319390 0.393698
vt 0.314954 0.393316
vt 0.323629 0.361012
vt 0.317706 0.360221
vt 0.302941 0.343513
vt 0.292518 0.344550
vt 0.319716 0.344123
vt 0.353762 0.396791
vt 0.347169 0.392263
vt 0.353762 0.392263
vt 0.349297 0.391674
vt 0.344947 0.391635
vt 0.350758 0.347058
vt 0.334319 0.348783
vt 0.344174 0.347458
vt 0.360036 0.393096
vt 0.355568 0.392434
vt 0.367386 0.349838
vt 0.361198 0.348277
vt 0.343723 0.342548
vt 0.333671 0.343945
vt 0.361517 0.343091
vt 0.439580 0.397322
vt 0.432987 0.392795
vt 0.439580 0.392795
vt 0.444724 0.392298
vt 0.440231 0.391830
vt 0.448217 0.356199
vt 0.433842 0.355584
vt 0.442205 0.355582
vt 0.433403 0.391788
vt 0.428403 0.391866
vt 0.421593 0.391864
vt 0.428009 0.355536
vt 0.444229 0.342899
vt 0.433787 0.342938
vt 0.427288 0.342699
vt 0.419611 0.355755
vt 0.392499 0.397426
vt 0.385925 0.392872
vt 0.392518 0.392899
vt 0.385343 0.392122
vt 0.380844 0.392378
vt 0.383765 0.348975
vt 0.402410 0.393250
vt 0.400106 0.348986
vt 0.409798 0.350965
vt 0.396167 0.392706
vt 0.391860 0.392425
vt 0.393485 0.348871
vt 0.377489 0.349472
vt 0.375044 0.343878
vt 0.401518 0.342822
vt 0.393478 0.343124
vt 0.056659 0.144760
vt 0.056694 0.135539
vt 0.068743 0.144782
vt 0.056648 0.147855
vt 0.068729 0.147833
vt 0.056665 0.157096
vt 0.096873 0.136069
vt 0.085119 0.136443
vt 0.096849 0.132913
vt 0.085060 0.144648
vt 0.085031 0.148145
vt 0.097039 0.147988
vt 0.084933 0.156337
vt 0.097067 0.145156
vt 0.068900 0.136388
vt 0.085073 0.133266
vt 0.068870 0.156218
vt 0.068978 0.133212
vt 0.099723 0.144760
vt 0.099757 0.135539
vt 0.111807 0.144782
vt 0.099712 0.147855
vt 0.111792 0.147833
vt 0.099728 0.157096
vt 0.139937 0.136069
vt 0.128182 0.136443
vt 0.139913 0.132913
vt 0.128124 0.144648
vt 0.128095 0.148145
vt 0.140103 0.147988
vt 0.127997 0.156337
vt 0.140131 0.145156
vt 0.111964 0.136388
vt 0.128137 0.133266
vt 0.111934 0.156218
vt 0.112041 0.133212
vt 0.270408 0.380523
vt 0.288356 0.096128
vt 0.053248 0.096128
vt 0.304428 0.398354
vt 0.297478 0.393228
vt 0.309445 0.343237
vt 0.326041 0.345267
vt 0.347169 0.396791
vt 0.338431 0.392251
vt 0.351525 0.341689
vt 0.368763 0.345399
vt 0.432987 0.397322
vt 0.450772 0.343566
vt 0.416923 0.343242
vt 0.385907 0.397400
vt 0.383337 0.343194
vt 0.411592 0.345095
vt 0.096516 0.157081
vt 0.056915 0.132392
vt 0.139580 0.157081
vt 0.099978 0.132392
vn -0.0000 -1.0000 -0.0000
vn 0.0000 1.0000 0.0000
vn 0.0817 -0.0000 0.9967
vn 1.0000 -0.0000 0.0000
vn -0.0430 0.0000 -0.9991
vn -1.0000 0.0000 0.0000
vn 0.0464 -0.0000 0.9989
vn 0.0093 0.0000 -1.0000
vn -0.0190 -0.0000 0.9998
vn -0.0621 0.0000 -0.9981
vn -0.8704 0.0000 0.4923
vn -0.0368 0.9787 -0.2021
vn 0.6559 -0.0000 -0.7548
vn -0.0080 0.9839 -0.1785
vn -0.0053 0.9839 -0.1785
vn -0.0026 0.9839 -0.1785
vn -0.8342 0.0000 -0.5514
vn 0.1963 0.9298 0.3115
vn 0.4722 0.0000 0.8815
vn -0.0173 0.9592 0.2822
vn 0.0054 0.9593 0.2823
vn -0.0319 0.9995 0.0062
vn -0.0317 0.9995 0.0046
vn -0.0309 0.9995 -0.0003
vn 0.0203 -0.0000 0.9998
vn -0.0407 0.0000 -0.9992
vn 0.0123 -0.0000 0.9999
vn 0.0021 0.0000 -1.0000
vn -0.0118 -0.0000 0.9999
vn 0.0354 0.0000 -0.9994
vn -0.0309 0.9995 0.0000
vn 0.7836 0.0000 -0.6212
vn -0.9814 0.0000 0.1919
vn 0.9668 0.0000 0.2555
vn 0.0000 -0.0789 0.9969
vn 0.9992 -0.0411 0.0000
vn 0.0000 0.0243 -0.9997
vn -1.0000 -0.0010 0.0000
vn 0.9998 0.0201 0.0000
vn 0.0000 -0.0497 -0.9988
vn -0.9981 -0.0621 0.0000
vn 0.9998 -0.0211 0.0000
vn 0.0000 0.0000 -1.0000
vn -0.9998 -0.0211 0.0000
vn -0.9502 -0.3117 0.0000
vn 0.0000 -0.0526 -0.9986
vn -0.9988 -0.0483 0.0000
vn 0.0000 -0.0000 1.0000
vn 1.0000 0.0062 0.0000
vn 0.0000 -0.1528 -0.9883
vn -0.9984 0.0568 0.0000
vn 0.9951 -0.0986 0.0000
vn 0.0000 -0.0789 -0.9969
vn 0.0000 0.0083 1.0000
vn -0.9459 -0.3246 -0.0000
vn 0.0000 -0.0609 0.9981
vn 0.0000 -0.9946 -0.1039
vn -0.0000 0.9987 -0.0510
vn 0.0000 -0.9971 0.0761
vn -0.0000 0.9977 0.0681
vn 0.1070 0.9917 0.0707
vn -0.0319 0.9988 0.0367
vn -0.0039 0.9793 -0.2023
vn 0.0070 0.9482 0.3176
vn 0.9951 -0.0985 0.0000
usemtl Material_#25.032
s 1
f 1/1/1 29/2/1 16/3/1
f 5/4/2 13/5/2 28/6/2
f 1/7/3 16/8/3 5/4/3
f 2/9/4 32/10/4 6/11/4
f 4/12/5 11/13/5 8/14/5
f 3/15/6 21/16/6 7/17/6
f 11/18/1 24/19/1 23/20/1
f 9/21/2 6/11/2 26/22/2
f 12/23/7 2/24/7 9/21/7
f 11/13/8 15/25/8 10/26/8
f 15/27/1 11/18/1 22/28/1
f 13/5/2 9/21/2 27/29/2
f 16/8/9 12/23/9 13/5/9
f 15/25/10 3/30/10 14/31/10
f 21/32/1 3/33/1 22/28/1
f 19/34/2 14/31/2 20/35/2
f 24/36/4 4/37/4 17/38/4
f 21/16/11 37/39/11 20/35/11
f 24/19/1 40/40/1 23/20/1
f 17/38/2 10/26/2 18/41/2
f 23/20/1 39/42/1 22/28/1
f 18/41/2 10/26/2 19/34/2
f 29/2/1 37/43/1 30/44/1
f 27/29/12 35/45/12 28/6/12
f 32/10/13 40/46/13 25/47/13
f 25/47/14 34/48/15 26/22/15
f 26/22/15 34/48/15 27/29/16
f 29/49/6 1/50/6 28/6/6
f 32/51/1 2/52/1 31/53/1
f 31/53/1 12/54/1 30/44/1
f 37/39/17 29/49/17 36/55/17
f 40/40/1 32/51/1 39/42/1
f 39/42/1 31/53/1 38/56/1
f 37/43/1 21/32/1 38/56/1
f 35/45/18 19/34/18 36/55/18
f 40/46/19 24/36/19 33/57/19
f 33/57/20 18/41/20 34/48/20
f 34/48/21 18/41/21 35/45/21
f 41/58/1 61/59/1 55/60/1
f 45/61/22 54/62/23 60/63/24
f 41/64/25 55/65/25 45/61/25
f 42/66/4 64/67/4 46/68/4
f 44/69/26 51/70/26 48/71/26
f 43/72/6 69/73/6 47/74/6
f 51/75/1 72/76/1 71/77/1
f 49/78/2 46/68/2 58/79/2
f 52/80/27 42/81/27 49/78/27
f 51/70/28 56/82/28 50/83/28
f 56/84/1 51/75/1 70/85/1
f 54/62/2 49/78/2 59/86/2
f 55/65/29 52/80/29 54/62/29
f 56/82/30 43/87/30 53/88/30
f 61/59/1 69/89/1 62/90/1
f 59/86/31 67/91/31 60/63/24
f 64/67/32 72/92/32 57/93/32
f 61/94/33 41/95/33 60/63/33
f 64/96/1 42/97/1 63/98/1
f 57/93/2 66/99/2 58/79/2
f 63/98/1 52/100/1 62/90/1
f 58/79/2 66/99/2 59/86/2
f 69/73/6 61/94/6 68/101/6
f 72/76/1 64/96/1 71/77/1
f 71/77/1 63/98/1 70/85/1
f 69/89/1 56/84/1 70/85/1
f 67/91/31 53/88/31 68/101/31
f 72/92/34 44/102/34 65/103/34
f 65/103/2 50/83/2 66/99/2
f 66/99/2 50/83/2 67/91/2
f 73/104/1 76/105/1 74/106/1
f 73/107/35 74/108/35 81/109/35
f 74/108/36 83/110/36 82/111/36
f 76/112/37 75/113/37 83/114/37
f 75/113/38 73/107/38 84/115/38
f 82/111/35 78/116/35 81/109/35
f 83/110/39 80/117/39 82/111/39
f 84/115/40 79/118/40 83/114/40
f 81/109/41 79/118/41 84/115/41
f 85/119/1 88/120/1 86/121/1
f 85/122/35 86/123/35 93/124/35
f 86/123/42 95/125/42 94/126/42
f 88/127/43 87/128/43 95/129/43
f 87/128/44 85/122/44 96/130/44
f 94/126/35 90/131/35 93/124/35
f 95/125/42 92/132/42 94/126/42
f 96/130/43 91/133/43 95/129/43
f 93/124/45 91/133/45 96/130/45
f 97/134/1 100/135/1 98/136/1
f 97/137/46 98/138/46 107/139/46
f 98/138/47 105/140/47 106/141/47
f 100/142/48 99/143/48 105/140/48
f 99/143/49 97/144/49 108/145/49
f 106/141/50 102/146/50 107/139/50
f 105/140/51 104/147/51 106/141/51
f 108/145/48 103/148/48 105/140/48
f 107/149/52 103/148/52 108/145/52
f 109/150/1 112/151/1 110/152/1
f 109/153/53 110/154/53 119/155/53
f 110/156/44 117/157/44 118/158/44
f 112/159/54 111/160/54 117/157/54
f 111/160/42 109/153/42 120/161/42
f 118/162/53 114/163/53 119/155/53
f 117/157/55 116/164/55 118/158/55
f 120/161/56 115/165/56 117/157/56
f 119/155/42 115/165/42 120/161/42
f 121/166/4 123/167/4 135/168/4
f 125/169/6 134/170/6 127/171/6
f 121/166/1 135/168/1 125/169/1
f 124/172/2 132/173/2 128/174/2
f 132/173/4 124/172/4 131/175/4
f 130/176/6 126/177/6 129/178/6
f 131/175/57 122/179/57 130/176/57
f 132/173/58 136/180/58 129/181/58
f 136/180/4 132/173/4 135/168/4
f 134/170/6 130/176/6 133/182/6
f 135/168/59 131/175/59 134/170/59
f 136/180/60 123/167/60 133/183/60
f 137/184/4 139/185/4 151/186/4
f 141/187/6 150/188/6 143/189/6
f 137/184/1 151/186/1 141/187/1
f 140/190/2 148/191/2 144/192/2
f 148/191/4 140/190/4 147/193/4
f 146/194/6 142/195/6 145/196/6
f 147/193/57 138/197/57 146/194/57
f 148/191/58 152/198/58 145/199/58
f 152/198/4 148/191/4 151/186/4
f 150/188/6 146/194/6 149/200/6
f 151/186/59 147/193/59 150/188/59
f 152/198/60 139/185/60 149/201/60
f 29/2/1 30/44/1 16/3/1
f 13/5/2 27/29/2 28/6/2
f 16/8/3 13/5/3 5/4/3
f 32/10/4 25/47/4 6/11/4
f 11/13/5 10/26/5 8/14/5
f 21/16/6 20/35/6 7/17/6
f 11/18/1 4/202/1 24/19/1
f 6/11/2 25/47/2 26/22/2
f 2/24/7 6/11/7 9/21/7
f 15/25/8 14/31/8 10/26/8
f 11/18/1 23/20/1 22/28/1
f 9/21/2 26/22/2 27/29/2
f 12/23/9 9/21/9 13/5/9
f 3/30/10 7/17/10 14/31/10
f 3/33/1 15/27/1 22/28/1
f 14/31/2 7/17/2 20/35/2
f 4/37/4 8/14/4 17/38/4
f 37/39/11 36/55/11 20/35/11
f 40/40/1 39/42/1 23/20/1
f 17/38/2 8/14/2 10/26/2
f 39/42/1 38/56/1 22/28/1
f 10/26/2 14/31/2 19/34/2
f 37/43/1 38/56/1 30/44/1
f 35/45/61 36/55/61 28/6/61
f 40/46/13 33/57/13 25/47/13
f 25/47/62 33/57/62 34/48/62
f 34/48/63 35/45/63 27/29/63
f 1/50/6 5/4/6 28/6/6
f 2/52/1 12/54/1 31/53/1
f 12/54/1 16/3/1 30/44/1
f 29/49/17 28/6/17 36/55/17
f 32/51/1 31/53/1 39/42/1
f 31/53/1 30/44/1 38/56/1
f 21/32/1 22/28/1 38/56/1
f 19/34/2 20/35/2 36/55/2
f 24/36/19 17/38/19 33/57/19
f 33/57/2 17/38/2 18/41/2
f 18/41/64 19/34/64 35/45/64
f 61/59/1 62/90/1 55/60/1
f 54/62/23 59/86/31 60/63/24
f 55/65/25 54/62/25 45/61/25
f 64/67/4 57/93/4 46/68/4
f 51/70/26 50/83/26 48/71/26
f 69/73/6 68/101/6 47/74/6
f 51/75/1 44/203/1 72/76/1
f 46/68/2 57/93/2 58/79/2
f 42/81/27 46/68/27 49/78/27
f 56/82/28 53/88/28 50/83/28
f 51/75/1 71/77/1 70/85/1
f 49/78/2 58/79/2 59/86/2
f 52/80/29 49/78/29 54/62/29
f 43/87/30 47/74/30 53/88/30
f 69/89/1 70/85/1 62/90/1
f 67/91/31 68/101/31 60/63/24
f 72/92/32 65/103/32 57/93/32
f 41/95/33 45/61/33 60/63/33
f 42/97/1 52/100/1 63/98/1
f 57/93/2 65/103/2 66/99/2
f 52/100/1 55/60/1 62/90/1
f 66/99/2 67/91/2 59/86/2
f 61/94/6 60/63/6 68/101/6
f 64/96/1 63/98/1 71/77/1
f 63/98/1 62/90/1 70/85/1
f 69/89/1 43/204/1 56/84/1
f 53/88/31 47/74/31 68/101/31
f 44/102/34 48/71/34 65/103/34
f 65/103/2 48/71/2 50/83/2
f 50/83/2 53/88/2 67/91/2
f 73/104/1 75/205/1 76/105/1
f 74/108/35 82/111/35 81/109/35
f 74/108/36 76/206/36 83/110/36
f 75/113/37 84/115/37 83/114/37
f 73/107/38 81/109/38 84/115/38
f 78/116/35 77/207/35 81/109/35
f 80/117/39 78/116/39 82/111/39
f 79/118/40 80/208/40 83/114/40
f 81/109/41 77/207/41 79/118/41
f 85/119/1 87/209/1 88/120/1
f 86/123/35 94/126/35 93/124/35
f 86/123/42 88/210/42 95/125/42
f 87/128/43 96/130/43 95/129/43
f 85/122/44 93/124/44 96/130/44
f 90/131/35 89/211/35 93/124/35
f 92/132/42 90/131/42 94/126/42
f 91/133/43 92/212/43 95/129/43
f 93/124/45 89/211/45 91/133/45
f 97/134/1 99/213/1 100/135/1
f 98/138/46 106/141/46 107/139/46
f 98/138/47 100/142/47 105/140/47
f 99/143/48 108/145/48 105/140/48
f 97/144/49 107/149/49 108/145/49
f 102/146/50 101/214/50 107/139/50
f 104/147/51 102/146/51 106/141/51
f 103/148/48 104/147/48 105/140/48
f 107/149/65 101/215/65 103/148/65
f 109/150/1 111/216/1 112/151/1
f 110/154/53 118/162/53 119/155/53
f 110/156/44 112/159/44 117/157/44
f 111/160/54 120/161/54 117/157/54
f 109/153/42 119/155/42 120/161/42
f 114/163/53 113/217/53 119/155/53
f 116/164/55 114/218/55 118/158/55
f 115/165/56 116/164/56 117/157/56
f 119/155/42 113/217/42 115/165/42
f 123/167/4 136/180/4 135/168/4
f 134/170/6 133/182/6 127/171/6
f 135/168/1 134/170/1 125/169/1
f 132/173/2 129/181/2 128/174/2
f 124/172/4 122/179/4 131/175/4
f 126/177/6 128/219/6 129/178/6
f 122/179/57 126/177/57 130/176/57
f 136/180/58 133/183/58 129/181/58
f 132/173/4 131/175/4 135/168/4
f 130/176/6 129/178/6 133/182/6
f 131/175/59 130/176/59 134/170/59
f 123/167/60 127/220/60 133/183/60
f 139/185/4 152/198/4 151/186/4
f 150/188/6 149/200/6 143/189/6
f 151/186/1 150/188/1 141/187/1
f 148/191/2 145/199/2 144/192/2
f 140/190/4 138/197/4 147/193/4
f 142/195/6 144/221/6 145/196/6
f 138/197/57 142/195/57 146/194/57
f 152/198/58 149/201/58 145/199/58
f 148/191/4 147/193/4 151/186/4
f 146/194/6 145/196/6 149/200/6
f 147/193/59 146/194/59 150/188/59
f 139/185/60 143/222/60 149/201/60
