# Blender v2.93.4 OBJ File: ''
# www.blender.org
mtllib stone_little_03.mtl
v -0.219414 0.148002 0.178995
v -0.137602 0.148002 0.178995
v 0.017996 0.223687 0.201358
v 0.089288 0.178361 0.211114
v -0.258293 0.148002 0.114943
v -0.116013 0.148002 0.140518
v -0.015479 0.223687 0.144541
v 0.220522 0.241897 0.190849
v -0.259842 0.148002 -0.103727
v -0.130686 0.148002 -0.149999
v -0.050376 0.223687 -0.146786
v 0.220522 0.241897 -0.021019
v -0.219414 0.148002 -0.132215
v -0.166290 0.148002 -0.172356
v -0.015479 0.223687 -0.176860
v 0.089288 0.223687 -0.163627
v -0.263129 0.083381 0.214007
v -0.157571 0.083381 0.214007
v 0.043187 0.071441 0.242862
v 0.135175 0.071441 0.204478
v -0.313293 0.083381 0.131364
v -0.129715 0.011940 0.164362
v 0.000000 -0.000000 0.169553
v 0.284689 -0.000000 0.152384
v -0.315292 0.083381 -0.122015
v -0.148649 0.011940 -0.170334
v -0.045028 0.000000 -0.174143
v 0.284689 0.000000 -0.103931
v -0.263129 0.083381 -0.158772
v -0.194584 0.083381 -0.200684
v 0.000000 0.071441 -0.214450
v 0.135175 0.071441 -0.211013
v -0.123747 0.071203 0.153976
v -0.004342 0.062753 0.162536
v -0.046556 0.063915 -0.166326
v -0.140962 0.070168 -0.161632
vt 0.043272 0.074836
vt 0.062912 0.073521
vt 0.072932 0.079356
vt 0.117314 0.073290
vt 0.131558 0.059231
vt 0.167486 0.068944
vt 0.036017 0.089891
vt 0.068771 0.156880
vt 0.106024 0.082242
vt 0.096804 0.154156
vt 0.163050 0.121063
vt 0.035992 0.143141
vt 0.058327 0.159016
vt 0.134466 0.159464
vt 0.302470 0.119401
vt 0.284595 0.136272
vt 0.260700 0.124593
vt 0.410199 0.111581
vt 0.376450 0.137321
vt 0.354256 0.147267
vt 0.304210 0.032909
vt 0.253105 0.102021
vt 0.329419 0.032794
vt 0.338109 0.122906
vt 0.408025 0.050845
vt 0.287705 0.019175
vt 0.259807 0.040095
vt 0.374627 0.018182
vt 0.028413 0.060003
vt 0.053731 0.057216
vt 0.014492 0.084872
vt 0.113423 0.034135
vt 0.138304 0.030382
vt 0.091564 0.043868
vt 0.014479 0.148981
vt 0.078321 0.188733
vt 0.059458 0.176731
vt 0.230084 0.092377
vt 0.045092 0.172358
vt 0.045545 0.149695
vt 0.028672 0.161962
vt 0.215241 0.157948
vt 0.106940 0.159345
vt 0.141834 0.201260
vt 0.107400 0.198333
vt 0.302371 0.135791
vt 0.332669 0.138634
vt 0.342606 0.014293
vt 0.326734 0.017314
vt 0.303961 0.018786
vt 0.271973 0.030505
vt 0.067799 0.057979
vt 0.025025 0.062830
vt 0.174280 0.005316
vt 0.016245 0.151918
vt 0.170831 0.185530
vt 0.090201 0.195698
vn 0.0000 1.0000 -0.0000
vn 0.0276 0.2516 0.9674
vn -0.6017 0.7954 0.0721
vn -0.0765 0.9971 0.0006
vn -0.0769 0.9970 0.0000
vn -0.0768 0.9970 0.0002
vn -0.0138 0.9934 -0.1142
vn 0.0000 -0.5707 0.8212
vn 0.3817 0.1318 0.9148
vn -0.3658 -0.9305 0.0207
vn -0.0921 -0.9957 0.0121
vn -0.0000 -1.0000 -0.0000
vn -0.4458 -0.5773 -0.6841
vn 0.1451 -0.7175 -0.6813
vn 0.0000 0.4764 0.8792
vn 0.8716 -0.0029 0.4903
vn 0.8721 -0.0044 0.4893
vn 0.8718 -0.0036 0.4899
vn -0.6483 0.6518 0.3935
vn 0.0392 0.2688 0.9624
vn 0.1510 0.0034 0.9885
vn -0.8606 -0.0034 0.5092
vn -0.8611 -0.0030 0.5084
vn -0.8605 -0.0032 0.5095
vn -0.7600 0.6500 0.0056
vn -0.7596 0.6503 0.0054
vn -0.7606 0.6492 0.0059
vn -0.1166 0.1024 0.9879
vn -0.0390 0.1527 -0.9875
vn 0.9666 0.2564 0.0000
vn 0.6003 0.0858 -0.7952
vn -0.5138 0.5231 -0.6800
vn -0.4662 0.5873 -0.6616
vn 0.6520 0.3972 -0.6459
vn 0.6503 0.3949 -0.6489
vn 0.6521 0.3973 -0.6458
vn 0.1184 0.3275 -0.9374
vn -0.6481 0.1198 -0.7521
vn 0.8711 -0.0017 0.4911
vn -0.0578 0.1780 0.9823
vn -0.8605 -0.0026 0.5094
vn -0.7223 0.0669 -0.6883
vn 0.5949 0.0414 -0.8028
vn -0.0868 0.9949 0.0511
vn -0.6862 0.7266 0.0347
vn -0.0710 0.9974 0.0085
vn -0.3890 -0.8905 0.2361
vn 0.0413 -0.7276 0.6847
vn -0.3933 -0.9194 0.0031
vn -0.1142 -0.9934 0.0065
vn 0.0220 -0.5017 -0.8647
vn 0.3829 0.1074 0.9175
vn 0.2970 -0.0726 0.9521
vn -0.8616 -0.0029 0.5076
vn -0.7608 0.6490 0.0060
vn -0.0729 0.1194 -0.9902
vn 0.5309 0.0563 -0.8455
vn -0.4267 0.5754 -0.6978
vn 0.6522 0.3975 -0.6455
vn 0.0247 0.2420 -0.9700
vn -0.0297 0.1090 0.9936
vn -0.0226 0.1208 -0.9924
usemtl Material_#27.020
s 1
f 1/1/1 2/2/1 6/3/1
f 3/4/2 4/5/2 8/6/2
f 5/7/1 6/3/1 10/8/1
f 6/3/3 7/9/3 11/10/3
f 7/9/4 8/6/5 12/11/6
f 9/12/1 10/8/1 14/13/1
f 11/10/7 12/11/7 16/14/7
f 22/15/8 18/16/8 17/17/8
f 24/18/9 20/19/9 19/20/9
f 26/21/10 22/15/10 21/22/10
f 27/23/11 23/24/11 22/15/11
f 28/25/12 24/18/12 23/24/12
f 30/26/13 26/21/13 25/27/13
f 32/28/14 28/25/14 27/23/14
f 2/2/15 1/1/15 17/29/15
f 6/3/16 2/2/17 18/30/18
f 1/1/19 5/7/19 21/31/19
f 4/5/20 3/4/20 19/32/20
f 8/6/21 4/5/21 20/33/21
f 3/4/22 34/34/23 19/32/24
f 5/7/25 9/12/26 25/35/27
f 7/9/28 6/3/28 34/34/28
f 10/8/29 35/36/29 36/37/29
f 12/11/30 8/6/30 24/38/30
f 14/13/31 36/37/31 30/39/31
f 13/40/32 14/13/32 30/39/32
f 9/12/33 13/40/33 29/41/33
f 16/14/34 12/11/35 28/42/36
f 15/43/37 16/14/37 32/44/37
f 11/10/38 15/43/38 31/45/38
f 18/16/18 22/15/39 33/46/39
f 33/46/40 22/15/40 34/47/40
f 34/47/23 23/24/41 19/20/24
f 31/48/42 27/23/42 35/49/42
f 35/49/29 26/21/29 36/50/29
f 36/50/43 26/21/43 30/26/43
f 6/3/1 5/7/1 1/1/1
f 8/6/44 7/9/44 3/4/44
f 10/8/1 9/12/1 5/7/1
f 11/10/45 10/8/45 6/3/45
f 12/11/6 11/10/46 7/9/4
f 14/13/12 13/40/12 9/12/12
f 16/14/1 15/43/1 11/10/1
f 17/17/47 21/22/47 22/15/47
f 19/20/48 23/24/48 24/18/48
f 21/22/49 25/27/49 26/21/49
f 22/15/50 26/21/50 27/23/50
f 23/24/12 27/23/12 28/25/12
f 25/27/12 29/51/12 30/26/12
f 27/23/51 31/48/51 32/28/51
f 17/29/15 18/30/15 2/2/15
f 18/30/18 33/52/39 6/3/16
f 21/31/19 17/53/19 1/1/19
f 19/32/52 20/33/52 4/5/52
f 20/33/53 24/54/53 8/6/53
f 3/4/22 7/9/54 34/34/23
f 25/35/27 21/31/55 5/7/25
f 6/3/40 33/52/40 34/34/40
f 10/8/56 11/10/56 35/36/56
f 24/38/30 28/42/30 12/11/30
f 14/13/57 10/8/57 36/37/57
f 30/39/58 29/41/58 13/40/58
f 29/41/33 25/55/33 9/12/33
f 28/42/36 32/56/59 16/14/34
f 32/44/60 31/45/60 15/43/60
f 31/45/42 35/57/42 11/10/42
f 22/15/61 23/24/61 34/47/61
f 35/49/62 27/23/62 26/21/62
