# Blender v2.93.4 OBJ File: ''
# www.blender.org
mtllib stone_middle_03.mtl
v -0.595701 0.416534 -0.358665
v -0.676865 0.416534 -0.218884
v -0.676865 0.416534 0.054600
v -0.676865 0.416534 0.282566
v -0.392576 0.416534 -0.393467
v -0.392576 0.885755 -0.218884
v -0.392576 0.885755 0.054600
v -0.392576 0.416534 0.514428
v 0.193203 0.416534 -0.544163
v 0.193203 0.885755 -0.218884
v 0.272693 0.885755 0.173773
v 0.193203 0.416534 0.514428
v 0.506792 0.416534 -0.393467
v 0.628237 0.416534 -0.218884
v 0.628237 0.416534 0.054599
v -0.704062 0.172526 -0.423627
v -0.804072 0.172526 -0.251389
v -0.804072 0.172526 0.085597
v -0.804072 0.172526 0.366497
v -0.453774 0.054404 -0.466511
v -0.453774 -0.002734 -0.251389
v -0.453774 0.067322 0.085597
v -0.453774 0.242582 0.652198
v 0.268025 0.054404 -0.652198
v 0.268025 0.032962 -0.251390
v 0.365972 0.103018 0.232441
v 0.268025 0.242582 0.652198
v 0.654429 0.172526 -0.466511
v 0.804075 0.208222 -0.251390
v 0.804075 0.208222 0.085597
vt 0.036755 0.505513
vt 0.075957 0.494087
vt 0.076760 0.632006
vt 0.144711 0.492382
vt 0.145782 0.631104
vt 0.199490 0.481943
vt 0.277320 0.526513
vt 0.833222 0.571428
vt 0.827468 0.696664
vt 0.681472 0.690313
vt 0.658696 0.298653
vt 0.664655 0.230662
vt 0.832929 0.215315
vt 0.668543 0.066591
vt 0.814971 0.070017
vt 0.595703 0.478766
vt 0.513559 0.597669
vt 0.463478 0.445907
vt 0.415160 0.616771
vt 0.398258 0.467426
vt 0.153835 0.071523
vt 0.060058 0.046981
vt 0.095503 0.007587
vt 0.128691 0.151768
vt 0.039981 0.130501
vt 0.083890 0.292663
vt 0.019407 0.197910
vt 0.324923 0.123588
vt 0.167560 0.018545
vt 0.314255 0.248291
vt 0.256897 0.347009
vt 0.459332 0.164893
vt 0.354814 0.028079
vt 0.433878 0.246255
vt 0.016112 0.440246
vt 0.884597 0.577517
vt 0.857174 0.480645
vt 0.063517 0.426447
vt 0.145722 0.419874
vt 0.218612 0.414076
vt 0.683722 0.547906
vt 0.673359 0.452440
vt 0.654472 0.010882
vt 0.834715 0.014899
vt 0.516217 0.445408
vt 0.448262 0.377306
vt 0.516536 0.372471
vt 0.360406 0.822413
vt 0.235922 0.906390
vt 0.309822 0.723114
vt 0.369048 0.405637
vt 0.804578 0.311393
vt 0.438149 0.102006
vt 0.916913 0.516987
vt 0.312976 0.480595
vt 0.197349 0.709734
vt 0.627037 0.387388
vt 0.413973 0.779575
vn -0.7670 0.4619 -0.4454
vn -0.7681 0.4596 -0.4458
vn -0.7660 0.4641 -0.4448
vn -0.8553 0.5182 0.0000
vn -0.0000 1.0000 0.0000
vn -0.0000 0.3487 -0.9372
vn 0.0000 0.6999 0.7142
vn 0.5235 0.4854 -0.7002
vn 0.7679 0.6214 -0.1555
vn -0.4331 -0.8656 -0.2515
vn -0.4334 -0.8655 -0.2513
vn -0.4335 -0.8654 -0.2513
vn -0.2876 -0.9577 -0.0000
vn 0.1961 -0.9806 -0.0000
vn 0.0477 -0.9654 -0.2564
vn 0.0062 -0.9790 0.2035
vn 0.0000 -0.9553 0.2955
vn 0.3104 -0.9493 -0.0508
vn 0.2600 -0.9617 0.0866
vn -0.7680 0.4598 -0.4459
vn -0.1647 0.2217 -0.9611
vn -0.8867 0.4623 0.0000
vn -0.5429 0.5120 0.6657
vn -0.2424 0.2310 -0.9423
vn 0.0000 0.6209 0.7839
vn -0.0879 0.5949 0.7989
vn 0.6467 0.6160 -0.4498
vn 0.3824 0.4696 -0.7958
vn 0.4546 0.1203 0.8825
vn 0.7642 0.6450 0.0000
vn -0.1588 0.3439 -0.9255
vn -0.1586 0.3443 -0.9254
vn -0.7561 0.4581 0.4674
vn -0.2068 0.5574 -0.8041
vn -0.1414 0.5972 0.7895
vn -0.1416 0.5975 0.7893
vn 0.7333 0.6799 0.0000
vn -0.4473 -0.8644 -0.2296
vn -0.4399 -0.8792 0.1828
vn -0.2758 -0.9183 0.2840
vn -0.2759 -0.9184 0.2837
vn -0.0137 -0.9985 -0.0534
vn 0.0490 -0.9899 0.1334
vn -0.0146 -0.9498 0.3124
vn 0.3207 -0.9449 -0.0663
vn 0.3108 -0.9505 -0.0000
vn -0.0363 0.2721 -0.9616
vn -0.5645 0.6253 0.5388
vn 0.9743 0.1299 0.1841
vn 0.6410 0.5485 -0.5369
vn 0.3245 0.3314 -0.8860
vn 0.2282 0.3290 0.9164
usemtl Material_#27.039
s 1
f 1/1/1 2/2/2 6/3/3
f 2/2/4 3/4/4 7/5/4
f 3/4/5 4/6/5 8/7/5
f 5/8/6 6/9/6 10/10/6
f 6/11/5 7/12/5 11/13/5
f 7/12/7 8/14/7 12/15/7
f 9/16/8 10/17/8 14/18/8
f 10/17/9 11/19/9 15/20/9
f 21/21/10 17/22/11 16/23/12
f 22/24/13 18/25/13 17/22/13
f 23/26/14 19/27/14 18/25/14
f 25/28/15 21/21/15 20/29/15
f 26/30/16 22/24/16 21/21/16
f 27/31/17 23/26/17 22/24/17
f 29/32/18 25/28/18 24/33/18
f 30/34/19 26/30/19 25/28/19
f 2/2/2 1/1/1 16/35/20
f 1/36/21 5/8/21 20/37/21
f 3/4/22 2/2/22 17/38/22
f 4/6/22 3/4/22 18/39/22
f 8/7/23 4/6/23 19/40/23
f 5/8/24 9/41/24 24/42/24
f 12/15/25 8/14/25 23/43/25
f 11/13/26 12/15/26 27/44/26
f 13/45/27 14/18/27 29/46/27
f 9/16/28 13/45/28 28/47/28
f 15/48/29 11/49/29 26/50/29
f 14/18/30 15/20/30 30/51/30
f 6/9/31 5/8/32 1/36/32
f 7/5/4 6/3/4 2/2/4
f 8/7/33 7/5/33 3/4/33
f 10/10/34 9/41/34 5/8/34
f 11/13/5 10/52/5 6/11/5
f 12/15/35 11/13/35 7/12/36
f 14/18/5 13/45/5 9/16/5
f 15/20/37 14/18/37 10/17/37
f 16/23/38 20/29/38 21/21/38
f 17/22/39 21/21/39 22/24/39
f 18/25/40 22/24/40 23/26/41
f 20/29/42 24/33/42 25/28/42
f 21/21/43 25/28/43 26/30/43
f 22/24/44 26/30/44 27/31/44
f 24/33/45 28/53/45 29/32/45
f 25/28/46 29/32/46 30/34/46
f 16/35/20 17/38/20 2/2/2
f 20/37/47 16/54/47 1/36/47
f 17/38/22 18/39/22 3/4/22
f 18/39/22 19/40/22 4/6/22
f 19/40/48 23/55/48 8/7/48
f 24/42/24 20/37/24 5/8/24
f 23/43/25 27/44/25 12/15/25
f 27/56/49 26/50/49 11/49/49
f 29/46/50 28/47/50 13/45/50
f 28/47/51 24/57/51 9/16/51
f 26/50/52 30/58/52 15/48/52
f 30/51/30 29/46/30 14/18/30
