# Blender v2.93.4 OBJ File: ''
# www.blender.org
mtllib stone_big_02.mtl
v 0.451892 3.262335 0.449485
v 0.399233 3.262335 0.185010
v 0.533511 3.262335 -0.020976
v 0.476954 3.262335 -0.284282
v 0.094883 3.262335 0.511464
v 0.172974 4.940650 0.185010
v 0.172974 4.940650 0.015258
v 0.237917 3.262335 -0.429204
v -0.207207 3.678411 0.369344
v -0.207207 3.678411 0.185010
v -0.207207 3.678411 0.015258
v -0.122917 3.678411 -0.321334
v -0.341419 3.262335 0.380862
v -0.489426 3.262335 0.185010
v -0.492690 3.262335 -0.032087
v -0.413685 3.262335 -0.158645
v 0.315421 0.187456 0.332292
v 0.406083 0.187456 0.151692
v 0.497776 0.187456 0.011029
v 0.332535 0.187456 -0.348287
v 0.071629 0.187456 0.411366
v 0.124955 0.086138 0.151692
v 0.124955 -0.006257 0.035771
v 0.169303 0.095061 -0.447250
v -0.134661 0.187456 0.277567
v -0.134661 0.086138 0.151692
v -0.134660 -0.006257 0.035771
v -0.077101 0.095061 -0.335902
v -0.226310 0.187456 0.285433
v -0.467336 0.187456 0.151692
v -0.469565 0.187456 0.003441
v -0.275659 0.187456 -0.302390
v -0.282147 2.251618 0.403991
v 0.107625 2.251618 0.656795
v 0.568257 2.251618 0.561206
v 0.342296 2.251618 0.219970
v 0.515546 2.251618 -0.045807
v 0.600592 2.251618 -0.385537
v 0.292175 2.251618 -0.572521
v -0.173391 2.251618 -0.319728
v -0.548555 2.251618 -0.256410
v -0.633959 2.251618 -0.060141
v -0.629749 2.251618 0.219970
v -0.455314 2.251618 0.472665
v 0.451892 4.428771 0.449485
v 0.584658 4.940650 0.185010
v 0.718936 4.940650 -0.020976
v 0.476954 4.428771 -0.284282
v 0.237917 4.428771 -0.429204
v -0.122917 4.428771 -0.321334
v -0.207207 4.434117 0.015258
v -0.207207 4.503406 0.185010
v -0.207207 4.428771 0.369344
v 0.094883 4.428771 0.565278
v -0.229729 3.249614 0.342116
v -0.137563 3.264403 -0.240221
v -0.379630 0.879972 0.411661
v -0.715353 0.879971 0.196738
v -0.718936 0.879971 -0.041499
v -0.458933 0.879972 -0.446883
v -0.139851 0.879972 -0.500737
v 0.256121 0.879972 -0.656797
v 0.518434 0.879972 -0.497764
v 0.572142 0.879972 -0.029305
v 0.424789 0.879972 0.196738
v 0.490931 0.879972 0.486965
v 0.099158 0.879972 0.614036
v -0.232350 0.879972 0.399022
vt -0.342444 0.184084
vt -0.202943 0.107537
vt -0.191522 0.206474
vt -0.129987 0.078605
vt -0.163352 0.207467
vt -0.005996 0.192884
vt -0.012022 0.268076
vt -0.327975 0.283322
vt -0.210575 0.349128
vt -0.156050 0.363158
vt -0.069832 0.346269
vt 0.223047 0.932035
vt 0.174481 0.939311
vt 0.134505 0.820056
vt 0.131177 0.946886
vt 0.081210 0.829185
vt 1.049429 0.954518
vt 0.962523 0.937573
vt 1.051470 0.833375
vt 1.285259 0.139562
vt 1.209835 0.142934
vt 1.231242 0.095475
vt 1.291069 0.173742
vt 1.188592 0.184157
vt 1.285693 0.296818
vt 1.233816 0.276006
vt 1.351421 0.134284
vt 1.291605 0.069395
vt 1.350596 0.168047
vt 1.349972 0.264423
vt 1.438856 0.127149
vt 1.351099 0.095114
vt 1.445060 0.166713
vt 1.406719 0.252030
vt 0.481568 0.837552
vt 0.413901 0.830691
vt 0.542986 0.583503
vt 0.316265 0.829424
vt 0.445076 0.576531
vt 0.725449 0.822651
vt 0.662704 0.820012
vt 0.701633 0.567601
vt 0.795025 0.823008
vt 0.784517 0.567933
vt 0.871636 0.825817
vt 0.871127 0.569575
vt 0.223478 0.822819
vt 0.979300 0.831972
vt 0.194832 0.822298
vt 0.177587 0.566184
vt 0.104081 0.564062
vt 1.088134 0.837032
vt 1.149364 0.584200
vt 0.446799 0.234813
vt 0.332370 0.573138
vt 0.622957 0.568190
vt 0.710135 0.219520
vt 0.821502 0.229162
vt 0.220292 0.569589
vt 0.345623 0.231778
vt 0.889959 0.229458
vt 1.001200 0.577698
vt 0.116468 0.217963
vt 0.213887 0.223206
vt 0.034493 0.566543
vt 0.059173 0.207692
vt 1.064277 0.232556
vt 1.096209 0.578433
vt 0.476524 1.260312
vt 0.410275 1.126674
vt 0.690723 1.246553
vt 0.629834 1.239913
vt 0.780824 1.116727
vt 0.849301 1.119239
vt 0.941310 1.127273
vt 1.026215 1.140054
vt 0.185864 1.147587
vt 0.142742 1.134422
vt 0.229224 1.124346
vt 0.317501 1.124779
vt 0.420764 0.054570
vt 0.516373 0.220800
vt 0.643952 0.213995
vt 0.728469 0.043773
vt 0.835410 0.049395
vt 0.249015 0.221787
vt 0.348162 0.052432
vt 0.899287 0.027742
vt 0.988857 0.228266
vt 0.174380 0.042538
vt 0.250028 0.045123
vt 0.136706 0.031169
vt 1.039763 0.052661
vt 1.182125 0.229503
vt -0.263829 0.354134
vt 1.375769 0.094468
vt 0.469381 0.045015
vt 0.684748 0.038682
vt 0.279606 0.043592
vt 0.980262 0.024335
vt 1.134516 0.043065
vn 0.0000 0.4590 0.8884
vn 0.0000 1.0000 0.0000
vn 0.5089 0.1912 -0.8393
vn -0.6100 0.5304 0.5887
vn -0.7998 0.6003 0.0000
vn -0.2241 0.6226 -0.7498
vn -0.8276 0.5613 0.0000
vn -0.8267 0.5625 0.0084
vn -0.8276 0.5613 0.0028
vn -0.8246 0.5658 0.0000
vn -0.8252 0.5648 0.0026
vn -0.8381 0.5036 -0.2099
vn 0.3342 -0.9274 0.1678
vn 0.4557 -0.8391 0.2971
vn 0.5939 -0.7567 -0.2731
vn 0.0000 -0.9316 0.3635
vn 0.0000 -0.7820 0.6233
vn -0.0962 -0.9724 -0.2128
vn -0.2308 -0.7580 0.6101
vn -0.4561 -0.6959 0.5547
vn -0.4436 -0.8449 -0.2990
vn 0.9789 -0.0619 -0.1949
vn 0.1697 0.1275 0.9772
vn 0.8374 -0.0283 0.5459
vn 0.9682 0.1393 -0.2080
vn 0.5128 0.1475 -0.8458
vn -0.4700 -0.0401 0.8817
vn -0.4630 -0.0336 0.8857
vn -0.4613 -0.0321 0.8867
vn -0.4447 -0.1570 -0.8818
vn -0.7896 0.1432 0.5967
vn 0.3190 -0.0767 0.9447
vn -0.9903 0.1380 0.0149
vn -0.2777 -0.1752 -0.9445
vn -0.8408 0.1321 -0.5249
vn 0.8336 -0.0171 -0.5520
vn 0.2028 -0.0643 0.9771
vn 0.8370 0.0411 0.5456
vn 0.9692 0.0429 0.2426
vn 0.5180 0.0389 -0.8545
vn -0.5440 -0.0228 0.8388
vn -0.4761 0.0664 -0.8769
vn -0.8222 0.0417 0.5676
vn 0.3686 -0.0210 0.9294
vn -0.9980 0.0620 0.0150
vn -0.1651 0.1253 -0.9783
vn -0.1651 0.1251 -0.9783
vn -0.1652 0.1210 -0.9788
vn -0.9169 -0.0045 -0.3990
vn 0.8937 -0.0000 0.4486
vn 0.8342 -0.0922 0.5438
vn 0.8143 -0.0900 -0.5734
vn 0.5184 0.0000 -0.8551
vn -0.2864 0.0000 -0.9581
vn -0.9700 0.0000 -0.2429
vn -1.0000 -0.0000 0.0000
vn -0.5442 -0.0000 0.8390
vn 0.3082 -0.0438 0.9503
vn 0.3316 0.0410 0.9425
vn -0.4635 0.0791 0.8826
vn -0.4475 0.0857 -0.8901
vn -0.2829 0.0850 -0.9554
vn 0.9565 -0.1937 -0.2180
vn 0.2963 -0.2791 0.9134
vn 0.8363 -0.0581 0.5452
vn 0.9872 -0.1126 -0.1132
vn 0.4932 -0.3080 -0.8135
vn -0.5310 -0.2185 0.8187
vn -0.3590 -0.2035 -0.9109
vn -0.5233 -0.2406 0.8175
vn 0.0844 -0.1606 0.9834
vn -0.9411 -0.3380 0.0142
vn -0.9411 -0.3380 0.0141
vn -0.1615 -0.2423 -0.9567
vn -0.7981 -0.3180 -0.5118
vn -0.7982 -0.3183 -0.5114
vn -0.7996 -0.3204 -0.5080
vn 0.2575 0.5506 0.7940
vn -0.0503 0.6512 -0.7573
vn -0.2365 0.9006 0.3647
vn -0.7289 0.6338 -0.2587
vn -0.7827 0.5875 -0.2053
vn -0.7694 0.2643 0.5815
vn -0.7137 0.5404 -0.4456
vn 0.1241 -0.9155 0.3827
vn 0.2713 -0.7527 0.5999
vn 0.4487 -0.8820 -0.1438
vn -0.3767 -0.7216 0.5808
vn 0.0000 -0.9648 -0.2630
vn 0.0000 -1.0000 0.0000
vn -0.2913 -0.9566 0.0044
vn -0.4580 -0.8402 -0.2904
vn 0.8333 0.0349 -0.5518
vn 0.2011 0.1419 0.9692
vn 0.9698 -0.0232 0.2428
vn -0.8157 0.1327 0.5631
vn -0.9053 0.1589 -0.3939
vn 0.9731 0.0623 -0.2218
vn 0.3084 -0.0315 0.9507
vn 0.9922 -0.0501 -0.1138
vn -0.3643 0.1131 -0.9244
vn -0.5379 -0.0671 0.8403
vn 0.0855 -0.0005 0.9963
vn -0.8409 0.0448 -0.5393
vn 0.9750 -0.1077 -0.1941
vn 0.9777 0.0000 -0.2100
vn -0.4707 -0.0407 0.8814
vn 0.1710 -0.0000 0.9853
vn 0.3683 0.0429 0.9287
vn -0.5407 0.1130 0.8336
vn -0.4749 0.0985 -0.8745
vn -0.1653 0.1168 -0.9793
vn 0.8924 -0.0532 0.4480
vn 0.8617 -0.3169 -0.3963
vn 0.6056 -0.2671 -0.7496
vn -0.4018 -0.2189 -0.8892
vn -0.4688 -0.2578 0.8449
vn -0.9411 -0.3379 0.0141
vn -0.2603 -0.2183 -0.9405
vn -0.7999 -0.3209 -0.5071
usemtl Material_#27.004
s 1
f 45/1/1 46/2/1 6/3/1
f 46/2/2 47/4/2 7/5/2
f 47/4/3 48/6/3 49/7/3
f 54/8/4 6/3/4 52/9/4
f 6/3/5 7/5/5 51/10/5
f 7/5/6 49/7/6 50/11/6
f 9/12/7 10/13/8 14/14/9
f 10/13/8 11/15/10 15/16/11
f 11/17/12 12/18/12 16/19/12
f 22/20/13 18/21/13 17/22/13
f 23/23/14 19/24/14 18/21/14
f 24/25/15 20/26/15 19/24/15
f 26/27/16 22/20/16 21/28/16
f 27/29/17 23/23/17 22/20/17
f 28/30/18 24/25/18 23/23/18
f 30/31/19 26/27/19 25/32/19
f 31/33/20 27/29/20 26/27/20
f 32/34/21 28/30/21 27/29/21
f 2/35/22 1/36/22 36/37/22
f 1/36/23 5/38/23 35/39/23
f 3/40/24 2/41/24 37/42/24
f 4/43/25 3/40/25 38/44/25
f 8/45/26 4/43/26 39/46/26
f 5/38/27 9/12/28 55/47/29
f 12/18/30 8/45/30 56/48/30
f 13/49/31 14/14/31 44/50/31
f 9/12/32 13/49/32 55/47/32
f 14/14/33 15/16/33 43/51/33
f 16/19/34 12/18/34 56/48/34
f 15/52/35 16/19/35 42/53/35
f 35/39/36 66/54/36 36/37/36
f 34/55/37 66/54/37 35/39/37
f 36/56/38 64/57/38 37/42/38
f 37/42/39 64/57/39 38/44/39
f 38/44/40 63/58/40 39/46/40
f 33/59/41 67/60/41 34/55/41
f 39/46/42 62/61/42 40/62/42
f 43/51/43 58/63/43 44/50/43
f 44/50/44 57/64/44 33/59/44
f 42/65/45 59/66/45 43/51/45
f 40/62/46 60/67/47 41/68/48
f 41/68/49 60/67/49 42/53/49
f 1/36/50 46/69/50 45/70/50
f 2/41/51 47/71/51 46/72/51
f 3/40/52 48/73/52 47/71/52
f 4/43/53 49/74/53 48/73/53
f 8/45/54 50/75/54 49/74/54
f 12/18/55 51/76/55 50/75/55
f 11/15/56 52/77/56 51/78/56
f 10/13/56 53/79/56 52/77/56
f 9/12/57 54/80/57 53/79/57
f 5/38/58 45/70/58 54/80/58
f 13/49/59 33/59/59 55/47/59
f 55/47/60 33/59/60 5/38/60
f 8/45/61 40/62/61 56/48/61
f 56/48/62 40/62/62 16/19/62
f 66/54/63 17/81/63 65/82/63
f 67/60/64 17/81/64 66/54/64
f 65/83/65 19/84/65 64/57/65
f 64/57/66 19/84/66 63/58/66
f 63/58/67 20/85/67 62/61/67
f 68/86/68 21/87/68 67/60/68
f 62/61/69 24/88/69 61/89/69
f 58/63/70 30/90/70 57/64/70
f 57/64/71 29/91/71 68/86/71
f 59/66/72 31/92/73 58/63/73
f 61/89/74 32/93/74 60/67/74
f 60/67/75 32/93/76 59/94/77
f 6/3/78 54/8/78 45/1/78
f 7/5/2 6/3/2 46/2/2
f 49/7/79 7/5/79 47/4/79
f 52/9/80 53/95/80 54/8/80
f 51/10/81 52/9/81 6/3/81
f 50/11/82 51/10/82 7/5/82
f 14/14/83 13/49/83 9/12/83
f 15/16/11 14/14/9 10/13/8
f 16/19/84 15/52/84 11/17/84
f 17/22/85 21/28/85 22/20/85
f 18/21/86 22/20/86 23/23/86
f 19/24/87 23/23/87 24/25/87
f 21/28/88 25/32/88 26/27/88
f 22/20/17 26/27/17 27/29/17
f 23/23/89 27/29/89 28/30/89
f 25/32/90 29/96/90 30/31/90
f 26/27/91 30/31/91 31/33/91
f 27/29/92 31/33/92 32/34/92
f 1/36/93 35/39/93 36/37/93
f 5/38/94 34/55/94 35/39/94
f 2/41/24 36/56/24 37/42/24
f 3/40/95 37/42/95 38/44/95
f 4/43/26 38/44/26 39/46/26
f 14/14/96 43/51/96 44/50/96
f 15/16/33 42/65/33 43/51/33
f 16/19/97 41/68/97 42/53/97
f 66/54/98 65/82/98 36/37/98
f 34/55/99 67/60/99 66/54/99
f 36/56/38 65/83/38 64/57/38
f 64/57/100 63/58/100 38/44/100
f 63/58/40 62/61/40 39/46/40
f 33/59/41 68/86/41 67/60/41
f 62/61/101 61/89/101 40/62/101
f 58/63/102 57/64/102 44/50/102
f 57/64/103 68/86/103 33/59/103
f 59/66/45 58/63/45 43/51/45
f 40/62/46 61/89/47 60/67/47
f 60/67/104 59/94/104 42/53/104
f 1/36/105 2/35/105 46/69/105
f 2/41/51 3/40/51 47/71/51
f 3/40/106 4/43/106 48/73/106
f 4/43/53 8/45/53 49/74/53
f 8/45/54 12/18/54 50/75/54
f 12/18/55 11/17/55 51/76/55
f 11/15/56 10/13/56 52/77/56
f 10/13/56 9/12/56 53/79/56
f 9/12/28 5/38/27 54/80/107
f 5/38/108 1/36/108 45/70/108
f 13/49/109 44/50/109 33/59/109
f 33/59/110 34/55/110 5/38/110
f 8/45/111 39/46/111 40/62/111
f 40/62/46 41/68/48 16/19/112
f 17/81/113 18/97/113 65/82/113
f 67/60/64 21/87/64 17/81/64
f 65/83/65 18/98/65 19/84/65
f 19/84/114 20/85/114 63/58/114
f 20/85/115 24/88/115 62/61/115
f 68/86/68 25/99/68 21/87/68
f 24/88/116 28/100/116 61/89/116
f 30/90/117 29/91/117 57/64/117
f 29/91/71 25/99/71 68/86/71
f 31/92/73 30/90/118 58/63/73
f 61/89/119 28/100/119 32/93/119
f 32/93/76 31/101/120 59/94/77
