# Blender v2.93.4 OBJ File: ''
# www.blender.org
mtllib wellRoof.mtl
v 5.691213 17.825264 -0.050070
v 5.691213 18.447674 -0.572332
v 5.691213 18.969936 0.050076
v 5.691213 18.347527 0.572338
v 1.787830 18.489208 -0.521864
v -5.390202 18.565542 -0.429113
v -5.390202 18.957115 0.037546
v 1.787831 18.965418 0.045661
v -5.390202 18.098885 -0.037540
v -5.390202 18.490458 0.429119
v 5.455688 18.449919 -0.569604
v 5.450232 18.454111 -0.616358
v 5.450232 17.783825 -0.053922
v 5.455688 17.830477 -0.049831
v 1.787831 17.921682 -0.045654
v 5.594100 19.016811 0.054186
v 5.594100 18.343315 0.619316
v 1.787830 18.397894 0.521870
v 5.455688 18.350250 0.569610
v 5.455688 18.969690 0.049837
v 5.450232 19.016546 0.053928
v 5.450232 18.346262 0.616364
v 5.527344 17.742895 -0.057377
v 5.594100 17.778185 -0.054180
v 5.527344 18.341366 0.655854
v 5.527344 19.054596 0.057383
v 5.527344 18.456125 -0.655848
v 5.594100 18.451681 -0.619310
v -5.362183 13.863057 6.616719
v -4.623935 13.863057 6.616719
v -4.623935 15.891029 3.578021
v -5.362183 15.891029 3.578021
v -5.362183 16.146093 -3.580847
v -4.623935 16.146093 -3.580847
v -4.623935 13.964545 -6.947480
v -5.362184 13.964545 -6.947480
v -5.362183 18.494249 -0.001595
v -5.362183 15.985914 -2.966029
v -4.623935 15.985914 -2.966029
v -4.623935 18.494249 -0.001595
v -5.362183 13.726323 6.031877
v -5.362183 15.771730 2.968835
v -4.623935 15.771730 2.968835
v -4.623935 13.726323 6.031877
v -5.362184 13.793303 -6.348802
v -4.623935 13.793303 -6.348802
v -4.623935 19.095448 0.021505
v -5.362183 19.095448 0.021505
v 4.775390 13.863057 6.616719
v 5.513638 13.863057 6.616719
v 5.513638 15.891029 3.578021
v 4.775390 15.891029 3.578021
v 4.775390 16.146093 -3.580847
v 5.513638 16.146093 -3.580847
v 5.513638 13.964545 -6.947480
v 4.775389 13.964545 -6.947480
v 4.775390 18.494249 -0.001595
v 4.775390 15.985914 -2.966029
v 5.513638 15.985914 -2.966029
v 5.513638 18.494249 -0.001595
v 4.775390 13.726323 6.031877
v 4.775390 15.771730 2.968835
v 5.513638 15.771730 2.968835
v 5.513638 13.726323 6.031877
v 4.775390 13.793303 -6.348802
v 5.513638 13.793303 -6.348802
v 5.513638 19.095448 0.021505
v 4.775390 19.095448 0.021505
v -4.945843 18.895048 0.013805
v -4.945843 15.851263 3.374960
v 5.003584 15.851263 3.374959
v 5.003584 18.895048 0.013805
v -4.945843 16.039307 -3.170968
v -4.945844 13.850385 -6.548359
v 5.003584 13.850385 -6.548361
v 5.003584 16.039307 -3.170969
v -4.945843 13.817479 6.421772
v 5.003584 13.817479 6.421772
v -4.945843 18.694649 0.006105
v 5.003584 18.694649 0.006104
v 5.003584 16.092701 -3.375908
v 5.003584 15.811496 3.171897
v 5.003584 13.907465 -6.747920
v 5.003584 13.771901 6.226823
v -4.945843 13.771901 6.226824
v -4.945843 15.811496 3.171898
v -4.945843 16.092701 -3.375907
v -4.945844 13.907465 -6.747920
vt 0.830979 0.164811
vt 0.983980 0.011810
vt 0.830979 0.011810
vt 0.264113 0.081861
vt 0.622229 0.110068
vt 0.622229 0.081861
vt 0.850048 0.031682
vt 0.964763 0.146397
vt 0.964763 0.031682
vt 0.973142 0.024210
vt 0.836920 0.018842
vt 0.842278 0.024203
vt 0.264113 0.053653
vt 0.533115 0.018619
vt 0.677777 0.010487
vt 0.533115 0.010487
vt 0.264113 0.138276
vt 0.264113 0.110068
vt 0.622229 0.138276
vt 0.805329 0.110068
vt 0.973141 0.155075
vt 0.978525 0.018850
vt 0.805329 0.081861
vt 0.622229 0.053653
vt 0.264113 0.166484
vt 0.622229 0.166484
vt 0.805329 0.138276
vt 0.836913 0.160462
vt 0.842271 0.155081
vt 0.822439 0.024936
vt 0.677777 0.018619
vt 0.677777 0.024936
vt 0.533115 0.024936
vt 0.388453 0.024936
vt 0.243792 0.031769
vt 0.388453 0.031769
vt 0.243792 0.010487
vt 0.388453 0.018619
vt 0.388453 0.010487
vt 0.836900 0.018860
vt 0.822439 0.010487
vt 0.243792 0.024936
vt 0.677777 0.031769
vt 0.533115 0.031769
vt 0.822439 0.031769
vt 0.701005 0.220004
vt 0.644780 0.492860
vt 0.644780 0.220004
vt 0.737300 0.613325
vt 0.796829 0.901407
vt 0.737300 0.901407
vt 0.737300 0.599723
vt 0.796829 0.305037
vt 0.737300 0.305037
vt 0.644780 0.519242
vt 0.701005 0.244136
vt 0.644780 0.244136
vt 0.796829 0.889227
vt 0.796829 0.599723
vt 0.644780 0.825825
vt 0.701005 0.519242
vt 0.868332 0.283927
vt 0.858823 0.491201
vt 0.838341 0.260453
vt 0.858823 0.491201
vt 0.868332 0.283927
vt 0.888920 0.516571
vt 0.944179 0.499106
vt 0.933069 0.269016
vt 0.912345 0.523796
vt 0.944179 0.499106
vt 0.933069 0.269016
vt 0.964835 0.245564
vt 0.701005 0.856957
vt 0.701005 0.492860
vt 0.737300 0.262122
vt 0.796829 0.613325
vt 0.872362 0.771537
vt 0.841730 0.794278
vt 0.923666 0.769775
vt 0.912345 0.523796
vt 0.923666 0.769775
vt 0.952977 0.794196
vt 0.872362 0.771537
vt 0.841730 0.794278
vt 0.645956 0.178270
vt 0.702900 0.212899
vt 0.645956 0.212899
vt 0.830681 0.186362
vt 0.757800 0.245998
vt 0.757800 0.186362
vt 0.701005 0.220004
vt 0.644780 0.492860
vt 0.644780 0.220004
vt 0.737300 0.613325
vt 0.796829 0.901407
vt 0.737300 0.901407
vt 0.737300 0.599723
vt 0.796829 0.305037
vt 0.737300 0.305037
vt 0.644780 0.519242
vt 0.701005 0.244136
vt 0.644780 0.244136
vt 0.737300 0.889227
vt 0.796829 0.599723
vt 0.644780 0.825825
vt 0.701005 0.519242
vt 0.858823 0.491201
vt 0.868332 0.283927
vt 0.838341 0.260453
vt 0.858823 0.491201
vt 0.868332 0.283927
vt 0.888920 0.516571
vt 0.944179 0.499106
vt 0.933069 0.269016
vt 0.912345 0.523796
vt 0.933069 0.269016
vt 0.944179 0.499106
vt 0.964835 0.245564
vt 0.701005 0.856957
vt 0.701005 0.492860
vt 0.737300 0.262122
vt 0.796829 0.613325
vt 0.872362 0.771537
vt 0.841730 0.794278
vt 0.923666 0.769775
vt 0.952977 0.794196
vt 0.923666 0.769775
vt 0.952977 0.794196
vt 0.872362 0.771537
vt 0.841730 0.794278
vt 0.645956 0.178270
vt 0.702900 0.212899
vt 0.645956 0.212899
vt 0.830681 0.186362
vt 0.757800 0.245998
vt 0.757800 0.186362
vt 0.271800 0.421048
vt 0.414744 0.706114
vt 0.271800 0.706115
vt 0.381838 0.706373
vt 0.501273 0.991439
vt 0.381839 0.991439
vt 0.414744 0.421048
vt 0.516299 0.706114
vt 0.246230 0.991439
vt 0.246230 0.706373
vt 0.146058 0.252752
vt 0.282015 0.336349
vt 0.143334 0.256963
vt 0.451063 0.306039
vt 0.304212 0.367309
vt 0.293803 0.366331
vt 0.028842 0.175147
vt 0.031759 0.171067
vt 0.558364 0.252843
vt 0.453177 0.310586
vt 0.110943 0.706373
vt 0.009104 0.991439
vt 0.009104 0.706373
vt 0.110943 0.991439
vt 0.521158 0.421059
vt 0.516556 0.684708
vt 0.516556 0.421048
vt 0.128341 0.421048
vt 0.128341 0.706115
vt 0.526018 0.421059
vt 0.521416 0.684707
vt 0.521416 0.421048
vt 0.009105 0.706115
vt 0.009104 0.421048
vt 0.281619 0.367223
vt 0.135207 0.304916
vt 0.292034 0.366320
vt 0.028290 0.250966
vt 0.133061 0.309448
vt 0.440303 0.256879
vt 0.303759 0.339511
vt 0.293344 0.340415
vt 0.558066 0.180104
vt 0.555179 0.176003
vt 0.983980 0.164811
vt 0.850048 0.146397
vt 0.978525 0.160456
vt 0.805329 0.053653
vt 0.805329 0.166484
vt 0.822439 0.018619
vt 0.243792 0.018619
vt 0.737300 0.889227
vt 0.701005 0.825825
vt 0.888920 0.516571
vt 0.838341 0.260453
vt 0.964835 0.245564
vt 0.644780 0.856957
vt 0.796829 0.262122
vt 0.952977 0.794196
vt 0.702900 0.178270
vt 0.830681 0.245998
vt 0.796829 0.889227
vt 0.701005 0.825825
vt 0.888920 0.516571
vt 0.838341 0.260453
vt 0.964835 0.245564
vt 0.912345 0.523796
vt 0.644780 0.856957
vt 0.796829 0.262122
vt 0.702900 0.178270
vt 0.830681 0.245998
vt 0.501273 0.706373
vt 0.516299 0.421048
vt 0.292425 0.337327
vt 0.555950 0.248447
vt 0.521158 0.684720
vt 0.526018 0.684719
vt 0.030735 0.246587
vt 0.442997 0.261110
vn 1.0000 -0.0000 0.0000
vn -0.0002 0.7660 -0.6428
vn -1.0000 -0.0000 0.0000
vn -0.9867 0.1045 0.1245
vn -0.0167 -0.6427 -0.7659
vn 0.3242 0.6081 0.7247
vn -0.0016 0.6428 0.7660
vn -0.9868 -0.1240 0.1040
vn -0.0169 -0.6427 -0.7659
vn -0.0182 -0.7659 0.6427
vn -0.0183 -0.7659 0.6427
vn -0.9868 -0.1041 -0.1240
vn 0.3505 -0.7175 0.6020
vn 0.3718 0.5967 0.7111
vn -0.3515 -0.6018 -0.7171
vn -0.3297 0.7232 -0.6069
vn 0.3253 -0.6078 -0.7244
vn -0.9867 0.1245 -0.1045
vn 0.3241 0.7247 -0.6081
vn 0.3254 -0.7243 0.6078
vn 0.3736 0.7106 -0.5962
vn 0.3523 -0.6016 -0.7169
vn -0.3316 0.6064 0.7227
vn -0.3534 -0.7166 0.6013
vn 0.0000 0.8318 0.5551
vn 0.0000 0.8392 -0.5438
vn 0.0000 -0.7634 0.6459
vn 0.0000 -0.8316 -0.5553
vn 0.0000 -0.8391 0.5439
vn 0.0000 -0.7372 -0.6757
vn 0.0000 0.7429 0.6694
vn 0.0000 0.7737 -0.6335
vn 0.0000 -0.9737 0.2277
vn 0.0000 -0.9614 -0.2750
vn 0.0000 0.7412 0.6712
vn 0.0000 -0.8392 0.5439
vn 0.0000 0.8317 0.5552
vn 0.0000 -0.7673 0.6413
vn -0.0000 -0.8317 -0.5553
vn -0.0000 -0.7393 -0.6733
vn -0.0000 0.7707 -0.6372
vn 0.3504 -0.7175 0.6020
vn -0.3515 -0.6018 -0.7172
vn -0.3297 0.7232 -0.6068
vn -0.9867 0.1246 -0.1045
vn 0.0000 -0.9737 0.2276
usemtl well_roof_texture
s off
f 2/1/1 4/2/1 1/3/1
f 6/4/2 8/5/2 5/6/2
f 9/7/3 7/8/3 6/9/3
f 11/10/4 13/11/4 14/12/4
f 5/6/5 9/13/5 6/4/5
f 16/14/6 4/15/6 3/16/6
f 10/17/7 8/5/7 7/18/7
f 18/19/7 20/20/7 8/5/7
f 20/21/8 12/22/8 11/10/8
f 11/23/9 15/24/9 5/6/9
f 9/25/10 18/19/10 10/17/10
f 15/26/11 19/27/11 18/19/11
f 22/28/12 20/21/12 19/29/12
f 5/6/2 20/20/2 11/23/2
f 23/30/13 17/31/13 25/32/13
f 25/32/14 16/14/14 26/33/14
f 27/34/15 13/35/15 12/36/15
f 12/36/16 26/33/16 27/34/16
f 1/37/17 28/38/17 2/39/17
f 13/40/18 19/29/18 14/12/18
f 2/39/19 16/14/19 3/16/19
f 17/31/20 1/41/20 4/15/20
f 27/34/21 16/14/21 28/38/21
f 28/38/22 23/42/22 27/34/22
f 22/43/23 26/33/23 21/44/23
f 13/45/24 25/32/24 22/43/24
f 30/46/25 32/47/25 29/48/25
f 33/49/26 35/50/26 36/51/26
f 38/52/27 40/53/27 37/54/27
f 42/55/28 44/56/28 41/57/28
f 38/52/29 46/58/29 39/59/29
f 37/60/30 43/61/30 42/55/30
f 41/62/1 32/63/1 29/64/1
f 31/65/1 44/66/1 43/67/1
f 33/68/3 45/69/3 38/70/3
f 34/71/1 46/72/1 35/73/1
f 47/74/31 32/47/31 31/75/31
f 48/76/32 34/77/32 33/49/32
f 31/65/1 40/78/1 47/79/1
f 34/71/1 40/80/1 39/81/1
f 33/68/3 37/82/3 48/83/3
f 32/63/1 37/84/1 48/85/1
f 41/86/33 30/87/33 29/88/33
f 35/89/34 45/90/34 36/91/34
f 50/92/25 52/93/25 49/94/25
f 53/95/26 55/96/26 56/97/26
f 58/98/27 60/99/27 57/100/27
f 62/101/28 64/102/28 61/103/28
f 65/104/29 59/105/29 58/98/29
f 57/106/30 63/107/30 62/101/30
f 52/108/3 61/109/3 49/110/3
f 51/111/1 64/112/1 63/113/1
f 53/114/3 65/115/3 58/116/3
f 66/117/3 54/118/3 55/119/3
f 67/120/31 52/93/31 51/121/31
f 68/122/32 54/123/32 53/95/32
f 51/111/1 60/124/1 67/125/1
f 54/118/3 60/126/3 67/127/3
f 53/114/3 57/128/3 68/129/3
f 57/130/3 52/108/3 68/131/3
f 61/132/33 50/133/33 49/134/33
f 55/135/34 65/136/34 56/137/34
f 69/138/35 71/139/35 72/140/35
f 73/141/36 75/142/36 76/143/36
f 70/144/37 78/145/37 71/139/37
f 73/141/38 80/146/38 79/147/38
f 81/148/1 80/149/1 76/150/1
f 71/151/1 80/152/1 72/153/1
f 81/148/1 75/154/1 83/155/1
f 71/151/1 84/156/1 82/157/1
f 86/158/39 84/159/39 85/160/39
f 79/147/40 82/161/40 86/158/40
f 85/162/33 78/163/33 77/164/33
f 87/165/41 72/140/41 81/166/41
f 88/167/34 75/168/34 74/169/34
f 87/165/26 83/170/26 88/171/26
f 79/172/3 70/173/3 69/174/3
f 85/175/3 70/173/3 86/176/3
f 87/177/3 79/178/3 69/179/3
f 74/180/3 87/177/3 88/181/3
f 2/1/1 3/182/1 4/2/1
f 6/4/2 7/18/2 8/5/2
f 9/7/3 10/183/3 7/8/3
f 11/10/4 12/22/4 13/11/4
f 5/6/5 15/24/5 9/13/5
f 16/14/6 17/31/6 4/15/6
f 10/17/7 18/19/7 8/5/7
f 18/19/7 19/27/7 20/20/7
f 20/21/8 21/184/8 12/22/8
f 11/23/9 14/185/9 15/24/9
f 9/25/10 15/26/10 18/19/10
f 15/26/11 14/186/11 19/27/11
f 22/28/12 21/184/12 20/21/12
f 5/6/2 8/5/2 20/20/2
f 23/30/42 24/187/42 17/31/42
f 25/32/14 17/31/14 16/14/14
f 27/34/43 23/42/43 13/35/43
f 12/36/44 21/44/44 26/33/44
f 1/37/17 24/188/17 28/38/17
f 13/40/45 22/28/45 19/29/45
f 2/39/19 28/38/19 16/14/19
f 17/31/20 24/187/20 1/41/20
f 27/34/21 26/33/21 16/14/21
f 28/38/22 24/188/22 23/42/22
f 22/43/23 25/32/23 26/33/23
f 13/45/24 23/30/24 25/32/24
f 30/46/25 31/75/25 32/47/25
f 33/49/26 34/77/26 35/50/26
f 38/52/27 39/59/27 40/53/27
f 42/55/28 43/61/28 44/56/28
f 38/52/29 45/189/29 46/58/29
f 37/60/30 40/190/30 43/61/30
f 41/62/1 42/191/1 32/63/1
f 31/65/1 30/192/1 44/66/1
f 33/68/3 36/193/3 45/69/3
f 34/71/1 39/81/1 46/72/1
f 47/74/31 48/194/31 32/47/31
f 48/76/32 47/195/32 34/77/32
f 31/65/1 43/67/1 40/78/1
f 34/71/1 47/196/1 40/80/1
f 33/68/3 38/70/3 37/82/3
f 32/63/1 42/191/1 37/84/1
f 41/86/33 44/197/33 30/87/33
f 35/89/34 46/198/34 45/90/34
f 50/92/25 51/121/25 52/93/25
f 53/95/26 54/123/26 55/96/26
f 58/98/27 59/105/27 60/99/27
f 62/101/28 63/107/28 64/102/28
f 65/104/29 66/199/29 59/105/29
f 57/106/30 60/200/30 63/107/30
f 52/108/3 62/201/3 61/109/3
f 51/111/1 50/202/1 64/112/1
f 53/114/3 56/203/3 65/115/3
f 66/117/3 59/204/3 54/118/3
f 67/120/31 68/205/31 52/93/31
f 68/122/32 67/206/32 54/123/32
f 51/111/1 63/113/1 60/124/1
f 54/118/3 59/204/3 60/126/3
f 53/114/3 58/116/3 57/128/3
f 57/130/3 62/201/3 52/108/3
f 61/132/33 64/207/33 50/133/33
f 55/135/34 66/208/34 65/136/34
f 69/138/35 70/144/35 71/139/35
f 73/141/36 74/209/36 75/142/36
f 70/144/37 77/210/37 78/145/37
f 73/141/38 76/143/38 80/146/38
f 81/148/1 72/211/1 80/149/1
f 71/151/1 82/157/1 80/152/1
f 81/148/1 76/150/1 75/154/1
f 71/151/1 78/212/1 84/156/1
f 86/158/39 82/161/39 84/159/39
f 79/147/40 80/146/40 82/161/40
f 85/162/46 84/213/46 78/163/46
f 87/165/41 69/138/41 72/140/41
f 88/167/34 83/214/34 75/168/34
f 87/165/26 81/166/26 83/170/26
f 79/172/3 86/176/3 70/173/3
f 85/175/3 77/215/3 70/173/3
f 87/177/3 73/216/3 79/178/3
f 74/180/3 73/216/3 87/177/3
